<?xml version="1.0" encoding="utf-8"?>
<!-- Generator: Adobe Illustrator 21.1.0, SVG Export Plug-In . SVG Version: 6.00 Build 0)  -->
<svg version="1.1" id="Layer_1" xmlns="http://www.w3.org/2000/svg" xmlns:xlink="http://www.w3.org/1999/xlink" x="0px" y="0px"
	 viewBox="0 0 360 260" style="enable-background:new 0 0 360 260;" xml:space="preserve">
<style type="text/css">
	.st0{fill:#ECF0F1;}
	.st1{fill:none;}
	.st2{fill:#34495E;}
	.st3{font-family:'Lato-Light';}
	.st4{font-size:35px;}
	.st5{fill:none;stroke:#000000;stroke-width:3;stroke-linecap:round;stroke-linejoin:round;stroke-miterlimit:10;}
</style>
<title>hangman_game</title>
<rect class="st0" width="360" height="260"/>
<rect x="-8.7" y="205.2" class="st1" width="377.4" height="33"/>
<text transform="matrix(1 0 0 1 12.5111 230.7089)" class="st2 st3 st4">Colombia Infographics</text>
<g>
	<g>
		<path class="st5" d="M117.4,129.5c0.3-0.8,1.2-1.9,1.4-2.6c0.3-1.2-0.5-2.3-0.3-3.4c0.3-2,2.6-3.3,2.6-5.6c1.2-0.6,1.1-0.1,2-1.4
			c0.5,0.6,1.5,0.7,1.9,0.9c0.9-1.4,2-0.7,3.4-1.7c1.3-1,1.6-2.5,2.6-3.7c2.5-2.9,5.7-5.3,8-8.4c-0.9-0.9-2-1.4-3.2-1.5
			c0.1-0.9-0.3-2.1-0.1-2.9c-0.4,0.5-1.5,0.9-1.9,1.3c-2.1-3.3-1.1-2.1,0.1-5.2c0.5-1.3,0.9-3.2,0.8-4.7c-0.1-2.3-4.4-8.9,1.4-8
			c0.2-0.9,0.1-2.1-0.3-2.9c-1.1-0.4-2-0.6-3.2-0.8c-0.5-3.3,3.6-2.7,1.2-5.9c-0.2-0.2-1.6-0.1-2.3-0.7c-0.9-0.9-1-2-1.4-3.2
			c-0.8-2.7-1-5.5,0.7-7.5c0.5-0.7,1.7-0.6,2.5-1.5c0.7-0.8,1-2.7,1.5-3.7c-2-1.4-2-6.9,1.4-6c1.5,0.4,0.5,1.5,1.4,2.6
			c0.2,0.3,1.5,0.3,1.6,0.7c0,0.1,0.1,1.9,0.1,1.8c0.4,1-1.8,1.5,0.9,2.2c2,0.5,2.5-0.4,2.3-2.4c-0.2-2.5-3.4-3.8-1.6-6.5
			c4.3,0.3,4.2-3.5,7.6-5.4c3-1.7,7.4-1.7,6.3-6.6c-1.4-0.2-2-0.1-2.6,1.2c-0.2-1.9,1.3-3.7,2.3-5.2c0.9-1.3,1.7-4.1,2.6-5.1
			c3.1-3.7,6.4-2.8,10.4-2.5c-0.8,0.8-1.3,1.8-1.6,2.9c0.5,0.4,1.3,0.7,1.9,0.7c1.2-2.6,1.6-3.6,1.8-6.5c2-0.1,2.9-1.3,4.6-1.7
			c1.8-0.4,3.8,0.2,5.7-0.1c4-0.5,6.4-3.1,9.8-4.7c-0.3-0.8,0-1.5-0.6-2.3c1.2-1.3,5.4-2.8,6.9-3.3c2.9-0.8,6.2-0.4,7.4,2.6
			c-2.4,1.6-5.9,1.7-8,3.3c-2.1,1.6-2.8,4.2-5.2,6.4c-3.5,3.3-9.2,8.3-9.1,13.5c0,1.3,0.7,2.6,0.3,4c-0.3,1.2-2.4,3.1-2.3,4
			c0.3,2.5,2,0.2,3,1c1.1,0.9,1.3,2.4,1.9,3.8c1.1,2.5,3.5,5.2,4.3,7.9c0.8,2.4-0.9,5.2,0.8,7.2c1.7,2,7.4,4,9.9,4
			c1.4-2.7,2.8,0,4.3,0.1c1.5,0.1,2.6-1.1,4.4-0.9c3,0.3,7.8,4.6,9.9,6.5c1.1,0.9,3.4,4,4.7,4.1c1,0.1,1.6-1.4,2.6-1.4
			c1.4,0,1.8,1.1,3,1.3c2,0.3,3.3-0.8,5.3-1c1.7-0.2,3.5,0.7,5.3,0c0.3,2.5,3.9,2.7,3.7,5.6c-0.2,2.3-4.1,4.9-6.3,4.7
			c-1,2.1,0.5,2.4,0.6,3.6c0.2,1.7-0.1,3.2-0.1,4.9c0,2.9,0,6.7,1,9.7c0.3,1,1.8,1.8,1.8,3.6c0,1.5-0.7,2.7-1.3,4
			c-0.5,1-2.3,3-1.7,4.3c0.6,1.4,1.9,1.3,3,0c3.3,2.7,3.4,3,3.9,7.3c0.3,2.4,0.9,5.1,0.7,8c-1.3-1.9-1.5-6.5-3.2-8
			c-2.6-2.1-4.7,0.8-7,1c-1.5,0.2-2.7-0.4-4.2-0.1c-1.2,0.3-2.5,1.2-3.8,1.4c-3.1,0.5-6.5-0.7-9.5,0.4c-0.4,1.4-0.6,3.4,0.3,4.6
			c1,1.4,2.1,0.5,3,1.3c1.5,1.4,3.2,4.4,1,5.6c1.3,0,2.4,0.4,2.9,1.4c-3.5,2.9-3.1-0.6-5.7-0.4c-1.1,0.1-2.2,1.9-2.9,2.4
			c-2,1.5-1.5-1-2.1,1.9c-0.8,3.8,1.6,4.1,3.7,6c1.8,1.6,2.6,4.3,3.2,6.5c1.7,6,1.2,14.8-2.1,20.1c-1.7,2.7-1.7,3.9-2.3,7
			c-0.4,1.8-1,5.4-3.1,6.4c0-0.6-0.5-1.8-0.4-2.7c-1.8-0.3-2.8,0.6-4.5,0.6c-0.9-0.9-0.1-0.8-1.7-1.3c1.9-3.8,5.8-8.6,6.2-12.8
			c-0.4,0.2-1.1,0.2-1.6,0.7c-1.3-1.7-1.9-3.1-4-4.2c-0.3,0.4-1,0.8-1.2,1.2c-0.2-3.3-3.1-1-5-0.6c-1.5,0.3-1.2,0.3-3.2,0
			c-1.4-0.2-2.3-1-3.9-0.7c-1.8,0.3-3,1.9-4.9,1.9c-0.6,0-2.5-0.6-3.4-0.6c-1.7,0-5.8,1.6-5.6-1.3c2.5-0.8,1.9-2.2,0.6-3.7
			c-0.3-0.4-2-0.1-2.3-0.4c-0.7-1,0-2-0.4-2.9c-0.7-1.6-0.8-2.8-2.7-3.7c-1.8-0.9-3.4,0.1-4.9-1.5c0.3,0.1,0.5,0.3,0.8,0.3
			c-1.6-1.3-2.6-2-3.5-3.8c-1.1-1.9-1.3-4-3.4-5.2c-3.3-2-7.6-0.9-10.1-4.7c0.4-0.1,0.8-0.3,1.2-0.4c-1.8-1.1-11.4-3.6-8.6,1.7
			c-1.6-0.3-3.4-0.1-4.9-0.7c-1.4-0.6-2-2-3.7-2.5c-1.1-0.3-3.8,0.6-4.7-0.1c-1.9-1.5,0.9-2.8,0-4.3c-0.9-1.5-3-0.8-4.4-1.3
			c-1-0.4-2.9-1.6-3.9-2.2c-2.2-1.3-4.2-4.8-6.9-5c0.9,1-0.4,0.8-0.5,1.7"/>
	</g>
</g>
</svg>
