<?xml version="1.0" encoding="utf-8"?>
<!-- Generator: Adobe Illustrator 21.1.0, SVG Export Plug-In . SVG Version: 6.00 Build 0)  -->
<svg version="1.1" id="Layer_1" xmlns="http://www.w3.org/2000/svg" xmlns:xlink="http://www.w3.org/1999/xlink" x="0px" y="0px"
	 viewBox="0 0 360 260" style="enable-background:new 0 0 360 260;" xml:space="preserve">
<style type="text/css">
	.st0{fill:#ECF0F1;}
	.st1{enable-background:new    ;}
	.st2{fill:#34495E;}
	.st3{fill:none;stroke:#34495E;stroke-width:5;stroke-miterlimit:10;}
</style>
<title>D3</title>
<rect class="st0" width="360" height="260"/>
<g class="st1">
	<path class="st2" d="M131.8,239.6v-34.1h9.9c4.2,0,7.6,1.4,10.3,4.2s4.1,6.4,4.1,10.7v4.4c0,4.4-1.4,7.9-4.1,10.7
		s-6.2,4.1-10.3,4.1H131.8z M134.6,207.8v29.3h7.1c3.4,0,6.2-1.2,8.3-3.5s3.3-5.3,3.3-8.9v-4.4c0-3.6-1.1-6.5-3.3-8.9
		c-2.2-2.4-5-3.5-8.3-3.5H134.6z"/>
	<path class="st2" d="M168.3,221h3.3c2.5,0,4.4-0.6,5.6-1.9s1.9-2.8,1.9-4.8c0-2.1-0.6-3.8-1.8-5.1s-3-1.9-5.4-1.9
		c-2.2,0-4,0.6-5.4,1.9s-2.1,3-2.1,5.1h-2.6l0-0.1c-0.1-2.7,0.9-4.9,2.8-6.6s4.4-2.6,7.4-2.6c3,0,5.5,0.8,7.3,2.5
		c1.8,1.7,2.7,4,2.7,7c0,1.6-0.5,3.1-1.5,4.5c-1,1.4-2.4,2.5-4.2,3.2c2.1,0.6,3.7,1.6,4.8,3.1c1.1,1.4,1.6,3.2,1.6,5.1
		c0,3-1,5.4-2.9,7.1c-2,1.7-4.5,2.6-7.6,2.6c-3,0-5.5-0.8-7.7-2.5s-3.2-4.1-3.1-7.1l0-0.1h2.6c0,2.2,0.8,3.9,2.3,5.3
		s3.5,2.1,5.8,2.1c2.4,0,4.3-0.6,5.7-1.9c1.4-1.3,2-3.1,2-5.4c0-2.4-0.7-4.2-2.1-5.3c-1.4-1.1-3.5-1.7-6.1-1.7h-3.3V221z"/>
	<path class="st2" d="M192.5,239.6h-3.2v-3.8h3.2V239.6z"/>
	<path class="st2" d="M203.9,214.2v27.4c0,2.6-0.6,4.6-1.9,6s-3,2.1-5.2,2.1c-0.5,0-0.9,0-1.3-0.1s-0.8-0.2-1.3-0.3l0.3-2.4
		c0.2,0.1,0.6,0.2,1,0.2s0.8,0.1,1.1,0.1c1.4,0,2.5-0.5,3.3-1.4s1.2-2.4,1.2-4.3v-27.4H203.9z M203.8,206.9H201V203h2.8V206.9z"/>
	<path class="st2" d="M227.1,233.1c0-1.2-0.5-2.2-1.5-3.1c-1-0.9-2.7-1.6-5.3-2.2c-3-0.7-5.3-1.5-6.7-2.6s-2.2-2.6-2.2-4.6
		c0-1.9,0.8-3.6,2.4-4.9s3.8-2,6.5-2c2.9,0,5.1,0.7,6.8,2.1s2.5,3.2,2.4,5.3l0,0.1H227c0-1.4-0.6-2.6-1.8-3.6s-2.8-1.5-4.8-1.5
		c-2,0-3.6,0.4-4.6,1.3c-1,0.9-1.5,1.9-1.5,3.1c0,1.2,0.4,2.1,1.3,2.9s2.6,1.4,5.3,2c3,0.7,5.3,1.6,6.8,2.8c1.5,1.2,2.2,2.8,2.2,4.8
		c0,2.1-0.9,3.8-2.6,5.1c-1.7,1.3-4,2-6.8,2c-3.1,0-5.5-0.7-7.3-2.2s-2.6-3.2-2.5-5.2l0-0.1h2.6c0.1,1.8,0.9,3.1,2.2,4
		s3,1.2,4.9,1.2c2,0,3.6-0.4,4.8-1.3C226.5,235.5,227.1,234.4,227.1,233.1z"/>
</g>
<path class="st3" d="M102.8,29h11.8c39.4,0,72.2,30.8,73.8,70.2c1.7,40.4-29.7,74.5-70.1,76.2c-1,0-2,0.1-3,0.1h-12.5v-32.2h12
	c21.8,0,40.1-16.8,41.4-38.5c1.4-22.6-15.7-42.1-38.3-43.5c-0.9-0.1-1.8-0.1-2.7-0.1h-12.4V29z M161,29h51.5
	c24.7,0,44.7,20,44.7,44.7c0,10.4-3.7,20.5-10.3,28.6c15.8,19,13.2,47.1-5.8,62.9c-8,6.7-18.1,10.3-28.6,10.3H161
	c12.7-7.9,23.1-19,30.2-32.2h21.1c7,0,12.6-5.6,12.6-12.5s-5.6-12.6-12.5-12.6H200c2-10.6,2-21.5,0-32.2h12.2
	c6.8,0.1,12.3-5.3,12.6-12c0.2-6.8-5.2-12.5-12-12.7c-0.1,0-0.2,0-0.3,0h-21.3C184.1,48,173.7,36.9,161,29z"/>
</svg>
