<?xml version="1.0" encoding="utf-8"?>
<!-- Generator: Adobe Illustrator 22.0.0, SVG Export Plug-In . SVG Version: 6.00 Build 0)  -->
<svg version="1.1" id="Layer_1" xmlns="http://www.w3.org/2000/svg" xmlns:xlink="http://www.w3.org/1999/xlink" x="0px" y="0px"
	 viewBox="0 0 500 500" style="enable-background:new 0 0 500 500;" xml:space="preserve">
<style type="text/css">
	.st0{fill:#F8F6DA;}
	.st1{fill:#E1E1C0;}
	.st2{fill:#AFAF91;}
	.st3{fill:#D3D3A3;}
	.st4{fill:none;stroke:#000000;stroke-width:1.1703;stroke-opacity:0.3404;}
	.st5{fill-opacity:0.1412;}
	.st6{fill:#CBB688;}
	.st7{fill:#DED1B4;}
	.st8{fill:#CE3333;}
	.st9{fill:#B74A4A;}
	.st10{fill:#A79368;}
	.st11{fill:none;stroke:#2E2E2E;stroke-width:4.6813;}
	.st12{fill:none;stroke:#2E2E2E;stroke-width:4;}
	.st13{fill:none;stroke:#2E2E2E;stroke-width:2.3407;stroke-linecap:round;stroke-linejoin:round;}
	.st14{fill:none;stroke:#2E2E2E;stroke-width:2.3407;}
	.st15{fill:none;stroke:#2E2E2E;stroke-width:1.17;}
	.st16{fill:none;stroke:#2E2E2E;stroke-width:1.1703;}
	.st17{fill:none;stroke:#2E2E2E;stroke-width:2.0712;}
	.st18{stroke:#2E2E2E;}
	.st19{fill:none;}
	.st20{fill:#2E2E2E;}
	.st21{font-family:'MyriadPro-Regular';}
	.st22{font-size:30px;}
</style>
<rect class="st0" width="500" height="500"/>
<rect y="374" class="st1" width="500" height="126"/>
<g>
	<path class="st2" d="M250,112.8L147.4,215.5V374h205.3V215.5L250,112.8z"/>
	<path class="st3" d="M250,112.8L147.4,215.5h205.3L250,112.8z"/>
</g>
<g>
	<path class="st4" d="M159.2,203.6v168"/>
	<path class="st4" d="M171.2,191.6v180"/>
	<path class="st4" d="M183.2,179.6v192"/>
	<path class="st4" d="M195.7,167.2v204.5"/>
	<path class="st4" d="M207.7,113.2v258.4"/>
	<path class="st4" d="M219.7,143.1v228.5"/>
	<path class="st4" d="M231.7,131.1v240.5"/>
	<path class="st4" d="M243.7,119.1v252.5"/>
	<path class="st4" d="M255.8,118.6v253"/>
	<path class="st4" d="M268.2,131.1v240.6"/>
	<path class="st4" d="M280.2,143.1v228.6"/>
	<path class="st4" d="M292.2,155.1v216.6"/>
	<path class="st4" d="M304.2,167.1v204.5"/>
	<path class="st4" d="M316.3,179.1v192.5"/>
	<path class="st4" d="M328.3,191.1v180.5"/>
	<path class="st4" d="M340.7,203.6v168.1"/>
</g>
<g>
	<rect x="175.8" y="270.1" class="st5" width="38.8" height="3.3"/>
	<rect x="285.5" y="269.7" class="st5" width="38.8" height="3.3"/>
	<rect x="256" y="332.9" class="st5" width="70.2" height="3.3"/>
	<rect x="246.3" y="357.6" class="st5" width="57.9" height="3.3"/>
</g>
<path class="st6" d="M291.2,249v21.2h27.2V249H291.2z"/>
<path class="st7" d="M181.5,226.8v43.3h27.2v-43.3L181.5,226.8z"/>
<path class="st7" d="M263.3,288.8v43.3h56v-43.3H263.3z"/>
<rect x="175.2" y="289.9" class="st8" width="35.1" height="65.4"/>
<path class="st9" d="M193.6,124.9h26.3v18l-26.3,26.3V124.9z"/>
<rect x="189.2" y="113.2" class="st10" width="35.1" height="11.6"/>
<ellipse class="st5" cx="250" cy="175.8" rx="20" ry="19"/>
<ellipse transform="matrix(0.1602 -0.9871 0.9871 0.1602 38.9711 392.2451)" class="st6" cx="250" cy="173.2" rx="19" ry="19"/>
<path class="st5" d="M250,153.4c-10.5,0-19,8.5-19,19v0c0,0.6,0,1.3,0.1,1.9c1.1-9.6,9.2-16.9,18.9-16.9c9.7,0,17.9,7.4,18.9,17
	c0.1-0.7,0.1-1.4,0.1-2.1C269,161.8,260.5,153.3,250,153.4L250,153.4L250,153.4z"/>
<rect x="174.8" y="355.2" class="st6" width="36.2" height="9.4"/>
<rect x="174.8" y="364.3" class="st6" width="36.2" height="9.4"/>
<path class="st7" d="M291.2,227.8V249h27.2v-21.2H291.2z"/>
<path class="st6" d="M181.5,249v21.2h27.2V249H181.5z"/>
<path class="st6" d="M263.3,310.5v21.6h56v-21.6H263.3z"/>
<rect x="130.6" y="374" class="st5" width="238.9" height="6.9"/>
<rect x="174" y="355.2" class="st5" width="37.7" height="3.3"/>
<rect x="173.9" y="364.1" class="st5" width="37.7" height="3.3"/>
<rect x="264.4" y="310.4" class="st5" width="53.6" height="1.8"/>
<rect x="291.6" y="248.8" class="st5" width="26.6" height="2.2"/>
<rect x="181.1" y="249.1" class="st5" width="26.6" height="2.2"/>
<rect x="231" y="173.6" class="st5" width="38" height="2.4"/>
<rect x="192.1" y="125.4" class="st5" width="28.5" height="4.3"/>
<rect x="148.8" y="216.5" class="st5" width="202.7" height="3.8"/>
<path class="st5" d="M154.7,215.7l99.4-99.4l-4.6-2.6L148.7,214.5L154.7,215.7z"/>
<rect x="173.6" y="290.3" class="st5" width="36.9" height="2.2"/>
<path class="st5" d="M182.6,295.4h20.6l-0.8,1.4h-19.3L182.6,295.4z"/>
<path class="st5" d="M182.7,327.8h20.6l-0.8,1.4h-19.3L182.7,327.8z"/>
<path class="st5" d="M189.8,339.7l3.9-3.9l-1.1-1l-4.1,3.8L189.8,339.7z"/>
<path class="st5" d="M189.7,307.3l3.9-3.9l-1.1-1l-4.1,3.8L189.7,307.3z"/>
<rect x="185.1" y="298.8" class="st5" width="15.1" height="1.5"/>
<rect x="185.2" y="331.2" class="st5" width="15.1" height="1.5"/>
<path class="st5" d="M185.1,346.3l-1.1,1.5h17.2l-1.6-1.5H185.1z"/>
<path class="st5" d="M185.1,314l-1.1,1.5h17.2l-1.6-1.5H185.1z"/>
<g>
	<path class="st5" d="M200.6,332.8l3.4-3.4l-0.4-1.6l-3.4,3.7L200.6,332.8z"/>
	<path class="st5" d="M200.8,300.2l3.4-3.4l-0.4-1.6l-3.4,3.7L200.8,300.2z"/>
</g>
<g transform="matrix(-1 0 0 1 385.43 .022557)">
	<path class="st5" d="M200.6,332.8l3.4-3.4l-0.4-1.6l-3.4,3.7L200.6,332.8z"/>
	<path class="st5" d="M200.8,300.2l3.4-3.4l-0.4-1.6l-3.4,3.7L200.8,300.2z"/>
</g>
<rect x="291.6" y="227.2" class="st5" width="26.6" height="2.2"/>
<rect x="181.1" y="227.5" class="st5" width="26.6" height="2.2"/>
<rect x="250.2" y="344.3" class="st5" width="49.8" height="1.6"/>
<rect x="250.2" y="348.9" class="st5" width="49.8" height="1.6"/>
<rect x="250.2" y="353.6" class="st5" width="49.8" height="1.6"/>
<rect x="189.3" y="113.2" class="st5" width="34.2" height="4.3"/>
<g transform="translate(0 -552.36)">
	<path class="st11" d="M352.6,926.3V767.9 M147.3,767.9v158.5"/>
	<path class="st11" d="M127.6,787.6L250,665.2l122.4,122.4"/>
	<path class="st11" d="M116.1,926.3h267.9"/>
	<g transform="matrix(1.1703 0 0 1.1703 -42.462 -37.943)">
		<path class="st12" d="M201.7,611.1v38"/>
		<path class="st12" d="M224.2,611.1v15.5"/>
	</g>
	<path class="st11" d="M226.6,676.6h-39.7"/>
	<path class="st11" d="M189.2,665.6v11.6"/>
	<path class="st11" d="M224.3,665.6v11.6"/>
	<circle class="st13" cx="250" cy="725.6" r="19"/>
	<path class="st14" d="M250,706.6v38"/>
	<path class="st14" d="M269,725.6h-38"/>
	<path class="st14" d="M212.6,917h-39.7"/>
	<path class="st14" d="M212.6,907.6h-39.7"/>
	<path class="st14" d="M174,907.6v-65.4"/>
	<path class="st14" d="M212.6,842.2h-39.7"/>
	<path class="st14" d="M211.4,907.6v-65.4"/>
	<rect x="181.5" y="847.5" class="st15" width="22.3" height="22.3"/>
	<rect x="185.2" y="851.1" class="st16" width="15.1" height="15.1"/>
	<path class="st16" d="M200.3,866.2l3.6,3.6"/>
	<path class="st16" d="M200.3,851.1l3.6-3.6"/>
	<path class="st16" d="M185.2,851.1l-3.6-3.6"/>
	<path class="st16" d="M185.2,866.2l-3.6,3.6"/>
	<rect x="181.5" y="880" class="st16" width="22.3" height="22.3"/>
	<rect x="185.2" y="883.6" class="st16" width="15.1" height="15.1"/>
	<path class="st16" d="M200.3,898.7l3.6,3.6"/>
	<path class="st16" d="M200.3,883.6l3.6-3.6"/>
	<path class="st16" d="M185.2,883.6l-3.6-3.6"/>
	<path class="st16" d="M185.2,898.7l-3.6,3.6"/>
	
		<rect x="189.9" y="855.8" transform="matrix(0.7071 -0.7071 0.7071 0.7071 -550.713 387.7696)" class="st16" width="5.7" height="5.7"/>
	
		<rect x="189.9" y="888.3" transform="matrix(0.7071 -0.7071 0.7071 0.7071 -573.7202 397.2936)" class="st16" width="5.7" height="5.7"/>
	<path class="st14" d="M326.2,885.7H256"/>
	<path class="st14" d="M263.3,839.9v45.9"/>
	<path class="st14" d="M319.2,841h-56"/>
	<path class="st14" d="M319.2,839.9v45.9"/>
	<path class="st16" d="M291.2,842.2v43.5"/>
	<path class="st16" d="M319.2,862.8h-56"/>
	<path class="st11" d="M226.6,665.6h-39.7"/>
	<path class="st14" d="M181.5,822.6v-43.3h27.2v43.3"/>
	<path class="st14" d="M175.8,822.6h38.8"/>
	<path class="st16" d="M181.5,801.4h27.2"/>
	<path class="st14" d="M291.2,822.6v-43.3h27.2v43.3"/>
	<path class="st14" d="M285.5,822.6h38.8"/>
	<path class="st16" d="M291.2,801.4h27.2"/>
	<path class="st14" d="M250,926.3v-33"/>
	<path class="st14" d="M300.5,926.3v-33"/>
	<path class="st14" d="M244.5,910.4h61.4"/>
	<path class="st14" d="M250,896.4h50.4"/>
	<path class="st14" d="M250,901h50.4"/>
	<path class="st14" d="M250,905.7h50.4"/>
	<path class="st14" d="M246.6,926.3v-15.7"/>
	<path class="st14" d="M303.8,926.3v-15.8"/>
	<path class="st14" d="M174,907.6v18.7"/>
	<path class="st14" d="M211.4,907.6v18.7"/>
	<path class="st11" d="M147.4,767.9h205.3"/>
	<path class="st17" d="M145.1,933.3h209.9"/>
	<g transform="matrix(-1 0 0 1 359.56 0)">
		<circle class="st18" cx="181.5" cy="874.9" r="1.2"/>
		<path class="st15" d="M181.5,874.9h-4.6"/>
	</g>
</g>
<g>
	<rect x="97.7" y="33" class="st19" width="304.5" height="34.4"/>
	<text transform="matrix(1 0 0 1 97.7449 54.2845)" class="st20 st21 st22">Visualizing Rent Poverty</text>
</g>
<rect x="161.2" y="430.7" class="st19" width="177.6" height="34.4"/>
<text transform="matrix(1 0 0 1 161.1822 452.0321)" class="st20 st21 st22">in East Boston</text>
</svg>
