<?xml version="1.0" encoding="utf-8"?>
<!-- Generator: Adobe Illustrator 21.1.0, SVG Export Plug-In . SVG Version: 6.00 Build 0)  -->
<svg version="1.1" id="Layer_1" xmlns="http://www.w3.org/2000/svg" xmlns:xlink="http://www.w3.org/1999/xlink" x="0px" y="0px"
	 viewBox="0 0 383.2 260" style="enable-background:new 0 0 383.2 260;" xml:space="preserve">
<style type="text/css">
	.st0{fill:#ECF0F1;}
	.st1{enable-background:new    ;}
	.st2{fill:#34495E;}
	.st3{fill:#34495E;stroke:#34495E;stroke-miterlimit:10;}
</style>
<title>history_presentation</title>
<rect class="st0" width="383.2" height="260"/>
<g class="st1">
	<path class="st2" d="M39.1,245.1h14.1v2H36.7v-28.4h2.3V245.1z"/>
	<path class="st2" d="M55.8,236.2c0-3.1,0.9-5.7,2.6-7.7c1.7-2,4-3,6.8-3c2.8,0,5.1,1,6.8,3c1.7,2,2.6,4.5,2.6,7.7v0.6
		c0,3.1-0.8,5.7-2.5,7.7s-4,3-6.8,3c-2.8,0-5.1-1-6.8-3c-1.7-2-2.6-4.5-2.6-7.7V236.2z M58.2,236.9c0,2.4,0.6,4.5,1.9,6.2
		c1.2,1.7,3,2.5,5.2,2.5c2.2,0,3.9-0.8,5.1-2.5c1.2-1.7,1.9-3.7,1.9-6.2v-0.6c0-2.4-0.6-4.4-1.9-6.1s-3-2.5-5.2-2.5
		s-3.9,0.8-5.1,2.5c-1.2,1.7-1.9,3.7-1.9,6.1V236.9z"/>
	<path class="st2" d="M81.5,226l0.2,3.7c0.7-1.3,1.6-2.3,2.7-3s2.5-1.1,4.1-1.1c2.3,0,4,0.7,5.2,2.1c1.2,1.4,1.8,3.6,1.8,6.6v12.9
		h-2.3v-12.9c0-2.4-0.5-4.1-1.4-5.1c-0.9-1-2.2-1.5-3.9-1.5c-1.6,0-3,0.4-4,1.3c-1,0.9-1.8,2-2.2,3.5v14.8h-2.3V226H81.5z"/>
	<path class="st2" d="M100.8,236.7c0-3.4,0.7-6.1,2.1-8.1s3.4-3,6-3c1.5,0,2.7,0.3,3.8,0.9c1.1,0.6,2,1.5,2.7,2.7v-12.5h2.3v30.5
		h-2.1l-0.2-3.1c-0.7,1.1-1.6,2-2.7,2.6c-1.1,0.6-2.4,0.9-3.9,0.9c-2.5,0-4.5-0.9-5.9-2.8s-2.1-4.4-2.1-7.6V236.7z M103.1,237.1
		c0,2.6,0.5,4.6,1.5,6.1c1,1.5,2.6,2.3,4.6,2.3c1.5,0,2.8-0.3,3.8-1c1-0.7,1.8-1.6,2.4-2.8v-10c-0.5-1.2-1.3-2.2-2.3-3
		c-1-0.8-2.3-1.1-3.8-1.1c-2.1,0-3.6,0.8-4.6,2.5c-1,1.7-1.6,3.9-1.6,6.6V237.1z"/>
	<path class="st2" d="M122.6,236.2c0-3.1,0.9-5.7,2.6-7.7c1.7-2,4-3,6.8-3c2.8,0,5.1,1,6.8,3c1.7,2,2.6,4.5,2.6,7.7v0.6
		c0,3.1-0.8,5.7-2.5,7.7s-4,3-6.8,3c-2.8,0-5.1-1-6.8-3c-1.7-2-2.6-4.5-2.6-7.7V236.2z M125,236.9c0,2.4,0.6,4.5,1.9,6.2
		c1.2,1.7,3,2.5,5.2,2.5c2.2,0,3.9-0.8,5.1-2.5c1.2-1.7,1.9-3.7,1.9-6.2v-0.6c0-2.4-0.6-4.4-1.9-6.1s-3-2.5-5.2-2.5
		s-3.9,0.8-5.1,2.5c-1.2,1.7-1.9,3.7-1.9,6.1V236.9z"/>
	<path class="st2" d="M148.3,226l0.2,3.7c0.7-1.3,1.6-2.3,2.7-3s2.5-1.1,4.1-1.1c2.3,0,4,0.7,5.2,2.1c1.2,1.4,1.8,3.6,1.8,6.6v12.9
		H160v-12.9c0-2.4-0.5-4.1-1.4-5.1c-0.9-1-2.2-1.5-3.9-1.5c-1.6,0-3,0.4-4,1.3c-1,0.9-1.8,2-2.2,3.5v14.8h-2.3V226H148.3z"/>
</g>
<g class="st1">
	<path class="st2" d="M197.9,220.7h-9.8v26.4h-2.3v-26.4H176v-2h21.9V220.7z"/>
</g>
<g class="st1">
	<path class="st2" d="M213.9,243.6c-0.7,1.2-1.6,2.2-2.7,2.9c-1.1,0.7-2.5,1-4.1,1c-2.2,0-4-0.8-5.2-2.3c-1.3-1.5-1.9-3.9-1.9-7V226
		h2.3v12.3c0,2.6,0.4,4.4,1.3,5.6s2.1,1.7,3.7,1.7c1.8,0,3.2-0.4,4.2-1.2c1.1-0.8,1.8-1.9,2.2-3.3V226h2.3v21.1h-2.1L213.9,243.6z"
		/>
	<path class="st2" d="M239.3,237.1c0,3.2-0.7,5.7-2.1,7.6c-1.4,1.9-3.4,2.8-5.9,2.8c-1.5,0-2.9-0.3-4-0.9c-1.1-0.6-2-1.5-2.7-2.7
		l-0.3,3.2h-2v-30.5h2.3v12.7c0.7-1.2,1.6-2.1,2.7-2.7s2.4-1,3.9-1c2.5,0,4.5,1,6,3c1.4,2,2.1,4.7,2.1,8.1V237.1z M237,236.7
		c0-2.7-0.5-4.9-1.6-6.6c-1-1.7-2.6-2.5-4.6-2.5c-1.6,0-2.9,0.4-3.9,1.2c-1,0.8-1.7,1.9-2.2,3.1v9.6c0.5,1.2,1.3,2.2,2.3,2.9
		s2.3,1.1,3.9,1.1c2,0,3.6-0.8,4.6-2.3c1-1.5,1.5-3.6,1.5-6.1V236.7z"/>
	<path class="st2" d="M252.5,247.5c-2.6,0-4.8-1-6.6-2.9c-1.8-2-2.6-4.4-2.6-7.4v-1.1c0-3,0.9-5.5,2.6-7.5s3.8-3,6.3-3
		c2.6,0,4.6,0.8,6.1,2.5s2.2,3.8,2.2,6.6v2h-14.9v0.6c0,2.4,0.6,4.4,1.9,6c1.3,1.6,2.9,2.4,5,2.4c1.5,0,2.7-0.2,3.7-0.6
		c1-0.4,1.9-1,2.6-1.7l1,1.6c-0.8,0.8-1.8,1.5-3,2C255.6,247.3,254.2,247.5,252.5,247.5z M252.2,227.6c-1.7,0-3.2,0.7-4.4,2
		c-1.2,1.3-1.9,3-2.1,5l0,0.1h12.4V234c0-1.8-0.5-3.4-1.6-4.6C255.5,228.2,254.1,227.6,252.2,227.6z"/>
	<path class="st2" d="M278.6,218.7l10.4,25h0.1l10.5-25h3.1v28.4h-2.3v-12.6l0.2-12.4l-0.1,0l-10.6,25h-1.6l-10.5-24.9l-0.1,0
		l0.2,12.3v12.6h-2.3v-28.4H278.6z"/>
	<path class="st2" d="M322.9,247.1c-0.2-0.7-0.3-1.3-0.3-1.9c-0.1-0.5-0.1-1-0.1-1.6c-0.8,1.1-1.8,2-3.1,2.8
		c-1.3,0.7-2.8,1.1-4.4,1.1c-2.1,0-3.7-0.5-4.8-1.6c-1.1-1.1-1.7-2.6-1.7-4.4c0-2,0.8-3.5,2.5-4.7c1.7-1.2,4-1.8,6.8-1.8h4.7v-2.6
		c0-1.5-0.5-2.7-1.5-3.6c-1-0.9-2.3-1.3-4.1-1.3c-1.6,0-3,0.4-4.1,1.2s-1.6,1.8-1.6,3l-2.1,0l0-0.1c-0.1-1.6,0.6-3,2.2-4.2
		c1.5-1.2,3.4-1.9,5.8-1.9c2.3,0,4.2,0.6,5.6,1.8c1.4,1.2,2.1,2.9,2.1,5.1v10.4c0,0.7,0,1.5,0.1,2.2c0.1,0.7,0.2,1.4,0.4,2.1H322.9z
		 M315.3,245.4c1.7,0,3.2-0.4,4.5-1.2s2.2-1.8,2.8-3v-4.4h-4.7c-2.1,0-3.8,0.5-5.1,1.4s-1.9,2-1.9,3.4c0,1.1,0.4,2.1,1.2,2.8
		C312.8,245.1,313.9,245.4,315.3,245.4z"/>
	<path class="st2" d="M348.1,237.1c0,3.2-0.7,5.7-2.1,7.6c-1.4,1.9-3.4,2.8-5.9,2.8c-1.5,0-2.8-0.3-3.9-0.8s-2-1.4-2.7-2.4v11h-2.3
		V226h2l0.3,3.3c0.7-1.2,1.6-2.1,2.7-2.7s2.4-1,3.9-1c2.5,0,4.5,1,6,3c1.4,2,2.1,4.7,2.1,8.1V237.1z M345.7,236.7
		c0-2.7-0.5-4.9-1.6-6.6c-1.1-1.7-2.6-2.5-4.7-2.5c-1.6,0-2.9,0.4-3.8,1.1c-1,0.8-1.7,1.7-2.2,2.9v10.2c0.5,1.2,1.3,2.1,2.3,2.7
		c1,0.7,2.3,1,3.8,1c2,0,3.6-0.8,4.7-2.3c1.1-1.5,1.6-3.6,1.6-6.1V236.7z"/>
</g>
<path class="st3" d="M294.4,85.1h-20.1c-13.2-45.6-60.9-71.9-106.6-58.7c-28.3,8.2-50.5,30.4-58.7,58.7H88.9c-2.6,0-4.8,2.1-4.8,4.8
	v38.2c0,2.6,2.1,4.8,4.8,4.8H109c13.2,45.6,60.9,71.9,106.6,58.7c28.3-8.2,50.5-30.4,58.7-58.7h20.1c2.6,0,4.8-2.1,4.8-4.8V89.9
	C299.1,87.3,297,85.1,294.4,85.1z M191.9,32.6c33.1-0.1,62.4,21.1,72.6,52.6h-23.2c-13.2-27.3-46-38.8-73.3-25.6
	c-11.2,5.4-20.2,14.4-25.6,25.6h-23.2C129.5,53.7,158.8,32.5,191.9,32.6z M230.6,85.1h-77.4c13.3-21.4,41.4-27.9,62.8-14.6
	C221.9,74.2,226.9,79.2,230.6,85.1L230.6,85.1z M191.9,185.5c-33.1,0.1-62.4-21.1-72.6-52.6h23.2c13.2,27.3,46,38.8,73.3,25.6
	c11.2-5.4,20.2-14.4,25.6-25.6h23.2C254.2,164.3,224.9,185.6,191.9,185.5L191.9,185.5z M153.2,132.9h77.2
	c-13.2,21.3-41.1,27.9-62.5,14.7C161.9,143.9,156.8,138.9,153.2,132.9z M289.6,123.3H93.7V94.7h195.9V123.3z"/>
</svg>
