<svg id="Layer_1" data-name="Layer 1" xmlns="http://www.w3.org/2000/svg" viewBox="0 0 982.87 648.88"><defs><style>.cls-1,.cls-15,.cls-2,.cls-3,.cls-4,.cls-6,.cls-7,.cls-8{fill:#1989b6;}.cls-1,.cls-4,.cls-8{stroke:#1989b6;}.cls-1,.cls-17,.cls-19,.cls-2,.cls-4,.cls-5,.cls-6,.cls-7,.cls-8{stroke-miterlimit:10;}.cls-2,.cls-7{stroke:#2f53a1;}.cls-3{font-size:36px;}.cls-15,.cls-3,.cls-4,.cls-9{font-family:Roboto-Regular, Roboto;}.cls-4{font-size:15px;}.cls-5{fill:#84a982;stroke:#84a982;}.cls-5,.cls-6{stroke-linecap:round;}.cls-19,.cls-5,.cls-6{stroke-width:2px;}.cls-6{stroke:#6bb42d;}.cls-7,.cls-8{stroke-width:0.5px;}.cls-9{font-size:10px;fill:#5e5760;}.cls-10{letter-spacing:-0.01em;}.cls-11{letter-spacing:-0.03em;}.cls-12{letter-spacing:-0.02em;}.cls-13{letter-spacing:-0.01em;}.cls-14{letter-spacing:-0.01em;}.cls-15,.cls-18{font-size:30px;}.cls-16{font-size:48px;font-family:Roboto-Thin, Roboto;}.cls-17,.cls-20{fill:#676766;}.cls-17{stroke:#676766;}.cls-18{fill:#c7164c;font-family:Roboto-Light, Roboto;}.cls-19{fill:#fff;stroke:#fff;}.cls-20{font-size:24px;font-family:Roboto-Medium, Roboto;}</style></defs><title>line graph</title><line class="cls-1" x1="129.72" y1="624.58" x2="957.25" y2="624.58"/><line class="cls-1" x1="129.72" y1="624.58" x2="129.72" y2="612.08"/><line class="cls-2" x1="247.94" y1="624.58" x2="247.94" y2="612.08"/><line class="cls-2" x1="366.16" y1="624.58" x2="366.16" y2="612.08"/><line class="cls-2" x1="484.38" y1="624.58" x2="484.38" y2="612.08"/><line class="cls-2" x1="602.59" y1="624.58" x2="602.59" y2="612.08"/><line class="cls-2" x1="720.81" y1="624.58" x2="720.81" y2="612.08"/><line class="cls-2" x1="839.03" y1="624.58" x2="839.03" y2="612.08"/><line class="cls-2" x1="957.25" y1="624.58" x2="957.25" y2="612.08"/><text class="cls-3" transform="translate(76.24 639.13)">40</text><text class="cls-4" transform="translate(99.89 514.11)">60</text><text class="cls-4" transform="translate(99.89 389.1)">80</text><text class="cls-4" transform="translate(91.44 264.08)">100</text><text class="cls-3" transform="translate(55.97 139.06)">120</text><line class="cls-1" x1="129.72" y1="624.58" x2="129.72" y2="124.52"/><line class="cls-1" x1="129.72" y1="624.58" x2="150.41" y2="624.58"/><line class="cls-1" x1="129.72" y1="499.56" x2="150.41" y2="499.56"/><line class="cls-1" x1="129.72" y1="374.55" x2="150.41" y2="374.55"/><line class="cls-1" x1="129.72" y1="249.53" x2="150.41" y2="249.53"/><line class="cls-1" x1="129.72" y1="124.52" x2="150.41" y2="124.52"/><line class="cls-5" x1="307.05" y1="512.07" x2="188.83" y2="230.78"/><line class="cls-5" x1="425.27" y1="518.32" x2="307.05" y2="512.07"/><line class="cls-5" x1="543.48" y1="349.55" x2="425.27" y2="518.32"/><line class="cls-5" x1="543.48" y1="349.55" x2="661.7" y2="524.57"/><line class="cls-6" x1="779.92" y1="580.82" x2="661.7" y2="524.57"/><line class="cls-6" x1="779.92" y1="580.82" x2="898.14" y2="549.57"/><rect class="cls-7" x="186.13" y="228.08" width="5.4" height="5.4"/><rect class="cls-8" x="304.35" y="509.37" width="5.4" height="5.4"/><rect class="cls-7" x="422.57" y="515.62" width="5.4" height="5.4"/><rect class="cls-7" x="540.78" y="346.85" width="5.4" height="5.4"/><rect class="cls-7" x="659" y="521.87" width="5.4" height="5.4"/><rect class="cls-7" x="777.22" y="578.12" width="5.4" height="5.4"/><rect class="cls-7" x="895.44" y="546.87" width="5.4" height="5.4"/><text class="cls-9" transform="translate(203.23 226.48)">Sund<tspan class="cls-10" x="23.29" y="0">a</tspan><tspan x="28.71" y="0">y</tspan><tspan x="0" y="12">Sept 18</tspan></text><text class="cls-9" transform="translate(276.72 529.08)">Mond<tspan class="cls-10" x="25.83" y="0">a</tspan><tspan x="31.26" y="0">y</tspan><tspan x="0" y="12">Sept 19</tspan></text><text class="cls-9" transform="translate(394.51 535.57)"><tspan class="cls-11">T</tspan><tspan x="5.54" y="0">uesd</tspan><tspan class="cls-10" x="27.43" y="0">a</tspan><tspan x="32.85" y="0">y</tspan><tspan x="0" y="12">Sept 20</tspan></text><text class="cls-9" transform="translate(560.95 347.52)"><tspan class="cls-12">W</tspan><tspan x="8.68" y="0">ednesd</tspan><tspan class="cls-10" x="41.54" y="0">a</tspan><tspan x="46.96" y="0">y</tspan><tspan x="0" y="12">Sept 21</tspan></text><text class="cls-9" transform="translate(607.47 530.65)">Thursd<tspan class="cls-10" x="31.57" y="0">a</tspan><tspan x="36.99" y="0">y</tspan><tspan x="0" y="12">Sept 22</tspan></text><text class="cls-9" transform="translate(725.97 583.36)"><tspan class="cls-13">F</tspan><tspan x="5.7" y="0">rid</tspan><tspan class="cls-10" x="17.33" y="0">a</tspan><tspan x="22.75" y="0">y</tspan><tspan x="0" y="12">Sept 23</tspan></text><text class="cls-9" transform="translate(912.18 550.7)">Satu<tspan class="cls-14" x="20.87" y="0">r</tspan><tspan x="24.21" y="0">d</tspan><tspan class="cls-10" x="29.89" y="0">a</tspan><tspan x="35.32" y="0">y</tspan><tspan x="0" y="12">Sept 24</tspan></text><text x="-70.39" y="-45.63"></text><text class="cls-3" transform="translate(306.19 501.17)">58</text><text class="cls-3" transform="translate(143.56 221.9)">103</text><text class="cls-3" transform="translate(392.99 508.19)">57</text><text class="cls-3" transform="translate(514.65 341.42)">84</text><text class="cls-15" transform="translate(873.88 542.07)">52</text><text class="cls-15" transform="translate(662.26 517.51)">56</text><text class="cls-15" transform="translate(768.6 570.46)">47</text><text class="cls-16" transform="translate(0 41.06)">phone pickups</text><path class="cls-17" d="M973.81,117a12.73,12.73,0,0,0-12.73,12.73v108.9a12.73,12.73,0,0,0,12.73,12.73h56.57a12.73,12.73,0,0,0,12.73-12.73V129.73A12.73,12.73,0,0,0,1030.38,117Zm-7.07,22.63h70.72v70.28H966.74Zm63.64,106.07H973.81a7.07,7.07,0,0,1-7.07-7.07V215.56h70.72v23.07A7.07,7.07,0,0,1,1030.38,245.7Zm7.07-116V134H966.74v-4.24a7.07,7.07,0,0,1,7.07-7.07h56.57A7.07,7.07,0,0,1,1037.45,129.73Z" transform="translate(-70.39 -45.63)"/><path class="cls-17" d="M992.31,240h18.87V221.19H992.31Zm5.66-13.2h7.54v7.54H998Z" transform="translate(-70.39 -45.63)"/><text class="cls-18" transform="translate(599.98 95.99)">week of sept 18 - 24</text><rect class="cls-19" x="60.23" y="220.09" width="63.84" height="334.15"/><text class="cls-20" transform="translate(603.35 127.39)">457 pickups</text><line class="cls-19" x1="128.52" y1="624.63" x2="956.05" y2="624.63"/><rect class="cls-19" x="223.75" y="608.39" width="742.82" height="21.58"/></svg>