<!--?xml version="1.0" standalone="no"?--><svg version="1.0" xmlns="http://www.w3.org/2000/svg" width="260.000000pt" height="300.000000pt" viewBox="0 0 260.000000 300.000000" preserveAspectRatio="xMidYMid meet">
<metadata>
  <rdf:rdf xmlns:rdf="http://www.w3.org/1999/02/22-rdf-syntax-ns#" xmlns:rdfs="http://www.w3.org/2000/01/rdf-schema#" xmlns:dc="http://purl.org/dc/elements/1.1/">
    <rdf:description dc:title="lionel richie mug face stencil" dc:publisher="Hiox" dc:date="2015-05-07" dc:format="image/svg+xml" dc:language="en">
      <dc:creator>
        <rdf:bag>
          <rdf:li>svgimages.com</rdf:li>
        </rdf:bag>
      </dc:creator>
    </rdf:description>
  </rdf:rdf>
</metadata>
<g transform="translate(0.000000,300.000000) scale(0.100000,-0.100000)" fill="#0E0E10" stroke="none">
<path d="M1348 2925 c-32 -29 -45 -35 -83 -35 -26 0 -71 11 -105 25 -39 17
-78 25 -115 25 -52 0 -59 -3 -103 -44 -61 -57 -92 -69 -159 -60 -76 9 -102 0
-120 -44 -22 -55 -50 -80 -97 -87 -78 -14 -126 -57 -126 -115 0 -29 -21 -67
-80 -145 l-50 -66 6 -82 c6 -79 5 -85 -25 -144 -36 -73 -40 -125 -11 -168 23
-35 25 -63 6 -91 -43 -60 -26 -163 42 -263 38 -55 45 -73 43 -109 -1 -39 3
-47 48 -90 l50 -48 -26 -59 c-43 -102 -43 -106 22 -167 47 -44 57 -60 62 -96
7 -49 29 -67 77 -59 22 4 41 -2 68 -20 29 -20 45 -24 70 -19 33 6 88 48 88 67
0 6 -15 56 -34 112 -19 56 -37 125 -41 152 -6 36 -22 72 -61 131 -30 44 -60
97 -69 117 -20 48 -20 147 -1 147 19 0 46 -27 46 -46 0 -29 41 -15 55 19 20
49 31 358 15 426 -14 59 -8 71 41 71 15 0 37 12 53 29 43 45 68 46 121 9 l45
-32 31 18 c31 18 31 18 61 -10 l30 -29 21 26 c12 14 27 35 33 45 11 18 14 17
48 -18 20 -21 41 -38 45 -38 24 0 103 44 122 68 l21 27 15 -22 c18 -28 40 -29
89 -6 l36 18 22 -28 c15 -18 31 -27 51 -27 52 0 73 11 99 51 46 69 111 66 146
-6 20 -41 21 -53 13 -133 -10 -103 -8 -134 13 -187 8 -22 16 -74 17 -115 2
-41 6 -81 10 -87 14 -22 40 -14 79 24 l38 37 0 -29 c0 -17 -9 -49 -20 -73 -13
-28 -19 -62 -18 -95 2 -42 -5 -67 -35 -129 -25 -52 -37 -90 -37 -120 0 -23 -7
-55 -14 -70 -23 -43 -30 -110 -14 -131 15 -20 142 -38 176 -26 25 9 102 154
102 190 0 15 -7 32 -15 39 -20 17 -20 19 20 63 27 30 35 47 34 75 -1 21 4 57
10 82 6 25 11 83 11 130 0 68 4 91 20 115 24 36 60 146 60 185 0 15 -10 49
-21 75 -17 39 -20 57 -14 99 12 78 9 181 -5 216 -7 17 -25 37 -41 45 -38 20
-78 74 -94 128 -25 83 -59 123 -164 192 -98 64 -142 101 -172 146 -15 22 -23
24 -100 24 -46 0 -105 -4 -131 -8 -39 -8 -49 -6 -66 11 -11 11 -21 25 -24 32
-2 7 -26 14 -53 17 -46 3 -53 1 -87 -32z" id="node1" class="node"></path>
<path d="M1650 1832 c-75 -17 -145 -55 -135 -73 8 -12 67 -11 102 2 71 27 167
40 217 29 27 -6 50 -9 52 -7 2 1 -7 15 -19 30 -18 23 -32 28 -82 32 -36 2 -90
-3 -135 -13z" id="node2" class="node"></path>
<path d="M861 1831 c-29 -8 -62 -51 -40 -52 8 0 55 -1 104 -2 65 -2 99 -7 124
-21 18 -10 54 -19 80 -21 25 -1 54 -6 64 -10 25 -11 21 12 -8 40 -17 18 -35
25 -62 25 -21 0 -73 11 -116 25 -79 25 -104 28 -146 16z" id="node3" class="node"></path>
<path d="M1644 1735 c-76 -14 -103 -24 -125 -51 -12 -15 -12 -16 9 -9 22 6 23
5 12 -17 -12 -21 -11 -21 17 5 35 32 36 33 71 7 32 -24 55 -19 70 16 13 27 37
32 50 8 7 -12 17 -14 45 -9 43 8 46 19 15 39 -36 22 -87 25 -164 11z" id="node4" class="node"></path>
<path d="M915 1698 l-27 -21 23 -13 c35 -19 48 -17 42 6 -7 28 33 28 42 -1 4
-11 18 -25 31 -31 20 -9 29 -8 52 9 44 33 66 36 95 12 31 -23 37 -9 8 20 -23
23 -102 41 -180 41 -45 0 -65 -5 -86 -22z" id="node5" class="node"></path>
<path d="M1445 1700 c-23 -25 -29 -87 -20 -205 6 -79 11 -101 30 -123 l22 -26
-19 74 c-17 66 -18 87 -9 169 6 52 15 99 21 105 5 5 10 14 10 18 0 14 -16 9
-35 -12z" id="node6" class="node"></path>
<path d="M1237 1669 c3 -11 9 -22 14 -25 5 -3 9 -16 9 -29 0 -13 5 -27 10 -30
14 -8 13 38 -1 69 -15 31 -39 43 -32 15z" id="node7" class="node"></path>
<path d="M1571 1270 c-1 -20 -6 -41 -13 -48 -9 -9 -9 -12 0 -12 21 0 34 42 23
70 -9 24 -10 23 -10 -10z" id="node8" class="node"></path>
<path d="M1140 1231 c0 -36 21 -54 57 -49 l28 4 -27 12 c-16 6 -30 22 -34 37
-8 34 -24 32 -24 -4z" id="node9" class="node"></path>
<path d="M1260 1199 c76 -37 170 -38 184 -3 6 15 4 15 -18 0 -31 -20 -68 -21
-104 -2 -15 7 -45 16 -67 20 l-40 6 45 -21z" id="node10" class="node"></path>
<path d="M1175 1131 c-58 -30 -131 -86 -139 -108 -6 -15 39 -93 53 -93 21 0
67 22 81 39 8 10 54 30 101 45 l87 26 103 -17 c57 -9 106 -21 107 -25 13 -30
126 -52 134 -26 16 46 -48 117 -139 156 -52 23 -74 25 -198 27 -133 2 -142 1
-190 -24z" id="node11" class="node"></path>
<path d="M1484 950 c17 -6 36 -5 45 0 11 7 3 9 -29 9 -42 -1 -43 -1 -16 -9z" id="node12" class="node"></path>
<path d="M1230 941 c0 -6 15 -11 33 -11 17 0 52 -6 77 -14 48 -14 77 -9 100
20 14 16 13 17 -10 9 -27 -9 -56 -9 -142 1 -39 4 -58 2 -58 -5z" id="node13" class="node"></path>
<path d="M1766 918 c-9 -13 -40 -62 -69 -110 -84 -141 -140 -212 -183 -234
-31 -15 -60 -19 -149 -19 -100 0 -115 2 -160 27 -68 36 -127 102 -234 261 -28
42 -54 77 -56 77 -18 0 53 -126 109 -195 140 -172 180 -202 289 -212 136 -12
248 30 314 118 34 45 170 309 159 309 -2 0 -11 -10 -20 -22z" id="node14" class="node"></path>
<path d="M1528 856 c-55 -63 -99 -86 -162 -86 -54 0 -134 36 -183 83 -44 42
-42 27 4 -24 70 -78 141 -98 239 -68 50 15 77 32 115 68 44 42 63 81 41 81 -5
0 -29 -24 -54 -54z" id="node15" class="node"></path>
<path d="M1790 403 c-23 -9 -60 -45 -76 -75 -18 -34 -18 -109 0 -152 16 -37
60 -76 87 -76 20 0 26 24 9 35 -6 4 -10 55 -10 119 0 88 3 116 15 126 24 20 8
35 -25 23z" id="node16" class="node"></path>
<path d="M1840 400 c0 -6 7 -22 16 -35 13 -20 16 -45 12 -125 -2 -60 -9 -105
-16 -112 -18 -18 -15 -28 11 -28 52 0 107 77 107 150 0 51 -34 116 -72 140
-36 22 -58 26 -58 10z" id="node17" class="node"></path>
<path d="M630 391 c0 -6 5 -13 10 -16 6 -4 10 -57 10 -125 0 -68 -4 -121 -10
-125 -25 -16 -5 -25 54 -25 61 0 89 11 66 25 -13 8 -14 255 0 255 6 0 10 5 10
10 0 6 -30 10 -70 10 -38 0 -70 -4 -70 -9z" id="node18" class="node"></path>
<path d="M780 391 c0 -6 5 -13 10 -16 6 -3 10 -28 10 -55 0 -36 -4 -49 -17
-55 -17 -6 -17 -7 0 -19 19 -15 25 -110 7 -121 -26 -16 -4 -25 60 -25 64 0 86
9 60 25 -6 4 -10 57 -10 125 0 68 4 121 10 125 26 16 4 25 -60 25 -38 0 -70
-4 -70 -9z" id="node19" class="node"></path>
<path d="M970 385 c8 -10 11 -53 8 -150 l-3 -135 53 0 52 0 0 150 0 150 -61 0
c-53 0 -60 -2 -49 -15z" id="node20" class="node"></path>
<path d="M1100 390 c0 -5 13 -16 29 -25 16 -8 32 -24 36 -35 11 -35 25 -21 25
25 l0 45 -45 0 c-25 0 -45 -4 -45 -10z" id="node21" class="node"></path>
<path d="M1230 391 c0 -6 5 -13 10 -16 6 -4 10 -57 10 -125 0 -68 -4 -121 -10
-125 -24 -15 -6 -25 44 -25 40 0 55 4 60 16 3 9 6 69 6 134 0 69 4 121 10 125
26 16 4 25 -60 25 -38 0 -70 -4 -70 -9z" id="node22" class="node"></path>
<path d="M1470 391 c0 -6 5 -13 10 -16 6 -4 10 -57 10 -125 0 -68 -4 -121 -10
-125 -25 -15 -5 -25 50 -25 l60 0 0 134 c0 79 4 137 10 141 26 16 4 25 -60 25
-38 0 -70 -4 -70 -9z" id="node23" class="node"></path>
<path d="M1117 280 c-17 -27 -17 -32 -3 -46 9 -8 16 -20 16 -25 0 -5 7 -9 16
-9 12 0 14 10 12 52 -4 61 -17 70 -41 28z" id="node24" class="node"></path>
<path d="M1420 175 c-5 -13 -18 -30 -30 -37 -33 -21 -24 -38 20 -38 l40 0 0
50 c0 53 -15 66 -30 25z" id="node25" class="node"></path>
<path d="M1657 170 c-10 -16 -27 -35 -38 -40 -29 -16 -14 -30 32 -30 l39 0 0
50 c0 57 -8 62 -33 20z" id="node26" class="node"></path>
<path d="M1165 170 c-3 -11 -20 -27 -36 -36 -38 -19 -29 -34 22 -34 38 0 39 1
39 35 0 19 0 38 1 42 2 18 -20 12 -26 -7z" id="node27" class="node"></path>
</g>
<g transform="translate(0.000000,300.000000) scale(0.100000,-0.100000)" fill="#A2A2A2" stroke="none">

</g>
</svg>