<?xml version="1.0" encoding="utf-8"?>
<!-- Generator: Adobe Illustrator 21.1.0, SVG Export Plug-In . SVG Version: 6.00 Build 0)  -->
<svg version="1.1" id="Layer_1" xmlns="http://www.w3.org/2000/svg" xmlns:xlink="http://www.w3.org/1999/xlink" x="0px" y="0px"
	 viewBox="0 0 360 260" style="enable-background:new 0 0 360 260;" xml:space="preserve">
<style type="text/css">
	.st0{fill:#ECF0F1;}
	.st1{fill:#34495E;}
	.st2{fill:none;}
	.st3{font-family:'Lato-Light';}
	.st4{font-size:35px;}
</style>
<title>old_website</title>
<rect class="st0" width="360" height="260"/>
<g>
	<title>100icons20172</title>
	<path class="st1" d="M280.5,178.8H88.1c-1.1,0-2-0.9-2-2V19c0-1.1,0.9-2,2-2l0,0h192.3c1.1,0,2,0.9,2,2v157.8
		C282.4,177.9,281.6,178.8,280.5,178.8z M90.1,174.8h188.3V21H90.1V174.8z"/>
	<path class="st1" d="M152.4,107.7h-46.2c-1.1,0-2-0.9-2-2V46.5c0-1.1,0.9-2,2-2l0,0h46.2c1.1,0,2,0.9,2,2v59.2
		C154.4,106.8,153.5,107.7,152.4,107.7z M108.3,103.7h42.2V48.5h-42.2L108.3,103.7z"/>
	<path class="st1" d="M207.3,131.4h-46.2c-1.1,0-2-0.9-2-2V46.5c0-1.1,0.9-2,2-2h46.2c1.1,0,2,0.9,2,2v82.9
		C209.3,130.5,208.4,131.4,207.3,131.4L207.3,131.4z M163.2,127.4h42.2V48.5h-42.2V127.4z"/>
	<path class="st1" d="M261.9,87.4h-46.2c-1.1,0-2-0.9-2-2V46.5c0-1.1,0.9-2,2-2h46.2c1.1,0,2,0.9,2,2v38.9
		C263.9,86.5,263,87.4,261.9,87.4z M217.8,83.4H260V48.5h-42.2V83.4z"/>
	<path class="st1" d="M152.4,156.9h-46.2c-1.1,0-2-0.9-2-2v-38.9c0-1.1,0.9-2,2-2h46.2c1.1,0,2,0.9,2,2v38.9
		C154.4,156,153.5,156.9,152.4,156.9z M108.3,152.9h42.2v-34.9h-42.2L108.3,152.9z"/>
	<path class="st1" d="M152.4,178.8h-46.2c-1.1,0-2-0.9-2-2v-11.5c0-1.1,0.9-2,2-2h46.2c1.1,0,2,0.9,2,2v11.5
		C154.4,177.9,153.5,178.8,152.4,178.8z M108.3,174.8h42.2v-7.5h-42.2L108.3,174.8z"/>
	<path class="st1" d="M207.3,178.8h-46.2c-1.1,0-2-0.9-2-2v-38.9c0-1.1,0.9-2,2-2h46.2c1.1,0,2,0.9,2,2v38.9
		C209.3,177.9,208.4,178.8,207.3,178.8z M163.2,174.8h42.2v-34.9h-42.2V174.8z"/>
	<path class="st1" d="M261.9,135.1h-46.2c-1.1,0-2-0.9-2-2V94.3c0-1.1,0.9-2,2-2h46.2c1.1,0,2,0.9,2,2v38.8
		C263.9,134.2,263.1,135.1,261.9,135.1C262,135.1,261.9,135.1,261.9,135.1z M217.8,131.1H260V96.2h-42.2V131.1z"/>
	<path class="st1" d="M261.9,178.8h-46.2c-1.1,0-2-0.9-2-2V142c0-1.1,0.9-2,2-2h46.2c1.1,0,2,0.9,2,2v34.8
		C263.9,177.9,263,178.8,261.9,178.8z M217.8,174.8H260V144h-42.2V174.8z"/>
	<path class="st1" d="M280.5,35.1H88.1c-1.1,0-2-0.9-2-2s0.9-2,2-2h192.3c1.1,0,2,0.9,2,2S281.6,35.1,280.5,35.1z"/>
</g>
<rect x="13.2" y="199.4" class="st2" width="342.3" height="71.7"/>
<text transform="matrix(1 0 0 1 69.4501 224.9199)"><tspan x="0" y="0" class="st1 st3 st4">Philly Nostalgia</tspan><tspan x="52.2" y="34" class="st1 st3 st4">Website</tspan></text>
</svg>
