<?xml version="1.0" encoding="utf-8"?>
<!-- Generator: Adobe Illustrator 21.1.0, SVG Export Plug-In . SVG Version: 6.00 Build 0)  -->
<svg version="1.1" id="Layer_1" xmlns="http://www.w3.org/2000/svg" xmlns:xlink="http://www.w3.org/1999/xlink" x="0px" y="0px"
	 viewBox="0 0 360 260" style="enable-background:new 0 0 360 260;" xml:space="preserve">
<style type="text/css">
	@import url('https://fonts.googleapis.com/css?family=Lato:300,400');
	.st0{fill:#ECF0F1;}
	.st1{fill:none;}
	.st2{fill:#34495E;}
	.st3{font-family:'Lato';}
	.st4{font-size:35px;}
	.st5{fill:#34495E;stroke:#34495E;stroke-width:0.25;stroke-miterlimit:10;}
</style>
<title>old_website</title>
<rect class="st0" width="360" height="260"/>
<rect x="13.2" y="200.4" class="st1" width="342.3" height="71.7"/>
<text transform="matrix(1 0 0 1 69.4501 225.9199)" font-weight="300" class="st2 st3 st4" >Philly Nostalgia</text>
<text transform="matrix(1 0 0 1 121.6501 258.9199)" font-weight="300" class="st2 st3 st4" >Website</text>
<path class="st2" d="M236.3,153.5c-1.1-1-2.3-1.9-3.6-2.7c-7.4-5.2-18.5-13.1-18.5-62.1c0-3.8-2.4-7.2-6-8.4c-4.9-1.7-10-3-15.2-3.9
	V61.1l13.8,5c0.2,0.1,0.4,0.1,0.6,0.1h10.7v2.5c0,0.6,0.3,1.1,0.7,1.4L224,74v2.2c0,0.6,0.3,1.1,0.7,1.4l5,3.8v2.2
	c0,0.6,0.3,1.1,0.7,1.4l6,4.5c0.8,0.6,1.9,0.5,2.5-0.3c0.2-0.3,0.4-0.7,0.4-1.1V37.5c0-2.8-2.3-5.1-5.1-5.1h-35.9
	c-0.1-0.1-0.1-0.1-0.1-0.2l-4.3-4.3c-0.3-0.3-0.8-0.5-1.3-0.5h-23.2c-0.5,0-0.9,0.2-1.3,0.5l-4.3,4.3c-0.1,0.1-0.1,0.1-0.1,0.2
	h-35.8c-2.8,0-5.1,2.3-5.1,5.1v50.7c0,1,0.8,1.8,1.8,1.8c0.4,0,0.8-0.1,1.1-0.4l6-4.5c0.4-0.3,0.7-0.9,0.7-1.4v-2.2l5-3.8
	c0.4-0.3,0.7-0.9,0.7-1.4V74l5.1-3.9c0.4-0.3,0.7-0.9,0.7-1.4v-2.5h10.7c0.2,0,0.4,0,0.6-0.1l12.7-4.6v14.7
	c-5.5,0.8-10.9,2.2-16.1,4c-3.6,1.2-6,4.6-6,8.4c0,49-11.2,56.9-18.6,62.1c-1.2,0.8-2.4,1.8-3.6,2.7c-3.8,3.5-4.1,9.5-0.6,13.3
	c1,1.1,2.4,2,3.8,2.5c9.4,3.3,26.3,4.9,51.7,5h2.8c1.3,0,2.5,0,3.8,0c0.1,0,0.2,0,0.3,0.1c0.1,0,0.2,0,0.4-0.1
	c23-0.3,38.5-1.9,47.3-4.9c4.9-1.7,7.5-7.1,5.8-12C238.3,155.9,237.5,154.5,236.3,153.5z M235.7,37.5v47.1l-2.4-1.8v-2.2
	c0-0.6-0.3-1.1-0.7-1.4l-5-3.8v-2.2c0-0.6-0.3-1.1-0.7-1.4l-5.1-3.9v-3.4c0-1-0.8-1.8-1.8-1.8h-12.2l-14.3-5.2l4.7-21.5h36
	C235,36,235.7,36.7,235.7,37.5L235.7,37.5z M170.1,31h21.7l3.1,3.1l-5,23.1h-18.5L167,34.1L170.1,31z M154.2,62.6H142
	c-1,0-1.8,0.8-1.8,1.8v3.4l-5.1,3.9c-0.4,0.3-0.7,0.9-0.7,1.4v2.2l-5,3.8c-0.4,0.3-0.7,0.9-0.7,1.4v2.2l-2.4,1.8v-47
	c0-0.9,0.7-1.6,1.6-1.6l0,0h35.9l4.1,21.8L154.2,62.6z M171.4,60.7h18v15.1c-2.6-0.3-5.2-0.5-7.9-0.6c-0.1,0-0.1,0-0.2,0
	c-0.9,0-1.9,0-2.9,0c-0.1,0-0.1,0-0.2,0c-2.3,0.1-4.7,0.2-7,0.5L171.4,60.7z M149.3,89.2h25.3l0,0h0.3v-3.5h-0.1l0,0h-24.6
	c0.7-0.9,1.6-1.7,2.7-2c8.3-2.9,16.9-4.5,25.7-4.8c0.1,0,0.1,0,0.1,0c0.7,0,1.6,0,2.4,0c0.1,0,0.1,0,0.2,0
	c8.8,0.2,17.4,1.8,25.7,4.7c2.2,0.7,3.6,2.8,3.6,5.1c0,48.1,10.8,58.3,18.7,64c-11,3.8-27.1,5.9-44.1,6.2c-0.3-1.2-0.8-2.4-1.5-3.4
	c-0.1-0.1-0.2-0.3-0.4-0.4l-6.7-5.1l-5.5-13v-25.4c0-1-0.8-1.8-1.8-1.8s-1.8,0.8-1.8,1.8v25.7c0,0.2,0.1,0.5,0.1,0.7l5.9,13.8
	c0.1,0.3,0.3,0.5,0.6,0.7l6.9,5.2c0.2,0.4,0.4,0.7,0.6,1.1c-18.4,0.2-37.5-1.7-52-5.5C137.5,147.9,149.3,139,149.3,89.2L149.3,89.2z
	 M181.4,170.7h-2.8c-25-0.1-41.5-1.7-50.5-4.8c-3-1.1-4.6-4.4-3.6-7.4c0.3-0.9,0.8-1.7,1.5-2.3c14.7,4.3,34.3,6.5,53.4,6.5
	c0.8,0,1.6,0,2.4,0c-0.2,1.1-0.4,2.2-0.8,3.3c-0.1,0.3-0.2,0.7-0.2,1s0.1,0.6,0.2,0.8l1.5,2.9H181.4z M235.7,161.6
	c-0.4,2-1.8,3.7-3.8,4.4c-8.3,2.9-23.2,4.5-45.4,4.7l-2-3.9c0.5-1.4,0.8-2.8,0.9-4.2c18.5-0.4,36-2.9,47.4-7.4
	c0.4,0.3,0.8,0.6,1.1,0.9C235.5,157.5,236.2,159.6,235.7,161.6L235.7,161.6z"/>
</svg>
