<?xml version="1.0" encoding="utf-8"?>
<!-- Generator: Adobe Illustrator 21.1.0, SVG Export Plug-In . SVG Version: 6.00 Build 0)  -->
<svg version="1.1" id="Layer_1" xmlns="http://www.w3.org/2000/svg" xmlns:xlink="http://www.w3.org/1999/xlink" x="0px" y="0px"
	 viewBox="0 0 360 260" style="enable-background:new 0 0 360 260;" xml:space="preserve">
<style type="text/css">
	.st0{fill:#ECF0F1;}
	.st1{enable-background:new    ;}
	.st2{fill:#34495E;}
</style>
<title>old_website</title>
<rect class="st0" width="360" height="260"/>
<g class="st1">
	<path class="st2" d="M48.5,214l9.4,22.5h0.1l9.4-22.5h2.8v25.6h-2.1v-11.3l0.2-11.2l-0.1,0l-9.5,22.5h-1.5l-9.5-22.4l-0.1,0
		l0.2,11.1v11.3h-2.1V214H48.5z"/>
	<path class="st2" d="M81.8,234.4l0.7,2.3h0.1l5.7-16.1h2.4l-8.3,22.1c-0.5,1.3-1.1,2.4-1.9,3.3s-1.9,1.4-3.4,1.4
		c-0.2,0-0.5,0-0.9-0.1s-0.6-0.1-0.8-0.2l0.2-1.8c0.1,0,0.4,0,0.7,0.1s0.5,0,0.7,0c0.9,0,1.6-0.3,2.2-1s1-1.5,1.4-2.5l1-2.6
		l-7.3-18.8h2.3L81.8,234.4z"/>
	<path class="st2" d="M103.4,239.6V214h7.4c3.1,0,5.7,1,7.8,3.1s3.1,4.8,3.1,8v3.3c0,3.3-1,6-3.1,8s-4.6,3.1-7.8,3.1H103.4z
		 M105.4,215.8v22h5.3c2.5,0,4.6-0.9,6.2-2.7c1.6-1.8,2.5-4,2.5-6.7v-3.3c0-2.7-0.8-4.9-2.5-6.7s-3.7-2.7-6.2-2.7H105.4z"/>
	<path class="st2" d="M138.4,239.6c-0.1-0.6-0.2-1.2-0.3-1.7s-0.1-0.9-0.1-1.4c-0.7,1-1.6,1.8-2.8,2.5s-2.5,1-4,1
		c-1.9,0-3.3-0.5-4.3-1.5s-1.5-2.3-1.5-4c0-1.8,0.8-3.2,2.3-4.2s3.6-1.6,6.1-1.6h4.2v-2.4c0-1.4-0.4-2.4-1.3-3.2s-2.1-1.2-3.7-1.2
		c-1.5,0-2.7,0.4-3.6,1.1s-1.5,1.6-1.5,2.7l-1.9,0l0-0.1c-0.1-1.4,0.6-2.7,1.9-3.8s3.1-1.7,5.2-1.7c2.1,0,3.8,0.5,5.1,1.6
		s1.9,2.6,1.9,4.6v9.4c0,0.7,0,1.3,0.1,2s0.2,1.3,0.4,1.9H138.4z M131.5,238.1c1.5,0,2.8-0.4,4-1.1s2-1.6,2.5-2.7v-4h-4.2
		c-1.9,0-3.4,0.4-4.6,1.2s-1.7,1.8-1.7,3c0,1,0.4,1.9,1.1,2.5S130.3,238.1,131.5,238.1z"/>
	<path class="st2" d="M144.9,230.2c0-3,0.6-5.5,1.9-7.3s3.1-2.7,5.4-2.7c1.3,0,2.5,0.3,3.4,0.8s1.8,1.4,2.4,2.4v-11.3h2.1v27.4h-1.9
		l-0.2-2.8c-0.6,1-1.4,1.8-2.4,2.3s-2.2,0.8-3.5,0.8c-2.3,0-4.1-0.8-5.3-2.5s-1.9-4-1.9-6.8V230.2z M147,230.6
		c0,2.3,0.5,4.1,1.4,5.5s2.3,2,4.2,2c1.4,0,2.5-0.3,3.4-0.9s1.6-1.5,2.1-2.5v-9c-0.5-1.1-1.2-2-2-2.7s-2-1-3.4-1
		c-1.9,0-3.2,0.8-4.2,2.3s-1.4,3.5-1.4,5.9V230.6z"/>
	<path class="st2" d="M167.8,215.3l-2,5.4h-1.2l1.1-5.3v-3.2h2.1V215.3z"/>
	<path class="st2" d="M182.2,234.7c0-0.9-0.4-1.7-1.1-2.3s-2.1-1.2-4-1.6c-2.3-0.5-4-1.1-5-2s-1.6-2-1.6-3.4c0-1.5,0.6-2.7,1.8-3.7
		s2.8-1.5,4.9-1.5c2.1,0,3.8,0.5,5.1,1.6s1.9,2.4,1.8,4l0,0.1h-2c0-1-0.4-2-1.3-2.7s-2.1-1.2-3.6-1.2c-1.5,0-2.7,0.3-3.5,1
		c-0.8,0.7-1.2,1.4-1.2,2.3c0,0.9,0.3,1.6,1,2.2s2,1.1,4,1.5c2.3,0.5,4,1.2,5.1,2.1s1.7,2.1,1.7,3.6c0,1.6-0.6,2.9-1.9,3.9
		s-3,1.5-5.1,1.5c-2.3,0-4.1-0.6-5.4-1.7s-1.9-2.4-1.9-3.9l0-0.1h1.9c0.1,1.4,0.6,2.4,1.7,3c1,0.6,2.3,0.9,3.7,0.9
		c1.5,0,2.7-0.3,3.6-1C181.7,236.5,182.2,235.7,182.2,234.7z"/>
	<path class="st2" d="M202.9,232.3l0.8,3.9l0.1,0l1-3.9l5.4-18.4h2l5.4,18.4l0.9,4l0.1,0l0.8-3.9l4.6-18.4h2.1l-6.6,25.6h-2
		l-5.7-19.6l-0.7-2.7h-0.1l-0.7,2.7l-5.8,19.6h-2l-6.6-25.6h2.2L202.9,232.3z"/>
	<path class="st2" d="M236.7,239.9c-2.4,0-4.4-0.9-5.9-2.6s-2.4-4-2.4-6.7v-1c0-2.7,0.8-5,2.3-6.8s3.5-2.7,5.7-2.7
		c2.3,0,4.2,0.7,5.5,2.2s2,3.4,2,5.9v1.8h-13.4v0.5c0,2.1,0.6,3.9,1.7,5.4s2.6,2.2,4.5,2.2c1.3,0,2.4-0.2,3.4-0.5s1.7-0.9,2.4-1.6
		l0.9,1.4c-0.7,0.8-1.6,1.4-2.7,1.8C239.5,239.7,238.2,239.9,236.7,239.9z M236.4,222c-1.6,0-2.9,0.6-3.9,1.8
		c-1.1,1.2-1.7,2.7-1.8,4.5l0,0.1h11.1v-0.5c0-1.6-0.5-3-1.5-4.1S238.1,222,236.4,222z"/>
	<path class="st2" d="M263.4,230.6c0,2.8-0.6,5.1-1.9,6.8s-3.1,2.5-5.3,2.5c-1.4,0-2.6-0.3-3.6-0.8s-1.8-1.4-2.4-2.4l-0.2,2.9h-1.8
		v-27.4h2.1v11.4c0.6-1.1,1.4-1.9,2.4-2.5s2.2-0.9,3.5-0.9c2.3,0,4.1,0.9,5.4,2.7s1.9,4.3,1.9,7.3V230.6z M261.3,230.2
		c0-2.4-0.5-4.4-1.4-5.9s-2.3-2.3-4.2-2.3c-1.5,0-2.6,0.4-3.5,1.1s-1.6,1.7-2,2.8v8.6c0.5,1.1,1.2,2,2.1,2.6s2.1,1,3.5,1
		c1.8,0,3.2-0.7,4.1-2s1.4-3.2,1.4-5.5V230.2z"/>
	<path class="st2" d="M279.5,234.7c0-0.9-0.4-1.7-1.1-2.3s-2.1-1.2-4-1.6c-2.3-0.5-4-1.1-5-2s-1.6-2-1.6-3.4c0-1.5,0.6-2.7,1.8-3.7
		s2.8-1.5,4.9-1.5c2.1,0,3.8,0.5,5.1,1.6s1.9,2.4,1.8,4l0,0.1h-2c0-1-0.4-2-1.3-2.7s-2.1-1.2-3.6-1.2c-1.5,0-2.7,0.3-3.5,1
		c-0.8,0.7-1.2,1.4-1.2,2.3c0,0.9,0.3,1.6,1,2.2s2,1.1,4,1.5c2.3,0.5,4,1.2,5.1,2.1s1.7,2.1,1.7,3.6c0,1.6-0.6,2.9-1.9,3.9
		s-3,1.5-5.1,1.5c-2.3,0-4.1-0.6-5.4-1.7s-1.9-2.4-1.9-3.9l0-0.1h1.9c0.1,1.4,0.6,2.4,1.7,3c1,0.6,2.3,0.9,3.7,0.9
		c1.5,0,2.7-0.3,3.6-1C279.1,236.5,279.5,235.7,279.5,234.7z"/>
	<path class="st2" d="M288.8,215.1h-2.1v-3h2.1V215.1z M288.8,239.6h-2.1v-19h2.1V239.6z"/>
	<path class="st2" d="M298,215.7v4.9h4.2v1.7H298v12.4c0,1.2,0.2,2.1,0.7,2.6s1.1,0.8,1.8,0.8c0.3,0,0.7,0,1,0s0.7-0.1,1.1-0.1
		l0.3,1.6c-0.4,0.2-0.8,0.3-1.3,0.4s-1,0.1-1.5,0.1c-1.3,0-2.4-0.4-3.1-1.3s-1.1-2.2-1.1-4v-12.4h-3.3v-1.7h3.3v-4.9H298z"/>
	<path class="st2" d="M313.8,239.9c-2.4,0-4.4-0.9-5.9-2.6s-2.4-4-2.4-6.7v-1c0-2.7,0.8-5,2.3-6.8s3.5-2.7,5.7-2.7
		c2.3,0,4.2,0.7,5.5,2.2s2,3.4,2,5.9v1.8h-13.4v0.5c0,2.1,0.6,3.9,1.7,5.4s2.6,2.2,4.5,2.2c1.3,0,2.4-0.2,3.4-0.5s1.7-0.9,2.4-1.6
		l0.9,1.4c-0.7,0.8-1.6,1.4-2.7,1.8C316.6,239.7,315.3,239.9,313.8,239.9z M313.5,222c-1.6,0-2.9,0.6-3.9,1.8
		c-1.1,1.2-1.7,2.7-1.8,4.5l0,0.1h11.1v-0.5c0-1.6-0.5-3-1.5-4.1S315.2,222,313.5,222z"/>
</g>
<g class="st1">
</g>
<path class="st2" d="M267,28H93c-7.2,0-13,5.8-13,13v127.6c0,7.2,5.8,13,13,13l0,0h174c7.2,0,13-5.8,13-13l0,0V41
	C280,33.8,274.2,28,267,28z M88.7,41.4c-0.1-2.5,1.8-4.5,4.2-4.7c0.1,0,0.1,0,0.2,0H267c2.4,0,4.3,1.9,4.3,4.3v16H88.7V41.4z
	 M271.3,168.6c0,2.4-1.8,4.3-4.2,4.4c-0.1,0-0.1,0-0.2,0H93c-2.4,0-4.3-1.9-4.3-4.4V62.8h182.6V168.6z"/>
<path class="st2" d="M191.3,164.2h-68.7c-5.9,0-10.7-4.8-10.7-10.7V85.1c0-5.9,4.8-10.7,10.7-10.7H191c5.9,0,10.7,4.8,10.7,10.7
	v68.7C201.7,159.6,197.1,164.2,191.3,164.2L191.3,164.2z M120.6,85.1v68.4c0,1.1,0.9,2,2,2H191c1.1,0,2-0.9,2-2V85.1
	c0-1.1-0.9-2-2-2h-68.4C121.5,83.1,120.6,84,120.6,85.1L120.6,85.1z"/>
<path class="st2" d="M237.8,115h-16.6c-5.9,0-10.7-4.8-10.7-10.7V85.1c0-5.9,4.8-10.7,10.7-10.7h16.2c5.9,0,10.7,4.8,10.7,10.7v18.7
	C248.1,110.2,243.4,115,237.8,115z M219.1,85.1v19.1c0,1.1,0.9,2,2,2h19.1c1.1,0,2-0.9,2-2V85.1c0-1.1-0.9-2-2-2h-19.1
	C220.1,83.1,219.1,84,219.1,85.1L219.1,85.1z"/>
<path class="st2" d="M237.8,161.3h-16.6c-5.9,0-10.7-4.8-10.7-10.7v-16.2c0-5.9,4.8-10.7,10.7-10.7h16.2c5.9,0,10.7,4.8,10.7,10.7
	V151C248.1,156.7,243.5,161.3,237.8,161.3L237.8,161.3z M219.1,134.3v16.2c0,1.1,0.9,2,2,2h19.1c1.1,0,2-0.9,2-2v-16.2
	c0-1.1-0.9-2-2-2h-19.1C220.1,132.4,219.1,133.2,219.1,134.3C219.1,134.4,219.1,134.4,219.1,134.3L219.1,134.3z"/>
</svg>
