<svg id="Layer_1" data-name="Layer 1" xmlns="http://www.w3.org/2000/svg" viewBox="0 0 1075.9 672.75"><defs><style>.cls-1,.cls-2{fill:#1989b6;stroke:#1989b6;}.cls-1,.cls-2,.cls-3{stroke-miterlimit:10;}.cls-2,.cls-3{font-size:24.87px;font-family:MyriadPro-Regular, Myriad Pro;}.cls-3{fill:#fff;stroke:#fff;}.cls-10,.cls-13,.cls-4{fill:#e2856a;}.cls-11,.cls-5,.cls-9{fill:#84a982;}.cls-6{fill:none;}.cls-7{font-size:48px;font-family:Roboto-Thin, Roboto;}.cls-8{font-size:10px;fill:#1d1d1b;font-family:Roboto-Medium, Roboto;}.cls-10,.cls-9{font-size:36px;}.cls-10,.cls-11,.cls-13,.cls-9{font-family:Roboto-Regular, Roboto;}.cls-11,.cls-13{font-size:24px;}.cls-12{letter-spacing:-0.01em;}</style></defs><title>phone</title><line class="cls-1" x1="281.98" y1="642.52" x2="812.49" y2="642.52"/><line class="cls-1" x1="281.98" y1="642.52" x2="281.98" y2="629.49"/><line class="cls-1" x1="388.08" y1="642.52" x2="388.08" y2="629.49"/><line class="cls-1" x1="494.18" y1="642.52" x2="494.18" y2="629.49"/><line class="cls-1" x1="600.28" y1="642.52" x2="600.28" y2="629.49"/><line class="cls-1" x1="706.38" y1="642.52" x2="706.38" y2="629.49"/><line class="cls-1" x1="812.49" y1="642.52" x2="812.49" y2="629.49"/><text class="cls-2" transform="translate(260.93 651.84)">0</text><text class="cls-3" transform="translate(260.93 577.41)">5</text><text class="cls-3" transform="translate(248.18 502.98)">10</text><text class="cls-3" transform="translate(248.18 428.55)">15</text><text class="cls-3" transform="translate(248.18 354.12)">20</text><text class="cls-3" transform="translate(248.18 279.69)">25</text><text class="cls-3" transform="translate(248.18 205.26)">30</text><text class="cls-2" transform="translate(248.18 130.83)">35</text><line class="cls-1" x1="281.98" y1="642.52" x2="281.98" y2="121.5"/><line class="cls-1" x1="281.98" y1="642.52" x2="295.24" y2="642.52"/><line class="cls-1" x1="281.98" y1="568.08" x2="295.24" y2="568.08"/><line class="cls-1" x1="281.98" y1="493.65" x2="295.24" y2="493.65"/><line class="cls-1" x1="281.98" y1="419.22" x2="295.24" y2="419.22"/><line class="cls-1" x1="281.98" y1="344.79" x2="295.24" y2="344.79"/><line class="cls-1" x1="281.98" y1="270.36" x2="295.24" y2="270.36"/><line class="cls-1" x1="281.98" y1="195.93" x2="295.24" y2="195.93"/><line class="cls-1" x1="281.98" y1="121.5" x2="295.24" y2="121.5"/><rect class="cls-4" x="337.15" y="270.36" width="38.2" height="372.15"/><rect class="cls-4" x="443.25" y="329.91" width="38.2" height="312.61"/><rect class="cls-4" x="549.35" y="493.65" width="38.2" height="148.86"/><rect class="cls-4" x="655.46" y="493.65" width="38.2" height="148.86"/><rect class="cls-4" x="761.56" y="523.43" width="38.2" height="119.09"/><rect class="cls-5" x="294.71" y="166.16" width="38.2" height="476.36"/><rect class="cls-5" x="400.81" y="240.59" width="38.2" height="401.93"/><rect class="cls-5" x="506.91" y="449" width="38.2" height="193.52"/><rect class="cls-5" x="613.01" y="449" width="38.2" height="193.52"/><rect class="cls-5" x="719.12" y="478.77" width="38.2" height="163.75"/><line class="cls-6" x1="355.64" y1="245.24" x2="817.13" y2="245.24"/><text class="cls-7" transform="translate(0 41.06)">phone app usage</text><text class="cls-8" transform="translate(318.23 656.56)">Safari</text><text class="cls-8" transform="translate(424.5 656.56)">Phone</text><text class="cls-8" transform="translate(530.78 657.26)">Home <tspan x="0" y="12">Screen</tspan></text><text class="cls-8" transform="translate(631.22 656.56)">Messages</text><text class="cls-8" transform="translate(744.45 656.56)">Skype</text><text class="cls-9" transform="translate(294.07 162.58)">32</text><text class="cls-10" transform="translate(336.45 267.97)">25</text><text class="cls-9" transform="translate(403.07 237.68)">27</text><text class="cls-10" transform="translate(444.34 325.9)">21</text><text class="cls-9" transform="translate(504.36 444.74)">13</text><text class="cls-10" transform="translate(547.77 490.29)">10</text><text class="cls-9" transform="translate(610.83 444.74)">13</text><text class="cls-10" transform="translate(653.73 490.29)">10</text><text class="cls-9" transform="translate(719.59 473.84)">11</text><text class="cls-10" transform="translate(769.32 520.32)">8</text><rect class="cls-5" x="797.12" y="105.8" width="30.86" height="30.86"/><rect class="cls-4" x="797.12" y="150.8" width="30.86" height="30.86"/><text class="cls-11" transform="translate(844.3 127.32)">frid<tspan class="cls-12" x="36.2" y="0">a</tspan><tspan x="49.22" y="0">y sept 22</tspan></text><text class="cls-13" transform="translate(844.3 174.89)">tuesd<tspan class="cls-12" x="60.82" y="0">a</tspan><tspan x="73.84" y="0">y sept 19</tspan></text></svg>