<?xml version="1.0" encoding="utf-8"?>
<!-- Generator: Adobe Illustrator 21.1.0, SVG Export Plug-In . SVG Version: 6.00 Build 0)  -->
<svg version="1.1" id="Layer_1" xmlns="http://www.w3.org/2000/svg" xmlns:xlink="http://www.w3.org/1999/xlink" x="0px" y="0px"
	 viewBox="0 0 360 260" style="enable-background:new 0 0 360 260;" xml:space="preserve">
<style type="text/css">
	.st0{fill:#ECF0F1;}
	.st1{fill:#34495E;}
	.st2{fill:none;}
	.st3{fill:#34495E;stroke:#000000;stroke-width:0.25;stroke-miterlimit:10;}
	.st4{font-family:'Lato-Light';}
	.st5{font-size:35px;}
</style>
<title>three_trips</title>
<rect class="st0" width="360" height="260"/>
<path class="st1" d="M203.9,29.7H150c-1.1,0-2,0.9-2,2v22H96c-1.1,0-2,0.9-2,2v119.7c0,1.1,0.9,2,2,2h179.7c1.1,0,2-0.9,2-2v-73.9
	c0-1.1-0.9-2-2-2h-18V55.7c0-1.1-0.9-2-2-2h-49.9v-22C205.8,30.6,204.9,29.7,203.9,29.7z M152,33.7h49.9v20H152V33.7z M98,115.6
	h75.9v57.9H98V115.6z M151.9,111.6H120v-16h31.9V111.6z M177.9,123.6h12v0.9c0.1,6.7-5.3,12.2-12,12.3l0,0V123.6z M177.9,173.5
	v-13.1c6.7,0.1,12.1,5.6,12,12.3l0,0l0,0v0.8H177.9z M273.7,173.5h-14v-1.7c0-6.8,5.5-12.3,12.3-12.3l0,0h1.7V173.5z M273.7,155.5
	H272c-9,0-16.3,7.3-16.3,16.3l0,0v1.7h-61.9v-0.9c0-9.1-7.1-16.5-16-16.5V141c8.8,0,16-7.4,16-16.5v-0.9h61.9v1.7
	c0,9,7.3,16.3,16.2,16.3h1.7L273.7,155.5z M272,137.5c-6.8,0-12.3-5.5-12.3-12.3v-1.7h14v14H272z M273.7,119.5h-95.8v-16h95.8V119.5
	z M253.7,101.5h-77.8c-1.1,0-2,0.9-2,2v8h-18v-18c0-1.1-0.9-2-2-2H118c-1.1,0-2,0.9-2,2v18H98V57.7h155.8L253.7,101.5z"/>
<rect x="39" y="204.2" class="st2" width="275.2" height="45.8"/>
<text transform="matrix(1 0 0 1 90.4761 229.6933)" class="st3 st4 st5">Three Trips</text>
</svg>
