<?xml version="1.0" encoding="utf-8"?>
<!-- Generator: Adobe Illustrator 21.1.0, SVG Export Plug-In . SVG Version: 6.00 Build 0)  -->
<svg version="1.1" id="Layer_1" xmlns="http://www.w3.org/2000/svg" xmlns:xlink="http://www.w3.org/1999/xlink" x="0px" y="0px"
	 viewBox="0 0 360 260" style="enable-background:new 0 0 360 260;" xml:space="preserve">
<style type="text/css">
	.st0{fill:#ECF0F1;}
	.st1{fill:#34495E;}
	.st2{fill:none;}
	.st3{fill:#34495E;stroke:#000000;stroke-width:0.25;stroke-miterlimit:10;}
	.st4{font-family:'Lato-Light';}
	.st5{font-size:35px;}
</style>
<title>D3</title>
<rect class="st0" width="360" height="260"/>
<g>
	<g>
		<path class="st1" d="M157.3,59.9h17.8h17.5h17.8v19.2l4.7,2.8V57.5c0-1.4-0.9-2.4-2.4-2.4H195v-9.2h6.4c1.4,0,2.4-0.9,2.4-2.4
			V32.4c0-1.4-0.9-2.4-2.4-2.4h-35.1c-1.4,0-2.4,0.9-2.4,2.4v11.1c0,1.4,0.9,2.4,2.4,2.4h6.4v9.2H155c-1.4,0-2.4,0.9-2.4,2.4v24.2
			l4.7-2.8V59.9z M168.7,34.7H199v6.4h-30.3V34.7z M177.5,45.9h12.8v9.2h-12.8V45.9z M139.1,97.1c-0.2-0.9,0.2-2.1,1.2-2.6
			l42.7-24.6c0.7-0.5,1.7-0.5,2.4,0L228,94.5c0.9,0.5,1.4,1.7,1.2,2.6l-10.4,35.8c-1.2-0.7-2.6-1.7-4.3-2.1l9.7-33.2l-40.3-23
			l-39.8,23.2l9.7,33.2c-1.7,0.7-3.1,1.4-4.3,2.1L139.1,97.1z M114.9,136.4c0-1.4,0.9-2.4,2.4-2.4c6.4,0,9.7,2.8,12.6,5.2
			c2.6,2.1,5,4,9.5,4c4.7,0,6.9-1.9,9.5-4c2.8-2.4,6.2-5.2,12.6-5.2s9.7,2.8,12.6,5.2c2.6,2.1,5,4,9.5,4c4.7,0,6.9-1.9,9.5-4
			c2.8-2.4,6.2-5.2,12.6-5.2s9.7,2.8,12.6,5.2c2.6,2.1,5,4,9.5,4c4.5,0,6.9-1.9,9.5-4c2.8-2.4,6.2-5.2,12.6-5.2
			c1.4,0,2.4,0.9,2.4,2.4s-0.9,2.4-2.4,2.4c-4.7,0-6.9,1.9-9.5,4c-2.8,2.4-6.2,5.2-12.6,5.2s-9.7-2.8-12.6-5.2c-2.6-2.1-5-4-9.5-4
			c-4.7,0-6.9,1.9-9.5,4c-2.8,2.4-6.2,5.2-12.6,5.2s-9.7-2.8-12.6-5.2c-2.6-2.1-5-4-9.5-4c-4.7,0-6.9,1.9-9.5,4
			c-2.8,2.4-6.2,5.2-12.6,5.2s-9.7-2.8-12.6-5.2c-2.6-2.1-5-4-9.5-4C115.8,138.8,114.9,137.8,114.9,136.4z M252.8,160.6
			c0,1.4-0.9,2.4-2.4,2.4c-4.7,0-6.9,1.9-9.5,4c-2.8,2.4-6.2,5.2-12.6,5.2c-6.4,0-9.7-2.8-12.6-5.2c-2.6-2.1-5-4-9.5-4
			c-4.7,0-6.9,1.9-9.5,4c-2.8,2.4-6.2,5.2-12.6,5.2s-9.7-2.8-12.6-5.2c-2.6-2.1-5-4-9.5-4c-4.7,0-6.9,1.9-9.5,4
			c-2.8,2.4-6.2,5.2-12.6,5.2s-9.7-2.8-12.6-5.2c-2.6-2.1-5-4-9.5-4c-1.4,0-2.4-0.9-2.4-2.4s0.9-2.4,2.4-2.4c6.4,0,9.7,2.8,12.6,5.2
			c2.6,2.1,5,4,9.5,4c4.7,0,6.9-1.9,9.5-4c2.8-2.4,6.2-5.2,12.6-5.2s9.7,2.8,12.6,5.2c2.6,2.1,5,4,9.5,4c4.7,0,6.9-1.9,9.5-4
			c2.8-2.4,6.2-5.2,12.6-5.2s9.7,2.8,12.6,5.2c2.6,2.1,5,4,9.5,4c4.5,0,6.9-1.9,9.5-4c2.8-2.4,6.2-5.2,12.6-5.2
			C251.9,158.2,252.8,159.4,252.8,160.6z"/>
	</g>
</g>
<rect x="-5.6" y="207.5" class="st2" width="371.1" height="33"/>
<text transform="matrix(1 0 0 1 26.5281 233.0362)" class="st3 st4 st5">Titanic Survival Data</text>
</svg>
