<?xml version="1.0" encoding="utf-8"?>
<!-- Generator: Adobe Illustrator 21.1.0, SVG Export Plug-In . SVG Version: 6.00 Build 0)  -->
<svg version="1.1" id="Layer_1" xmlns="http://www.w3.org/2000/svg" xmlns:xlink="http://www.w3.org/1999/xlink" x="0px" y="0px"
	 viewBox="0 0 360 260" style="enable-background:new 0 0 360 260;" xml:space="preserve">
<style type="text/css">
	.st0{fill:#ECF0F1;}
	.st1{fill:#34495E;}
	.st2{fill:none;}
</style>
<title>D3</title>
<rect class="st0" width="360" height="260"/>
<g>
	<g>
		<path class="st1" d="M157.3,59.9h17.8h17.5h17.8v19.2l4.7,2.8V57.5c0-1.4-0.9-2.4-2.4-2.4H195v-9.2h6.4c1.4,0,2.4-0.9,2.4-2.4
			V32.4c0-1.4-0.9-2.4-2.4-2.4h-35.1c-1.4,0-2.4,0.9-2.4,2.4v11.1c0,1.4,0.9,2.4,2.4,2.4h6.4v9.2H155c-1.4,0-2.4,0.9-2.4,2.4v24.2
			l4.7-2.8V59.9z M168.7,34.7H199v6.4h-30.3V34.7z M177.5,45.9h12.8v9.2h-12.8V45.9z M139.1,97.1c-0.2-0.9,0.2-2.1,1.2-2.6
			l42.7-24.6c0.7-0.5,1.7-0.5,2.4,0L228,94.5c0.9,0.5,1.4,1.7,1.2,2.6l-10.4,35.8c-1.2-0.7-2.6-1.7-4.3-2.1l9.7-33.2l-40.3-23
			l-39.8,23.2l9.7,33.2c-1.7,0.7-3.1,1.4-4.3,2.1L139.1,97.1z M114.9,136.4c0-1.4,0.9-2.4,2.4-2.4c6.4,0,9.7,2.8,12.6,5.2
			c2.6,2.1,5,4,9.5,4c4.7,0,6.9-1.9,9.5-4c2.8-2.4,6.2-5.2,12.6-5.2s9.7,2.8,12.6,5.2c2.6,2.1,5,4,9.5,4c4.7,0,6.9-1.9,9.5-4
			c2.8-2.4,6.2-5.2,12.6-5.2s9.7,2.8,12.6,5.2c2.6,2.1,5,4,9.5,4c4.5,0,6.9-1.9,9.5-4c2.8-2.4,6.2-5.2,12.6-5.2
			c1.4,0,2.4,0.9,2.4,2.4s-0.9,2.4-2.4,2.4c-4.7,0-6.9,1.9-9.5,4c-2.8,2.4-6.2,5.2-12.6,5.2s-9.7-2.8-12.6-5.2c-2.6-2.1-5-4-9.5-4
			c-4.7,0-6.9,1.9-9.5,4c-2.8,2.4-6.2,5.2-12.6,5.2s-9.7-2.8-12.6-5.2c-2.6-2.1-5-4-9.5-4c-4.7,0-6.9,1.9-9.5,4
			c-2.8,2.4-6.2,5.2-12.6,5.2s-9.7-2.8-12.6-5.2c-2.6-2.1-5-4-9.5-4C115.8,138.8,114.9,137.8,114.9,136.4z M252.8,160.6
			c0,1.4-0.9,2.4-2.4,2.4c-4.7,0-6.9,1.9-9.5,4c-2.8,2.4-6.2,5.2-12.6,5.2c-6.4,0-9.7-2.8-12.6-5.2c-2.6-2.1-5-4-9.5-4
			c-4.7,0-6.9,1.9-9.5,4c-2.8,2.4-6.2,5.2-12.6,5.2s-9.7-2.8-12.6-5.2c-2.6-2.1-5-4-9.5-4c-4.7,0-6.9,1.9-9.5,4
			c-2.8,2.4-6.2,5.2-12.6,5.2s-9.7-2.8-12.6-5.2c-2.6-2.1-5-4-9.5-4c-1.4,0-2.4-0.9-2.4-2.4s0.9-2.4,2.4-2.4c6.4,0,9.7,2.8,12.6,5.2
			c2.6,2.1,5,4,9.5,4c4.7,0,6.9-1.9,9.5-4c2.8-2.4,6.2-5.2,12.6-5.2s9.7,2.8,12.6,5.2c2.6,2.1,5,4,9.5,4c4.7,0,6.9-1.9,9.5-4
			c2.8-2.4,6.2-5.2,12.6-5.2s9.7,2.8,12.6,5.2c2.6,2.1,5,4,9.5,4c4.5,0,6.9-1.9,9.5-4c2.8-2.4,6.2-5.2,12.6-5.2
			C251.9,158.2,252.8,159.4,252.8,160.6z"/>
	</g>
</g>
<g>
	<rect x="-5.6" y="207.5" class="st2" width="371.1" height="33"/>
	<path class="st1" d="M46.4,208.3v1.5h-8.7V233h-1.8v-23.2h-8.8v-1.5H46.4z"/>
	<path class="st1" d="M52.7,209.6c0,0.2,0,0.4-0.1,0.6c-0.1,0.2-0.2,0.3-0.3,0.5c-0.1,0.1-0.3,0.3-0.5,0.3c-0.2,0.1-0.4,0.1-0.6,0.1
		s-0.4,0-0.6-0.1c-0.2-0.1-0.3-0.2-0.5-0.3c-0.1-0.1-0.3-0.3-0.3-0.5c-0.1-0.2-0.1-0.4-0.1-0.6s0-0.4,0.1-0.6
		c0.1-0.2,0.2-0.4,0.3-0.5s0.3-0.3,0.5-0.3c0.2-0.1,0.4-0.1,0.6-0.1s0.4,0,0.6,0.1c0.2,0.1,0.4,0.2,0.5,0.3s0.3,0.3,0.3,0.5
		S52.7,209.4,52.7,209.6z M52,215.6V233h-1.7v-17.4H52z"/>
	<path class="st1" d="M62.9,233.3c-1.2,0-2.1-0.3-2.7-1c-0.7-0.7-1-1.7-1-3v-11.9h-2.5c-0.1,0-0.2,0-0.3-0.1
		c-0.1-0.1-0.1-0.2-0.1-0.3v-0.6l3-0.2l0.4-6.2c0-0.1,0.1-0.2,0.1-0.3c0.1-0.1,0.2-0.1,0.3-0.1h0.8v6.6h5.5v1.2h-5.5v11.8
		c0,0.5,0.1,0.9,0.2,1.2s0.3,0.6,0.5,0.8s0.5,0.4,0.8,0.5c0.3,0.1,0.6,0.2,0.9,0.2c0.4,0,0.8-0.1,1.1-0.2c0.3-0.1,0.6-0.3,0.8-0.4
		c0.2-0.1,0.4-0.3,0.5-0.4c0.1-0.1,0.3-0.2,0.3-0.2c0.1,0,0.2,0.1,0.3,0.2l0.5,0.7c-0.4,0.5-1,0.9-1.7,1.2
		C64.3,233.2,63.6,233.3,62.9,233.3z"/>
	<path class="st1" d="M81.7,233c-0.3,0-0.6-0.2-0.6-0.5l-0.2-2.2c-0.5,0.5-1,0.9-1.4,1.3c-0.5,0.4-1,0.7-1.5,0.9
		c-0.5,0.3-1.1,0.5-1.7,0.6c-0.6,0.1-1.2,0.2-2,0.2c-0.6,0-1.2-0.1-1.7-0.3s-1.1-0.4-1.5-0.8c-0.4-0.4-0.8-0.8-1-1.4
		c-0.3-0.6-0.4-1.2-0.4-2c0-0.7,0.2-1.4,0.6-2s1.1-1.2,2-1.6s2-0.8,3.4-1.1c1.4-0.3,3.1-0.4,5.1-0.5v-1.8c0-1.6-0.3-2.8-1-3.7
		c-0.7-0.9-1.7-1.3-3.1-1.3c-0.8,0-1.6,0.1-2.1,0.3c-0.6,0.2-1.1,0.5-1.5,0.8c-0.4,0.3-0.7,0.5-1,0.8c-0.3,0.2-0.5,0.4-0.6,0.4
		c-0.2,0-0.4-0.1-0.5-0.3l-0.3-0.5c0.9-0.9,1.9-1.6,2.9-2.1c1-0.5,2.1-0.7,3.4-0.7c0.9,0,1.8,0.1,2.5,0.4s1.3,0.7,1.7,1.3
		c0.5,0.6,0.8,1.2,1,2c0.2,0.8,0.3,1.7,0.3,2.6V233H81.7z M74.7,232.1c0.7,0,1.3-0.1,1.9-0.2c0.6-0.1,1.1-0.3,1.6-0.6
		c0.5-0.3,0.9-0.6,1.4-0.9c0.4-0.4,0.8-0.8,1.2-1.2v-4.5c-1.7,0-3.1,0.2-4.3,0.4s-2.2,0.5-3,0.8c-0.8,0.3-1.3,0.8-1.7,1.3
		c-0.4,0.5-0.6,1-0.6,1.7c0,0.6,0.1,1.1,0.3,1.5c0.2,0.4,0.4,0.8,0.8,1c0.3,0.3,0.7,0.5,1.1,0.6C73.8,232,74.3,232.1,74.7,232.1z"/>
	<path class="st1" d="M87.6,233v-17.4h0.9c0.3,0,0.5,0.1,0.5,0.4l0.2,2.6c0.8-1,1.7-1.8,2.8-2.4c1.1-0.6,2.2-0.9,3.5-0.9
		c1,0,1.8,0.2,2.5,0.5c0.7,0.3,1.3,0.7,1.8,1.3s0.8,1.3,1.1,2.1c0.2,0.8,0.4,1.7,0.4,2.7V233h-1.7v-11.1c0-1.6-0.4-2.9-1.1-3.8
		c-0.7-0.9-1.9-1.4-3.4-1.4c-1.1,0-2.2,0.3-3.2,0.9s-1.9,1.4-2.6,2.4V233H87.6z"/>
	<path class="st1" d="M109.5,209.6c0,0.2,0,0.4-0.1,0.6c-0.1,0.2-0.2,0.3-0.3,0.5c-0.1,0.1-0.3,0.3-0.5,0.3
		c-0.2,0.1-0.4,0.1-0.6,0.1s-0.4,0-0.6-0.1c-0.2-0.1-0.3-0.2-0.5-0.3c-0.1-0.1-0.3-0.3-0.3-0.5c-0.1-0.2-0.1-0.4-0.1-0.6
		s0-0.4,0.1-0.6c0.1-0.2,0.2-0.4,0.3-0.5s0.3-0.3,0.5-0.3c0.2-0.1,0.4-0.1,0.6-0.1s0.4,0,0.6,0.1c0.2,0.1,0.4,0.2,0.5,0.3
		s0.3,0.3,0.3,0.5S109.5,209.4,109.5,209.6z M108.7,215.6V233h-1.7v-17.4H108.7z"/>
	<path class="st1" d="M126.3,218c-0.1,0.1-0.1,0.1-0.2,0.1c-0.1,0-0.1,0.1-0.2,0.1c-0.1,0-0.3-0.1-0.5-0.2c-0.2-0.2-0.5-0.3-0.8-0.5
		c-0.3-0.2-0.8-0.4-1.3-0.5s-1.1-0.2-1.8-0.2c-1,0-1.9,0.2-2.7,0.5c-0.8,0.4-1.4,0.9-2,1.5s-0.9,1.5-1.2,2.4c-0.3,0.9-0.4,2-0.4,3.2
		c0,1.2,0.1,2.3,0.4,3.3c0.3,0.9,0.7,1.7,1.2,2.4c0.5,0.6,1.2,1.1,1.9,1.5c0.7,0.3,1.6,0.5,2.5,0.5c0.8,0,1.5-0.1,2.1-0.3
		c0.6-0.2,1-0.4,1.4-0.6c0.4-0.2,0.7-0.4,0.9-0.6c0.2-0.2,0.4-0.3,0.5-0.3c0.2,0,0.3,0.1,0.4,0.2l0.5,0.6c-0.3,0.4-0.6,0.7-1,1
		s-0.9,0.6-1.4,0.8c-0.5,0.2-1.1,0.4-1.7,0.5c-0.6,0.1-1.2,0.2-1.9,0.2c-1.1,0-2.1-0.2-3-0.6c-0.9-0.4-1.7-1-2.4-1.8
		c-0.7-0.8-1.2-1.7-1.5-2.8s-0.6-2.4-0.6-3.8c0-1.3,0.2-2.5,0.5-3.6c0.4-1.1,0.9-2,1.5-2.8c0.7-0.8,1.5-1.4,2.5-1.8
		c1-0.4,2.1-0.7,3.4-0.7c1.1,0,2.1,0.2,3,0.5c0.9,0.4,1.6,0.9,2.3,1.5L126.3,218z"/>
	<path class="st1" d="M150.4,211.3c-0.1,0.2-0.3,0.3-0.5,0.3c-0.2,0-0.3-0.1-0.6-0.3s-0.6-0.5-1-0.7c-0.4-0.3-0.9-0.5-1.5-0.7
		s-1.4-0.3-2.3-0.3s-1.7,0.1-2.4,0.4s-1.3,0.6-1.7,1c-0.5,0.4-0.8,1-1.1,1.5c-0.2,0.6-0.4,1.2-0.4,1.8c0,0.8,0.2,1.5,0.5,2.1
		c0.4,0.5,0.8,1,1.4,1.4s1.2,0.7,2,1c0.7,0.3,1.5,0.5,2.3,0.8c0.8,0.3,1.5,0.5,2.3,0.8c0.7,0.3,1.4,0.7,2,1.2s1.1,1,1.4,1.7
		s0.5,1.5,0.5,2.5c0,1-0.2,2-0.5,2.9c-0.4,0.9-0.9,1.7-1.5,2.4s-1.5,1.2-2.5,1.6c-1,0.4-2.1,0.6-3.4,0.6c-1.6,0-3-0.3-4.2-0.9
		c-1.2-0.6-2.2-1.4-3.1-2.4l0.5-0.8c0.1-0.2,0.3-0.3,0.5-0.3c0.1,0,0.2,0.1,0.4,0.2c0.2,0.1,0.4,0.3,0.6,0.5
		c0.2,0.2,0.5,0.4,0.8,0.7s0.7,0.5,1.1,0.7s0.9,0.4,1.5,0.5c0.6,0.1,1.2,0.2,1.9,0.2c1,0,1.9-0.1,2.6-0.4c0.8-0.3,1.4-0.7,2-1.2
		c0.5-0.5,0.9-1.1,1.2-1.8c0.3-0.7,0.4-1.5,0.4-2.3c0-0.9-0.2-1.6-0.5-2.2c-0.4-0.6-0.8-1-1.4-1.4c-0.6-0.4-1.2-0.7-2-1
		c-0.7-0.3-1.5-0.5-2.3-0.8c-0.8-0.2-1.5-0.5-2.3-0.8c-0.7-0.3-1.4-0.7-2-1.2c-0.6-0.5-1.1-1.1-1.4-1.8s-0.5-1.6-0.5-2.7
		c0-0.8,0.2-1.6,0.5-2.4c0.3-0.8,0.8-1.4,1.4-2c0.6-0.6,1.4-1.1,2.3-1.4c0.9-0.4,1.9-0.5,3.1-0.5c1.3,0,2.4,0.2,3.5,0.6
		c1,0.4,2,1,2.8,1.9L150.4,211.3z"/>
	<path class="st1" d="M157.1,215.6v11.1c0,1.6,0.4,2.9,1.1,3.8s1.9,1.4,3.4,1.4c1.1,0,2.2-0.3,3.2-0.9c1-0.6,1.9-1.4,2.7-2.4v-13.1
		h1.7V233h-0.9c-0.3,0-0.5-0.2-0.5-0.5l-0.2-2.6c-0.8,1-1.7,1.8-2.8,2.4c-1.1,0.6-2.2,0.9-3.5,0.9c-1,0-1.8-0.2-2.5-0.5
		c-0.7-0.3-1.3-0.7-1.8-1.3c-0.5-0.6-0.8-1.3-1.1-2.1c-0.2-0.8-0.4-1.7-0.4-2.7v-11.1H157.1z"/>
	<path class="st1" d="M174.8,233v-17.4h0.9c0.2,0,0.3,0,0.4,0.1c0.1,0.1,0.1,0.2,0.1,0.4l0.1,3.7c0.6-1.4,1.3-2.5,2.2-3.3
		c0.9-0.8,2.1-1.2,3.4-1.2c0.5,0,1,0.1,1.5,0.2c0.4,0.1,0.9,0.3,1.3,0.5l-0.2,1.2c0,0.2-0.2,0.3-0.3,0.3c-0.1,0-0.2,0-0.3-0.1
		c-0.1,0-0.3-0.1-0.5-0.2c-0.2-0.1-0.4-0.1-0.7-0.2c-0.3,0-0.6-0.1-1-0.1c-1.3,0-2.4,0.4-3.2,1.2s-1.5,2-2.1,3.5V233H174.8z"/>
	<path class="st1" d="M195.1,233h-1.5l-7.3-17.4h1.3c0.2,0,0.3,0,0.4,0.1c0.1,0.1,0.2,0.2,0.2,0.3l5.7,13.7c0.1,0.3,0.2,0.5,0.3,0.8
		c0.1,0.2,0.1,0.5,0.2,0.7c0.1-0.2,0.1-0.5,0.2-0.7c0.1-0.2,0.1-0.5,0.3-0.8l5.8-13.7c0.1-0.1,0.1-0.2,0.2-0.3
		c0.1-0.1,0.2-0.1,0.4-0.1h1.3L195.1,233z"/>
	<path class="st1" d="M208.6,209.6c0,0.2,0,0.4-0.1,0.6c-0.1,0.2-0.2,0.3-0.3,0.5c-0.1,0.1-0.3,0.3-0.5,0.3
		c-0.2,0.1-0.4,0.1-0.6,0.1s-0.4,0-0.6-0.1c-0.2-0.1-0.4-0.2-0.5-0.3c-0.1-0.1-0.3-0.3-0.3-0.5c-0.1-0.2-0.1-0.4-0.1-0.6
		s0-0.4,0.1-0.6c0.1-0.2,0.2-0.4,0.3-0.5s0.3-0.3,0.5-0.3c0.2-0.1,0.4-0.1,0.6-0.1s0.4,0,0.6,0.1c0.2,0.1,0.4,0.2,0.5,0.3
		s0.3,0.3,0.3,0.5C208.6,209.2,208.6,209.4,208.6,209.6z M207.9,215.6V233h-1.7v-17.4H207.9z"/>
	<path class="st1" d="M220.5,233H219l-7.3-17.4h1.3c0.2,0,0.3,0,0.4,0.1c0.1,0.1,0.2,0.2,0.2,0.3l5.7,13.7c0.1,0.3,0.2,0.5,0.3,0.8
		c0.1,0.2,0.1,0.5,0.2,0.7c0.1-0.2,0.1-0.5,0.2-0.7c0.1-0.2,0.1-0.5,0.3-0.8L226,216c0.1-0.1,0.1-0.2,0.2-0.3
		c0.1-0.1,0.2-0.1,0.4-0.1h1.3L220.5,233z"/>
	<path class="st1" d="M242.2,233c-0.3,0-0.6-0.2-0.6-0.5l-0.2-2.2c-0.5,0.5-1,0.9-1.4,1.3c-0.5,0.4-1,0.7-1.5,0.9
		c-0.5,0.3-1.1,0.5-1.7,0.6c-0.6,0.1-1.2,0.2-2,0.2c-0.6,0-1.2-0.1-1.7-0.3c-0.6-0.2-1.1-0.4-1.5-0.8c-0.4-0.4-0.8-0.8-1-1.4
		c-0.3-0.6-0.4-1.2-0.4-2c0-0.7,0.2-1.4,0.6-2c0.4-0.6,1.1-1.2,2-1.6c0.9-0.5,2-0.8,3.4-1.1c1.4-0.3,3.1-0.4,5.1-0.5v-1.8
		c0-1.6-0.3-2.8-1-3.7s-1.7-1.3-3.1-1.3c-0.8,0-1.6,0.1-2.1,0.3s-1.1,0.5-1.5,0.8c-0.4,0.3-0.7,0.5-1,0.8c-0.3,0.2-0.5,0.4-0.6,0.4
		c-0.2,0-0.4-0.1-0.5-0.3l-0.3-0.5c0.9-0.9,1.9-1.6,2.9-2.1c1-0.5,2.1-0.7,3.4-0.7c0.9,0,1.8,0.1,2.5,0.4c0.7,0.3,1.3,0.7,1.7,1.3
		c0.5,0.6,0.8,1.2,1,2c0.2,0.8,0.3,1.7,0.3,2.6V233H242.2z M235.2,232.1c0.7,0,1.3-0.1,1.9-0.2c0.6-0.1,1.1-0.3,1.6-0.6
		c0.5-0.3,0.9-0.6,1.4-0.9c0.4-0.4,0.8-0.8,1.2-1.2v-4.5c-1.7,0-3.1,0.2-4.3,0.4s-2.2,0.5-3,0.8c-0.8,0.3-1.3,0.8-1.7,1.3
		c-0.4,0.5-0.6,1-0.6,1.7c0,0.6,0.1,1.1,0.3,1.5s0.4,0.8,0.8,1c0.3,0.3,0.7,0.5,1.1,0.6C234.3,232,234.7,232.1,235.2,232.1z"/>
	<path class="st1" d="M250.3,207.6V233h-1.7v-25.5H250.3z"/>
	<path class="st1" d="M284.9,220.6c0,1.9-0.3,3.6-0.9,5.2c-0.6,1.5-1.4,2.8-2.4,3.9c-1,1.1-2.3,1.9-3.7,2.5
		c-1.4,0.6-3.1,0.9-4.8,0.9h-9v-24.8h9c1.8,0,3.4,0.3,4.8,0.9c1.4,0.6,2.7,1.4,3.7,2.5c1,1.1,1.8,2.4,2.4,3.9
		C284.6,217,284.9,218.7,284.9,220.6z M283,220.6c0-1.7-0.2-3.3-0.7-4.6c-0.5-1.4-1.2-2.5-2-3.4c-0.9-0.9-1.9-1.6-3.1-2.1
		c-1.2-0.5-2.6-0.7-4.1-0.7h-7.2v21.9h7.2c1.5,0,2.9-0.2,4.1-0.7c1.2-0.5,2.3-1.2,3.1-2.1s1.5-2.1,2-3.4
		C282.8,223.9,283,222.4,283,220.6z"/>
	<path class="st1" d="M300.9,233c-0.3,0-0.6-0.2-0.6-0.5l-0.2-2.2c-0.5,0.5-1,0.9-1.4,1.3c-0.5,0.4-1,0.7-1.5,0.9
		c-0.5,0.3-1.1,0.5-1.7,0.6c-0.6,0.1-1.2,0.2-2,0.2c-0.6,0-1.2-0.1-1.7-0.3c-0.6-0.2-1.1-0.4-1.5-0.8c-0.4-0.4-0.8-0.8-1-1.4
		c-0.3-0.6-0.4-1.2-0.4-2c0-0.7,0.2-1.4,0.6-2c0.4-0.6,1.1-1.2,2-1.6c0.9-0.5,2-0.8,3.4-1.1c1.4-0.3,3.1-0.4,5.1-0.5v-1.8
		c0-1.6-0.3-2.8-1-3.7s-1.7-1.3-3.1-1.3c-0.8,0-1.6,0.1-2.1,0.3s-1.1,0.5-1.5,0.8c-0.4,0.3-0.7,0.5-1,0.8c-0.3,0.2-0.5,0.4-0.6,0.4
		c-0.2,0-0.4-0.1-0.5-0.3l-0.3-0.5c0.9-0.9,1.9-1.6,2.9-2.1c1-0.5,2.1-0.7,3.4-0.7c0.9,0,1.8,0.1,2.5,0.4c0.7,0.3,1.3,0.7,1.7,1.3
		c0.5,0.6,0.8,1.2,1,2c0.2,0.8,0.3,1.7,0.3,2.6V233H300.9z M293.9,232.1c0.7,0,1.3-0.1,1.9-0.2c0.6-0.1,1.1-0.3,1.6-0.6
		c0.5-0.3,0.9-0.6,1.4-0.9c0.4-0.4,0.8-0.8,1.2-1.2v-4.5c-1.7,0-3.1,0.2-4.3,0.4s-2.2,0.5-3,0.8c-0.8,0.3-1.3,0.8-1.7,1.3
		c-0.4,0.5-0.6,1-0.6,1.7c0,0.6,0.1,1.1,0.3,1.5s0.4,0.8,0.8,1c0.3,0.3,0.7,0.5,1.1,0.6C293,232,293.4,232.1,293.9,232.1z"/>
	<path class="st1" d="M311.5,233.3c-1.2,0-2.1-0.3-2.7-1s-1-1.7-1-3v-11.9h-2.5c-0.1,0-0.2,0-0.3-0.1c-0.1-0.1-0.1-0.2-0.1-0.3v-0.6
		l3-0.2l0.4-6.2c0-0.1,0.1-0.2,0.1-0.3c0.1-0.1,0.2-0.1,0.3-0.1h0.8v6.6h5.5v1.2h-5.5v11.8c0,0.5,0.1,0.9,0.2,1.2s0.3,0.6,0.5,0.8
		c0.2,0.2,0.5,0.4,0.8,0.5c0.3,0.1,0.6,0.2,0.9,0.2c0.4,0,0.8-0.1,1.1-0.2c0.3-0.1,0.6-0.3,0.8-0.4c0.2-0.1,0.4-0.3,0.5-0.4
		c0.1-0.1,0.3-0.2,0.3-0.2c0.1,0,0.2,0.1,0.3,0.2l0.5,0.7c-0.4,0.5-1,0.9-1.7,1.2C313,233.2,312.3,233.3,311.5,233.3z"/>
	<path class="st1" d="M330.4,233c-0.3,0-0.6-0.2-0.6-0.5l-0.2-2.2c-0.5,0.5-1,0.9-1.4,1.3c-0.5,0.4-1,0.7-1.5,0.9
		c-0.5,0.3-1.1,0.5-1.7,0.6c-0.6,0.1-1.2,0.2-2,0.2c-0.6,0-1.2-0.1-1.7-0.3c-0.6-0.2-1.1-0.4-1.5-0.8c-0.4-0.4-0.8-0.8-1-1.4
		c-0.3-0.6-0.4-1.2-0.4-2c0-0.7,0.2-1.4,0.6-2c0.4-0.6,1.1-1.2,2-1.6c0.9-0.5,2-0.8,3.4-1.1c1.4-0.3,3.1-0.4,5.1-0.5v-1.8
		c0-1.6-0.3-2.8-1-3.7s-1.7-1.3-3.1-1.3c-0.8,0-1.6,0.1-2.1,0.3s-1.1,0.5-1.5,0.8c-0.4,0.3-0.7,0.5-1,0.8c-0.3,0.2-0.5,0.4-0.6,0.4
		c-0.2,0-0.4-0.1-0.5-0.3l-0.3-0.5c0.9-0.9,1.9-1.6,2.9-2.1c1-0.5,2.1-0.7,3.4-0.7c0.9,0,1.8,0.1,2.5,0.4c0.7,0.3,1.3,0.7,1.7,1.3
		c0.5,0.6,0.8,1.2,1,2c0.2,0.8,0.3,1.7,0.3,2.6V233H330.4z M323.4,232.1c0.7,0,1.3-0.1,1.9-0.2c0.6-0.1,1.1-0.3,1.6-0.6
		c0.5-0.3,0.9-0.6,1.4-0.9c0.4-0.4,0.8-0.8,1.2-1.2v-4.5c-1.7,0-3.1,0.2-4.3,0.4s-2.2,0.5-3,0.8c-0.8,0.3-1.3,0.8-1.7,1.3
		c-0.4,0.5-0.6,1-0.6,1.7c0,0.6,0.1,1.1,0.3,1.5s0.4,0.8,0.8,1c0.3,0.3,0.7,0.5,1.1,0.6C322.5,232,322.9,232.1,323.4,232.1z"/>
</g>
</svg>
