<?xml version="1.0" encoding="utf-8"?>
<!-- Generator: Adobe Illustrator 22.0.0, SVG Export Plug-In . SVG Version: 6.00 Build 0)  -->
<svg version="1.1" id="Layer_1" xmlns="http://www.w3.org/2000/svg" xmlns:xlink="http://www.w3.org/1999/xlink" x="0px" y="0px"
	 viewBox="0 0 360 260" style="enable-background:new 0 0 360 260;" xml:space="preserve">
<style type="text/css">
	.st0{fill:#ECF0F1;}
	.st1{fill:#34495E;}
	.st2{font-family:'Lato-Light';}
	.st3{font-size:30px;}
	.st4{fill:none;stroke:#34495E;stroke-width:5;stroke-miterlimit:10;}
</style>
<rect class="st0" width="360" height="260"/>
<title>Titanic Survival Data</title>
<text transform="matrix(1 0 0 1 42.5281 233.0362)" class="st1 st2 st3">Trump’s College Days</text>
<g>
	<g>
		<g id="layer1_9_" transform="translate(1398.1856,-459.47468)" >
			<path id="path4190_9_" class="st4" d="
				M-1290.1,645c-2.2-9.6,14.8-69.6,32.2-77.4l-0.7-0.9c4.6-3.4,7.5-5.8,11.4-10l1.8,0.5l0.9-2c-1,0.3-2.1,0.6-4.1,1.1
				c-1.6-16.5,0.7-17,2.3-27.8c1.4-9.2,2.4-16.8,5.2-22.9c9.3-20.4,27.3-25.3,45.9-22.6c17.3,2.5,28.5,10.7,44.8,24.5
				c-4.6-0.7-9.2-1.5-15.2-0.5c0.4,2,1,4.3,2.4,8.8c2.1,0.7,3,1.9,1.6,3.9c-0.6,0.9-1.1,1.9-1.4,2.5c-0.8,1.5-0.4,3.1,0.8,5.2
				c2.3,4.2,5,9.1,6.3,12.5c1,2.5,0.9,4.8-2.5,5.4c-1.9,0.3-3.8-0.1-4.7,1c2,0.8,2.7,2.5,3.4,4.2c1.2,0.5,2,2.2,0.9,2.9
				c-1.2,0.7-2.2,2.7-4.2,3.7c1.1,0.8,3.3,3.3,0.4,6.1c-0.6,0.1-1.3,0-1.9-0.2c-0.6,0-1.1,1.2-0.3,2.5c1.6,3,2.1,5.8,0.7,7.9
				c-0.9,1.4-3.7,3.9-5.8,3.1c-2.6,3-6.6,3.1-10.5,3.2c-5.7,1.6-12.3,5.7-16.4,6.1c0,0,0.1,1.2,0.4,1.1c5.1-1.2,45.1,57,41.6,58
				L-1290.1,645z"/>
		</g>
	</g>
</g>
</svg>
