<svg id="Layer_1" data-name="Layer 1" xmlns="http://www.w3.org/2000/svg" viewBox="0 0 1097.81 681.62"><defs><style>.cls-1,.cls-8{fill:#1989b6;}.cls-1,.cls-2,.cls-3{stroke:#fff;stroke-miterlimit:10;}.cls-2,.cls-6{fill:#84a982;}.cls-3,.cls-7{fill:#e2856a;}.cls-4{font-size:48px;font-family:Roboto-Thin, Roboto;}.cls-5{font-size:30px;fill:#c7164c;}.cls-5,.cls-6,.cls-7,.cls-8{font-family:Roboto-Regular, Roboto;}.cls-6,.cls-7,.cls-8{font-size:24px;}</style></defs><title>media usage</title><path class="cls-1" d="M798.56,654.67a45.19,45.19,0,0,1,59-12.29c30.12,17.39,30.12,60.87,0,78.26s-67.77-4.35-67.77-39.13H835Z" transform="translate(-69.51 -45.63)"/><circle class="cls-2" cx="319.52" cy="214.79" r="45.18"/><circle class="cls-2" cx="319.52" cy="355.15" r="45.18"/><circle class="cls-2" cx="319.52" cy="495.51" r="45.18"/><circle class="cls-3" cx="319.52" cy="635.88" r="45.18"/><circle class="cls-2" cx="468.16" cy="214.79" r="45.18"/><circle class="cls-2" cx="468.16" cy="355.15" r="45.18"/><path class="cls-3" d="M530.66,504c20.59-15.28,51.92-10.69,66,13.78,17.39,30.12-4.35,67.77-39.13,67.77V540.4Z" transform="translate(-69.51 -45.63)"/><path class="cls-2" d="M549.25,585.79c-34.78,0-56.52-37.65-39.13-67.77a45.13,45.13,0,0,1,12.53-14l26.6,36.61Z" transform="translate(-69.51 -45.63)"/><circle class="cls-3" cx="468.16" cy="635.88" r="45.18"/><circle class="cls-2" cx="616.81" cy="214.79" r="45.18"/><circle class="cls-2" cx="616.81" cy="355.15" r="45.18"/><circle class="cls-3" cx="616.81" cy="495.51" r="45.18"/><circle class="cls-3" cx="616.81" cy="635.88" r="45.18"/><circle class="cls-2" cx="765.46" cy="214.79" r="45.18"/><circle class="cls-2" cx="765.46" cy="355.15" r="45.18"/><circle class="cls-3" cx="765.46" cy="495.51" r="45.18"/><path class="cls-3" d="M765,673.8a44.62,44.62,0,0,1,8.58-26.59l36.6,26.59Z" transform="translate(-69.51 -45.63)"/><text class="cls-4" transform="translate(0 41.06)">media usage</text><text class="cls-5" transform="translate(2.49 76.23)">week of sept 18 - 24</text><text class="cls-6" transform="translate(866.21 24.64)">58.7% computer</text><text class="cls-7" transform="translate(866.21 68.08)">35.6% phone</text><text class="cls-8" transform="translate(866.21 111.52)">5.7% book</text></svg>