<?xml version="1.0" encoding="utf-8"?>
<!-- Generator: Adobe Illustrator 21.1.0, SVG Export Plug-In . SVG Version: 6.00 Build 0)  -->
<svg version="1.1" id="Layer_1" xmlns="http://www.w3.org/2000/svg" xmlns:xlink="http://www.w3.org/1999/xlink" x="0px" y="0px"
	 viewBox="0 0 712.4 562.4" style="enable-background:new 0 0 712.4 562.4;" xml:space="preserve">
<style type="text/css">
	.st0{fill:none;stroke:#34495E;stroke-miterlimit:10;}
	.st1{fill:none;stroke:#34495E;stroke-width:0.5;stroke-miterlimit:10;}
</style>
<title>me</title>
<polygon class="st0" points="226,338.1 227.7,344.1 226.9,346.7 225.2,349.3 221.7,351 218.3,351.9 213.1,352.7 208,352.7 
	204.5,351 201.1,345.9 197.7,340.7 195.9,336.4 194.2,330.4 194.2,328.7 190.8,325.2 189.1,321 185.6,315.8 182.2,308.9 
	178.8,301.2 177.1,296.9 175.3,292.6 169.3,284.9 168.5,281.4 165,276.3 164.2,268.5 164.2,260.8 165.9,251.4 167.6,246.2 
	171.9,242.8 181.4,242.8 188.2,245.4 193.4,247.9 184.8,234.2 173.6,203.2 172.8,191.2 166.7,178.3 164.2,165.4 161.6,149.1 
	157.3,135.4 157.3,124.2 157.3,106.2 171,82.1 183.9,61.5 201.1,45.2 221.7,24.6 250.9,13.4 272.4,4.8 287.9,0.5 311.1,0.5 
	341.1,3.9 365.2,9.9 388.4,21.1 411.6,32.3 427.9,46 440.8,61.5 446,77 454.5,98.4 463.1,123.4 469.1,135.4 471.7,147.4 
	471.7,156.9 471.7,164.6 470,174 470,183.5 471.7,188.6 470,190.4 471.7,191.2 474.3,192.1 476,195.5 476,199.8 475.2,202.4 
	475.2,205 475.2,207.6 476,210.1 475.2,213.6 475.2,215.3 475.2,220.4 474.3,223 471.7,221.3 470,219.6 471.7,225.6 472.6,229.9 
	473.5,234.2 474.3,241.1 475.2,246.2 475.2,251.4 475.2,255.7 476,258.2 476,260.8 476,263.4 476,266 476,269.4 476.9,273.7 
	476.9,280.6 476.9,285.7 477.7,290 477.7,296 476.9,301.2 476,309.8 475.2,314.1 474.3,321.8 473.5,331.3 472.6,341.6 470.9,352.7 
	470,360.5 467.4,372.5 462.3,394 457.1,405.1 452,418 448.5,429.2 444.2,439.5 437.4,451.5 431.4,463.6 421,472.2 409.9,476.5 
	384.1,481.6 366.9,481.6 353.2,476.5 340.3,471.3 324.8,459.3 310.2,447.2 299,434.4 281.9,423.2 275.9,415.5 266.4,406.9 
	260.4,398.3 253.5,388.8 244.1,378.5 237.2,365.6 231.2,353.6 "/>
<polygon class="st0" points="168.5,273.7 167.6,266.8 167.6,261.7 168.5,256.5 170.2,254.8 173.6,253.1 177.1,253.1 181.4,254.8 
	181.4,259.1 180.5,263.4 180.5,268.5 179.6,275.4 180.5,278.9 180.5,284.9 180.5,292.6 181.4,298.6 183.1,304.6 186.5,308.9 
	189.9,310.6 194.2,312.4 195.9,314.1 197.7,317.5 198.5,321.8 198.5,324.4 196.8,324.4 195.1,322.7 194.2,320.1 192.5,318.4 
	190.8,316.7 188.2,314.1 186.5,312.4 183.4,311.3 175.3,292.6 173.6,287.5 172.8,284.9 171,280.6 168.5,276.3 "/>
<polygon class="st0" points="209.3,287 209.3,288.7 207.6,291.3 207.6,293.9 206.7,295.6 205.8,299 205.8,301.6 205.8,305.1 
	207.6,308.5 209.3,311.9 211,313.6 212.7,315.4 214.4,317.1 215.3,319.7 214.4,321.4 211.8,321.4 208.4,319.7 205.8,317.1 
	203.2,314.5 201.5,311.9 199.8,309.4 198.1,306.8 193.8,305.9 190.4,305.9 188.6,304.2 188.6,300.8 186.9,295.6 186.1,288.7 
	186.1,285.3 186.1,279.3 191.2,277.6 196.4,275.9 198.1,275.9 200.7,275 203.2,278.4 205.8,281.9 "/>
<polyline class="st0" points="180.9,255.2 182.6,257 186.1,259.5 191.2,263.8 194.7,266.4 198.1,270.7 200.7,275 "/>
<polyline class="st0" points="189.1,241.1 191.7,241.1 194.2,241.9 195.9,243.6 198.5,245.4 201.1,245.4 201.1,248.8 201.1,250.5 
	203.7,252.2 204.5,253.9 207.1,258.2 209.7,261.7 209.7,263.4 211.4,266.8 213.1,270.3 214,272.8 215.7,275.4 216.6,278 
	217.4,280.6 219.1,284 221.7,287.5 223.4,290 226.9,290.9 229.5,290.9 230.3,289.2 229.5,286.6 228.6,284.9 228.6,282.3 
	229.5,280.6 230.3,278 228.6,275.4 228.6,271.1 228.6,268.5 226.9,262.5 226.9,260 226.9,257.4 226.9,253.1 226.9,250.5 
	226.9,247.1 226.9,244.5 225.2,242.8 224.3,241.1 224.3,237.6 224.3,235 225.2,232.5 226,229 228.6,229.9 231.2,230.8 234.6,232.5 
	238.1,234.2 240.6,235 240.6,227.3 238.9,220.4 240.6,215.3 240.6,209.3 237.2,205.8 237.2,199.8 238.9,196.4 242.3,192.9 
	240.6,190.4 235.5,186.9 232.9,186.9 231.2,183.5 232.9,175.8 231.2,171.5 226,168.9 225.2,165.4 226,161.2 226.9,154.3 
	229.5,151.7 232.9,149.1 237.2,149.1 240.6,149.1 244.9,146.6 250.9,144.8 251.8,151.7 261.2,150 261.2,153.4 261.2,160.3 
	265.5,156.9 269,153.4 270.7,157.7 275.9,151.7 279.3,150.9 283.6,150.9 287,155.1 287,162 284.4,166.3 284.4,172.3 287,170.6 
	291.3,171.5 293,165.4 296.5,156.9 299,152.6 300.8,156.9 300.8,162 302.5,166.3 304.2,173.2 310.2,169.8 312.8,164.6 317.1,169.8 
	324,173.2 330,175.8 333.4,175.8 331.7,169.8 330.8,166.3 335.1,165.4 340.3,164.6 342.9,174.9 346.3,173.2 344.6,168 344.6,163.7 
	348,163.7 351.5,167.2 354.9,168.9 352.3,162 352.3,156.9 358.3,162 360.9,165.4 366.1,165.4 370.4,163.7 378.1,163.7 382.4,162 
	389.2,160.3 395.3,159.4 401.3,156 390.1,150 401.3,150 409,148.3 417.6,141.4 403.9,136.2 393.5,132.8 392.7,125.9 409.9,125.9 
	421,121.6 427.9,115.6 434.8,124.2 439.9,122.5 439.9,127.7 447.7,125.9 450.2,130.2 450.2,136.2 456.3,140.5 456.3,149.1 
	459.7,155.1 459.7,164.6 463.1,177.5 463.1,186.1 465.7,192.9 465.7,199.8 467.4,203.2 467.4,211.8 469.1,213.6 470,217.9 
	470,219.6 "/>
<polygon class="st0" points="271.5,267.7 275,264.2 278.4,262.5 287,260 293.9,257.4 300.8,256.5 307.6,254.8 313.6,253.1 
	319.7,253.1 325.7,254.8 333.4,256.5 340.3,258.2 345.4,259.1 351.5,259.1 355.8,260 359.2,260.8 360,265.1 360.9,267.7 
	360.9,271.1 359.2,272.8 355.8,271.1 350.6,270.3 346.3,268.5 342,267.7 337.7,267.7 330.8,267.7 325.7,267.7 319.7,266.8 
	313.6,269.4 307.6,271.1 300.8,270.3 293,270.3 286.2,272 278.4,272.8 274.1,272 "/>
<polygon class="st0" points="405.6,256.5 409,250.5 415.9,245.4 423.6,241.1 430.5,237.6 436.5,233.3 442.5,228.2 448.5,225.6 
	454.5,225.6 460.6,223 464.9,223 468.3,223 468.3,228.2 465.7,233.3 461.4,236.8 455.4,236.8 449.4,240.2 443.4,240.2 439.1,241.1 
	432.2,245.4 425.3,248.8 418.5,253.1 413.3,256.5 409.9,258.2 "/>
<path class="st0" d="M288.3,285.3"/>
<polygon class="st0" points="285.7,284.4 288.3,282.7 293.5,281.9 298.6,279.3 303.8,278.4 308.1,277.6 313.2,275.9 317.5,274.1 
	321,272.4 323.5,272.4 327.8,270.7 332.1,270.7 337.3,270.7 340.7,270.7 345,271.5 346.7,272.4 348.5,274.1 350.2,276.7 
	351.9,278.4 350.2,282.7 348.5,286.2 346.7,287.9 345,289.6 341.6,291.3 339,292.2 335.6,293.9 332.1,294.8 328.7,295.6 
	324.4,296.5 320.1,296.5 315.8,297.3 311.5,297.3 308.9,297.3 304.6,296.5 302,296.5 300.3,294.8 297.8,293 295.2,290.5 
	292.6,288.7 291.7,287.9 287.5,287.9 "/>
<polygon class="st0" points="309.8,287 313.2,288.7 315.8,289.6 319.2,289.6 322.7,288.7 326.1,288.7 328.7,288.7 332.1,287 
	333.8,286.2 336.4,285.3 339,283.6 340.7,281.9 343.3,281.9 345.9,281 348.5,281 349.3,279.3 348.5,277.6 346.7,275 345,273.3 
	344.1,273.3 340.7,271.5 338.1,271.5 335.6,271.5 332.1,271.5 328.7,271.5 325.2,273.3 321.8,273.3 320.1,275 317.5,275 
	314.9,276.7 311.5,277.6 308.1,278.4 305.5,279.3 302,281 297.8,281 294.6,281.3 293.5,282.7 294.3,285.3 295.2,288.7 296.9,288.7 
	299.5,288.7 302.9,288.7 305.5,287 307.2,287 "/>
<path class="st0" d="M298.8,282.9c-0.1,0.6,0,1.2,0.3,1.7l1.4,3.4c0.3-1.6,0.4-3.3,0.3-4.9c-0.1,0.4,0.2,0.8,0.4,1.1
	c0.6,0.7,1.1,1.5,1.6,2.3c0.1,0,0.2-0.1,0.2-0.2c0.2-1.5,0.8-2.6,0.2-4.1c0.4,2.1,1.4,4.1,2.8,5.8c0.2-2.1,0.1-4.2-0.1-6.3
	c0,1.3,0.7,2.4,1.8,2.9c0.2-2,0.2-4,0.1-6.1c0.7,1.6,1.5,3.1,2.4,4.6l0.1-3.7c1,1,1.8,2,2.5,3.2V278c0.6,1.1,1.3,2.1,2.1,3.1
	l0.6-2.8l1.7,3.6c0.4-0.8,0.6-1.6,0.6-2.5c-0.1-0.9,0.3-1.7,1-2.3c0,1.7,0.9,3.2,2.4,4.1c0.1-1.7,0.3-3.3,0.7-4.9
	c0.3,0.6,0.5,1.2,0.7,1.9c0.3,0.6,0.9,1.2,1.5,1c0.1-1.1,0.1-2.2,0-3.3"/>
<polyline class="st0" points="328.7,287.9 327.8,287 327,286.2 326.1,285.3 326.1,284.4 325.2,282.7 326.1,280.1 326.1,278.4 
	326.1,276.7 327,274.1 327,272.8 328.7,271.5 340.7,271.5 341.6,273.3 342.4,274.1 341.6,275.9 341.6,277.6 341.6,279.3 
	340.7,280.1 340.7,281.9 "/>
<polygon class="st0" points="332.1,281.9 331.3,280.1 329.5,278.4 329.5,276.7 328.7,275 329.5,273.3 333,273.3 334.7,273.3 
	335.6,274.1 335.6,275.9 336.4,277.6 335.6,281 "/>
<polygon class="st0" points="333,274.1 334.7,274.1 335.6,275.9 334.7,276.7 333.8,276.7 333,275.9 "/>
<polygon class="st0" points="401.7,267.3 410.3,257.8 428.2,247.4 440.4,244.9 449.8,244.9 455,244.9 455,248.4 457.6,250.1 
	460.1,252.6 460.1,256.1 456.7,256.1 454.1,256.1 451.5,256.1 449.8,260.4 447.2,264.7 442.1,267.3 436.9,270.7 432.6,272.4 
	426.6,273.3 420.6,273.3 412.9,272.4 406,271.5 "/>
<polygon class="st0" points="412,264.7 418,267.3 429.2,267.3 435.2,265.5 446.4,260.4 451.5,256.1 457.6,252.6 455,248.4 
	445.5,248.4 440.4,248.4 428.4,251.8 424,252.6 418,257.8 413.7,258.7 "/>
<polygon class="st0" points="432.9,250.5 432.6,252.6 432.6,257.8 432.6,263 435.2,264.7 440.4,263 443,261.2 446.4,260.4 
	446.4,252.6 442,251 439.5,250.1 "/>
<polygon class="st0" points="442.1,254.4 442.1,250.9 436.1,250.3 434.1,250.4 432.6,251.6 432.6,253.8 434.4,256.1 436.9,257 
	438.6,256.1 440.4,255.2 "/>
<polygon class="st0" points="436.9,251.8 436.9,252.6 437.8,254.4 439.5,254.4 440.4,253.5 440.4,252.6 439.5,251.8 "/>
<path class="st0" d="M417.4,258.8c0.4,0.9,0.8,1.8,1.3,2.7c-0.1-1.1-0.1-2.2,0-3.2c0-0.2,0.1-0.4,0.2-0.5c0.2,0,0.3,0,0.5,0.2
	c0.5,0.5,0.9,1,1.2,1.7h0.6c0-0.8,0.2-1.6,0.4-2.3c0.1,0.2,0,0.4-0.1,0.6c0.8-1,1.4-2.2,1.5-3.5l2.5,3.4c-0.1-0.9,0-1.8,0.1-2.7
	c0.2,0.7,0.6,1.2,1.2,1.7c0.1,0.2,0.4,0.2,0.5,0.1c0,0,0.1,0,0.1-0.1c1.5-1.4,1.5-3.7,1.4-5.7l1.7,4.9c-0.2-1.5,0-3.1,0.7-4.5
	c0.3,0.8,0.8,1.5,1.4,2"/>
<path class="st0" d="M439.7,248.9c0.6,0.1,1.2,0.4,1.7,0.8c0.1-0.2,0.1-0.4,0-0.6c0.1,1.1,0.4,2.2,0.9,3.1c-0.1-0.5,0.4-1,0.9-1
	c0.5,0.1,1,0.3,1.3,0.8l-0.1-0.4c-0.8-0.4-1.3-1.1-1.5-2c0.2,0.6,0.6,1,1.1,1.4l2.5,2c-0.6-1.6-1.4-3.2-2.2-4.8
	c0.5,2,2.3,3.3,4.1,4.4c-0.3-1.3-0.8-2.5-1.3-3.7c0.5,1,1.2,1.9,2.1,2.6c0-0.6-0.1-1.3-0.3-1.9c0.7,0.8,1.5,1.5,2.4,2.1l-1-2.2
	c0.3,0.8,1,1.3,1.8,1.5l-0.2-2.1"/>
<polyline class="st0" points="359.6,272.4 369.1,280.1 374.2,285.3 374.2,295.6 372.5,302.5 371.6,307.6 369.1,313.6 366.5,318.8 
	364.8,324 363.9,329.1 363.9,336 363.9,341.1 361.3,343.7 357,345.4 355.3,350.6 355.3,356.6 355.3,361.8 361.3,365.2 364.8,366.9 
	369.9,366.9 374.2,366.9 381.1,366.9 388,369.5 394,372.9 399.1,374.6 406,374.6 410.3,374.6 415.5,372.1 418.9,367.8 421.5,363.5 
	424.9,360.9 427.5,358.3 430.9,355.8 435.2,352.3 435.2,348 432.6,343.7 432.6,340.3 430.9,336.9 428.4,334.3 424.9,332.5 
	419.8,329.1 417.2,326.5 414.6,323.1 412,318.8 410.3,314.5 409.4,310.2 408.6,305.1 406,299.9 406,294.8 403.4,290.5 401.7,283.6 
	400,280.1 399.1,275.9 400,272.4 401.7,267.3 401.7,263 406,256.1 "/>
<polyline class="st0" points="342.4,403.9 349.3,400.4 355.3,400.4 360.5,400.4 363.9,400.4 367.4,400.4 373.4,400.4 378.5,398.7 
	386.2,397 390.5,397 394.8,397 400.9,397 406,394.4 410.3,394.4 414.6,391.8 421.5,390.1 426.6,388.4 431.8,388.4 435.2,390.1 "/>
<polygon class="st0" points="345.9,405.6 351.9,407.3 357,409.9 361.3,411.6 368.2,415 373.4,416.8 380.2,419.3 388,421 394,421 
	400,421 403.4,419.3 408.6,416.8 412,413.3 414.6,409.9 418,407.3 421.5,403.9 424.9,399.6 427.5,396.1 430.1,392.7 427.5,391 
	421.5,394.4 418.9,396.1 416.3,398.7 413.7,401.3 412.9,403.9 410.3,405.6 406.9,405.6 402.6,409 399.1,409.9 390.5,411.6 
	386.2,411.6 381.1,411.6 377.7,411.6 373.4,410.7 369.1,409 365.6,405.6 362.2,405.6 357,405.6 351.9,403.9 "/>
<polyline class="st0" points="365.6,406.4 369.9,405.6 374.2,404.7 378.5,404.7 382.8,404.7 386.2,404.7 388.8,403.9 392.3,403.9 
	395.7,403.9 399.1,403 401.7,402.1 405.1,401.3 408.6,399.6 411.2,398.7 414.6,397.9 416.3,398.7 "/>
<polyline class="st1" points="332.1,488.9 338.1,493.2 343.3,495.8 346.7,498.4 347.6,502.7 349.3,506.1 354.5,507 358.8,507 
	364.8,506.1 368.2,502.7 371.6,499.2 376.8,494.1 "/>
<polyline class="st0" points="243.6,382.4 241.9,391 239.3,397.9 239.3,409 239.3,418.5 239.3,426.2 239.3,434.8 241.9,447.7 
	243.6,461.4 246.2,474.3 246.2,486.3 248.8,494.9 251.4,506.1 253.1,518.1 259.1,519.8 268.5,522.4 275.4,526.7 278,531 
	281.4,535.3 288.3,541.3 292.6,549 297.8,554.2 301.2,561.9 381.1,561.9 385.4,554.2 388.8,547.3 395.7,537.9 400,532.7 
	402.6,528.4 406,525 410.3,522.4 412.9,517.3 421.5,521.6 432.6,501.8 440.4,488.9 451.5,468.3 457.6,450.2 463.6,433.9 
	463.6,417.6 468.7,406.4 468.7,394.4 468.7,382.4 468.7,372.1 "/>
<path class="st0" d="M239.3,418.5l12.8-2.6L239.3,418.5z"/>
<path class="st0" d="M239.3,434.8"/>
<polyline class="st0" points="413.7,517.3 413.7,503.5 425.8,503.5 430.5,505.7 "/>
<polyline class="st0" points="413.7,503.5 428.4,471.7 442.1,472.6 446.4,474.3 "/>
<polyline class="st0" points="463.6,427.9 448.1,428.8 450.8,421.9 463.6,424 463.6,417.6 464.5,415.6 454.1,414.2 457.5,404.3 
	468.7,406.4 468.7,394.4 462.7,392.1 "/>
<polyline class="st0" points="195.5,336 188.6,349.7 182.6,364.3 176.6,379.8 171.5,391.8 167.2,402.1 163.7,411.6 160.3,421.9 
	158.6,432.2 155.1,448.5 151.7,459.7 147.4,475.2 144.8,488 144,496.6 143.1,507 144,519 153.4,525 180.1,525 204.1,528.4 
	221.3,528.4 234.2,528.4 248.8,523.3 252.2,518.1 252.2,506.1 246.2,486.3 243.6,452 239.3,439.1 239.3,422.3 242.8,421 
	244.5,418.5 247.9,420.2 253.4,420.4 255.8,428.7 249.6,428.8 246.2,428.8 241.1,431.4 239.3,433.2 240.4,440.3 250.5,439.9 
	261,441.7 266.5,454.7 260.8,453.7 257.4,451.1 253.1,450.2 247.9,449.4 242.5,452.2 246.2,486.3 254.8,481.2 261.7,481.2 
	271.1,483.8 275.4,504.4 260.8,511.2 254.8,514.7 252.2,518.1 268.5,522.4 271.1,515.5 275.4,510.4 278.9,511.2 287.5,516.4 
	296.9,525.9 299.5,529.3 299.5,539.6 302,560.2 302,561.9 307.8,561.9 306.4,533.6 311.5,533.6 314.9,543 314.9,552.5 323.5,553.3 
	332.1,552.5 339,552.5 345,552.5 349.3,555.9 351.9,561.1 360.5,547.3 371.6,547.3 381.1,543 388.8,537.9 392.3,537 393.2,541.3 "/>
<polyline class="st0" points="239.3,421.9 239.3,402.1 243.6,382.4 246.2,386.7 247.9,392.7 247.9,397.9 248.8,403.9 252.2,409.9 
	252.2,415.9 254.8,426.2 258.2,434.8 260,439.1 261.7,443.4 272,458 275.4,464.9 281.4,470 287.5,473.5 290,478.6 298.6,490.6 
	306.4,498.4 315.8,503.5 325.2,510.4 333,515.5 342.4,519 351.9,522.4 362.2,522.4 371.6,518.1 380.2,511.2 390.5,502.7 400,492.4 
	413.7,481.2 421.5,471.7 413.7,481.2 409.4,494.1 404.3,502.7 399.1,511.2 392.3,517.3 386.2,522.4 380.2,528.4 371.6,534.5 
	365.6,540.5 360.5,547.3 355.3,547.3 345.9,543.9 340.7,540.5 332.1,535.3 328.7,530.2 325.2,525 317.5,522.4 311.5,516.4 
	306.4,512.1 298.6,505.2 296.9,502.7 293.5,502.7 291.7,499.2 290,495.8 286.6,491.5 281.4,482 277.1,474.3 269.4,460.6 265.1,452 
	264,446.7 "/>
<polyline class="st0" points="424,529.3 442.1,536.2 468.7,536.2 487.6,540.5 516,540.5 535.7,540.5 548.6,547.3 558.9,543.9 
	558.9,529.3 563.2,510.4 563.2,493.2 563.2,481.2 563.2,464.9 559.8,448.5 556.3,421.9 556.3,399.6 552.1,374.6 547.8,351.5 
	539.2,336 529.7,321.4 515.1,305.1 499.6,290.5 486.8,283.6 478.2,280.1 "/>
<polyline class="st0" points="179.6,372.1 157.7,378.1 143.1,388.4 121.6,396.1 107.9,403.9 92.4,410.7 78.7,416.8 64.9,423.6 
	56.3,433.9 46,437.4 39.2,445.1 30.6,456.3 22.8,464.9 13.4,481.2 9.1,488.9 4.8,503.5 0.5,517.3 0.5,533.6 0.5,547.3 0.5,561.9 
	711.9,561.9 711.9,497.5 698.1,488.9 686.1,481.2 675.8,471.7 663.8,461.4 650.9,448.5 640.5,439.1 632,428.8 620.8,418.5 
	607.9,410.7 595,403.9 580.4,396.1 569.2,391 554.4,388.4 "/>
<circle class="st0" cx="177.5" cy="547.3" r="10.3"/>
<circle class="st0" cx="177.9" cy="546.9" r="3.9"/>
<path class="st0" d="M354.3,355.8c-2.4-1.7-5.8-1.4-7.8,0.8c-0.5,0.7-1,1.5-1.4,2.3l-2,4c-0.1,0.1-0.2,0.3-0.4,0.3s-0.3-0.3-0.1-0.3
	c-1,3.9-3.3,7.3-5.9,10.4s-5.5,5.9-8,9.1c-1.4,1.9-2.7,3.8-3.7,5.9l0.1-0.6c0.6,4.7,0.9,9.5,1,14.3"/>
<path class="st0" d="M435.8,349.7l7.4,5.1c2.3,1.6,4.6,3.2,5.8,5.7c0.5,0.8,0.6,1.8,0.4,2.8l-5.5,15.1"/>
</svg>
