<?xml version="1.0" encoding="utf-8"?>
<!-- Generator: Adobe Illustrator 21.1.0, SVG Export Plug-In . SVG Version: 6.00 Build 0)  -->
<svg version="1.1" id="Layer_1" xmlns="http://www.w3.org/2000/svg" xmlns:xlink="http://www.w3.org/1999/xlink" x="0px" y="0px"
	 viewBox="0 0 792 612" style="enable-background:new 0 0 792 612;" xml:space="preserve">
<style type="text/css">
	.st0{fill-rule:evenodd;clip-rule:evenodd;fill:none;}
	.st1{fill:#FFFFFF;}
	.st2{clip-path:url(#SVGID_2_);fill:none;stroke:#F5F5F5;stroke-width:0.75;stroke-linejoin:bevel;stroke-miterlimit:10;}
	.st3{clip-path:url(#SVGID_2_);}
	.st4{fill:#676767;}
	.st5{font-family:'Lato-Regular';}
	.st6{font-size:9.5262px;}
	.st7{clip-path:url(#SVGID_4_);fill:none;stroke:#F5F5F5;stroke-width:0.75;stroke-linejoin:bevel;stroke-miterlimit:10;}
	.st8{clip-path:url(#SVGID_4_);}
	.st9{fill:#343434;}
	.st10{clip-path:url(#SVGID_10_);fill:#FFFFFF;}
	.st11{clip-path:url(#SVGID_12_);fill:#FFFFFF;}
	.st12{clip-path:url(#SVGID_20_);fill:#FFFFFF;}
	
		.st13{clip-path:url(#SVGID_24_);fill:none;stroke:#F2F2F2;stroke-width:0.75;stroke-linecap:square;stroke-linejoin:bevel;stroke-miterlimit:10;}
	
		.st14{clip-path:url(#SVGID_28_);fill:none;stroke:#F2F2F2;stroke-width:0.75;stroke-linecap:square;stroke-linejoin:bevel;stroke-miterlimit:10;}
	
		.st15{clip-path:url(#SVGID_32_);fill:none;stroke:#CCCCCB;stroke-width:0.75;stroke-linecap:square;stroke-linejoin:bevel;stroke-miterlimit:10;stroke-dasharray:0.75,1.5;}
	.st16{clip-path:url(#SVGID_62_);fill:none;stroke:#5795A2;stroke-miterlimit:10;}
	
		.st17{clip-path:url(#SVGID_62_);fill:none;stroke:#CCCCCB;stroke-width:0.75;stroke-linecap:square;stroke-linejoin:bevel;stroke-miterlimit:10;stroke-dasharray:0.75,1.5;}
	
		.st18{clip-path:url(#SVGID_156_);fill:none;stroke:#F5F5F5;stroke-width:0.75;stroke-linecap:square;stroke-linejoin:bevel;stroke-miterlimit:10;}
	.st19{font-size:15.3885px;}
	.st20{letter-spacing:23;}
	.st21{fill:none;}
	.st22{font-size:15px;}
</style>
<g>
	<rect x="712.8" y="109.6" class="st0" width="63.2" height="381.1"/>
	<rect x="8" y="66.2" class="st1" width="766.5" height="444.1"/>
	<rect x="8.8" y="64.4" class="st1" width="766.5" height="414"/>
	<g>
		<defs>
			<rect id="SVGID_1_" x="57.9" y="438.8" width="718.1" height="40.3"/>
		</defs>
		<clipPath id="SVGID_2_">
			<use xlink:href="#SVGID_1_"  style="overflow:visible;"/>
		</clipPath>
		<line class="st2" x1="58.6" y1="439.6" x2="58.6" y2="443.2"/>
		<line class="st2" x1="94.5" y1="439.6" x2="94.5" y2="443.2"/>
		<line class="st2" x1="130.4" y1="439.6" x2="130.4" y2="443.2"/>
		<line class="st2" x1="166.3" y1="439.6" x2="166.3" y2="443.2"/>
		<line class="st2" x1="202.2" y1="439.6" x2="202.2" y2="443.2"/>
		<line class="st2" x1="238.1" y1="439.6" x2="238.1" y2="443.2"/>
		<line class="st2" x1="273.3" y1="439.6" x2="273.3" y2="443.2"/>
		<line class="st2" x1="309.2" y1="439.6" x2="309.2" y2="443.2"/>
		<line class="st2" x1="345.1" y1="439.6" x2="345.1" y2="443.2"/>
		<line class="st2" x1="381" y1="439.6" x2="381" y2="443.2"/>
		<line class="st2" x1="416.9" y1="439.6" x2="416.9" y2="443.2"/>
		<line class="st2" x1="452.8" y1="439.6" x2="452.8" y2="443.2"/>
		<line class="st2" x1="488.7" y1="439.6" x2="488.7" y2="443.2"/>
		<line class="st2" x1="524.6" y1="439.6" x2="524.6" y2="443.2"/>
		<line class="st2" x1="560.5" y1="439.6" x2="560.5" y2="443.2"/>
		<line class="st2" x1="596.4" y1="439.6" x2="596.4" y2="443.2"/>
		<line class="st2" x1="631.6" y1="439.6" x2="631.6" y2="443.2"/>
		<line class="st2" x1="667.5" y1="439.6" x2="667.5" y2="443.2"/>
		<line class="st2" x1="703.4" y1="439.6" x2="703.4" y2="443.2"/>
		<line class="st2" x1="739.3" y1="439.6" x2="739.3" y2="443.2"/>
		<g class="st3">
			<text transform="matrix(1 0 0 1 83.4521 454.2188)" class="st4 st5 st6">1</text>
		</g>
		<g class="st3">
			<text transform="matrix(1 0 0 1 88.9717 454.2188)" class="st4 st5 st6">9</text>
		</g>
		<g class="st3">
			<text transform="matrix(1 0 0 1 94.4893 454.2188)" class="st4 st5 st6">9</text>
		</g>
		<g class="st3">
			<text transform="matrix(1 0 0 1 100.0088 454.2188)" class="st4 st5 st6">7</text>
		</g>
		<g class="st3">
			<text transform="matrix(1 0 0 1 119.3594 454.2188)" class="st4 st5 st6">1</text>
		</g>
		<g class="st3">
			<text transform="matrix(1 0 0 1 124.877 454.2188)" class="st4 st5 st6">9</text>
		</g>
		<g class="st3">
			<text transform="matrix(1 0 0 1 130.3965 454.2188)" class="st4 st5 st6">9</text>
		</g>
		<g class="st3">
			<text transform="matrix(1 0 0 1 135.915 454.2188)" class="st4 st5 st6">8</text>
		</g>
		<g class="st3">
			<text transform="matrix(1 0 0 1 155.2646 454.2188)" class="st4 st5 st6">1</text>
		</g>
		<g class="st3">
			<text transform="matrix(1 0 0 1 160.7832 454.2188)" class="st4 st5 st6">9</text>
		</g>
		<g class="st3">
			<text transform="matrix(1 0 0 1 166.3027 454.2188)" class="st4 st5 st6">9</text>
		</g>
		<g class="st3">
			<text transform="matrix(1 0 0 1 171.8213 454.2188)" class="st4 st5 st6">9</text>
		</g>
		<g class="st3">
			<text transform="matrix(1 0 0 1 191.1719 454.2188)" class="st4 st5 st6">2</text>
		</g>
		<g class="st3">
			<text transform="matrix(1 0 0 1 196.6904 454.2188)" class="st4 st5 st6">0</text>
		</g>
		<g class="st3">
			<text transform="matrix(1 0 0 1 202.209 454.2188)" class="st4 st5 st6">0</text>
		</g>
		<g class="st3">
			<text transform="matrix(1 0 0 1 207.7266 454.2188)" class="st4 st5 st6">0</text>
		</g>
		<g class="st3">
			<text transform="matrix(1 0 0 1 227.0781 454.2188)" class="st4 st5 st6">2</text>
		</g>
		<g class="st3">
			<text transform="matrix(1 0 0 1 232.5967 454.2188)" class="st4 st5 st6">0</text>
		</g>
		<g class="st3">
			<text transform="matrix(1 0 0 1 238.1152 454.2188)" class="st4 st5 st6">0</text>
		</g>
		<g class="st3">
			<text transform="matrix(1 0 0 1 243.6338 454.2188)" class="st4 st5 st6">1</text>
		</g>
		<g class="st3">
			<text transform="matrix(1 0 0 1 262.251 454.2188)" class="st4 st5 st6">2</text>
		</g>
		<g class="st3">
			<text transform="matrix(1 0 0 1 267.7705 454.2188)" class="st4 st5 st6">0</text>
		</g>
		<g class="st3">
			<text transform="matrix(1 0 0 1 273.2891 454.2188)" class="st4 st5 st6">0</text>
		</g>
		<g class="st3">
			<text transform="matrix(1 0 0 1 278.8076 454.2188)" class="st4 st5 st6">2</text>
		</g>
		<g class="st3">
			<text transform="matrix(1 0 0 1 298.1582 454.2188)" class="st4 st5 st6">2</text>
		</g>
		<g class="st3">
			<text transform="matrix(1 0 0 1 303.6758 454.2188)" class="st4 st5 st6">0</text>
		</g>
		<g class="st3">
			<text transform="matrix(1 0 0 1 309.1963 454.2188)" class="st4 st5 st6">0</text>
		</g>
		<g class="st3">
			<text transform="matrix(1 0 0 1 314.7139 454.2188)" class="st4 st5 st6">3</text>
		</g>
		<g class="st3">
			<text transform="matrix(1 0 0 1 334.0635 454.2188)" class="st4 st5 st6">2</text>
		</g>
		<g class="st3">
			<text transform="matrix(1 0 0 1 339.584 454.2188)" class="st4 st5 st6">0</text>
		</g>
		<g class="st3">
			<text transform="matrix(1 0 0 1 345.1016 454.2188)" class="st4 st5 st6">0</text>
		</g>
		<g class="st3">
			<text transform="matrix(1 0 0 1 350.6211 454.2188)" class="st4 st5 st6">4</text>
		</g>
		<g class="st3">
			<text transform="matrix(1 0 0 1 369.9717 454.2188)" class="st4 st5 st6">2</text>
		</g>
		<g class="st3">
			<text transform="matrix(1 0 0 1 375.4893 454.2188)" class="st4 st5 st6">0</text>
		</g>
		<g class="st3">
			<text transform="matrix(1 0 0 1 381.0078 454.2188)" class="st4 st5 st6">0</text>
		</g>
		<g class="st3">
			<text transform="matrix(1 0 0 1 386.5273 454.2188)" class="st4 st5 st6">5</text>
		</g>
		<g class="st3">
			<text transform="matrix(1 0 0 1 405.876 454.2188)" class="st4 st5 st6">2</text>
		</g>
		<g class="st3">
			<text transform="matrix(1 0 0 1 411.3955 454.2188)" class="st4 st5 st6">0</text>
		</g>
		<g class="st3">
			<text transform="matrix(1 0 0 1 416.915 454.2188)" class="st4 st5 st6">0</text>
		</g>
		<g class="st3">
			<text transform="matrix(1 0 0 1 422.4336 454.2188)" class="st4 st5 st6">6</text>
		</g>
		<g class="st3">
			<text transform="matrix(1 0 0 1 441.7842 454.2188)" class="st4 st5 st6">2</text>
		</g>
		<g class="st3">
			<text transform="matrix(1 0 0 1 447.3027 454.2188)" class="st4 st5 st6">0</text>
		</g>
		<g class="st3">
			<text transform="matrix(1 0 0 1 452.8203 454.2188)" class="st4 st5 st6">0</text>
		</g>
		<g class="st3">
			<text transform="matrix(1 0 0 1 458.3389 454.2188)" class="st4 st5 st6">7</text>
		</g>
		<g class="st3">
			<text transform="matrix(1 0 0 1 477.6904 454.2188)" class="st4 st5 st6">2</text>
		</g>
		<g class="st3">
			<text transform="matrix(1 0 0 1 483.208 454.2188)" class="st4 st5 st6">0</text>
		</g>
		<g class="st3">
			<text transform="matrix(1 0 0 1 488.7275 454.2188)" class="st4 st5 st6">0</text>
		</g>
		<g class="st3">
			<text transform="matrix(1 0 0 1 494.2461 454.2188)" class="st4 st5 st6">8</text>
		</g>
		<g class="st3">
			<text transform="matrix(1 0 0 1 513.5957 454.2188)" class="st4 st5 st6">2</text>
		</g>
		<g class="st3">
			<text transform="matrix(1 0 0 1 519.1152 454.2188)" class="st4 st5 st6">0</text>
		</g>
		<g class="st3">
			<text transform="matrix(1 0 0 1 524.6338 454.2188)" class="st4 st5 st6">0</text>
		</g>
		<g class="st3">
			<text transform="matrix(1 0 0 1 530.1523 454.2188)" class="st4 st5 st6">9</text>
		</g>
		<g class="st3">
			<text transform="matrix(1 0 0 1 549.5029 454.2188)" class="st4 st5 st6">2</text>
		</g>
		<g class="st3">
			<text transform="matrix(1 0 0 1 555.0205 454.2188)" class="st4 st5 st6">0</text>
		</g>
		<g class="st3">
			<text transform="matrix(1 0 0 1 560.54 454.2188)" class="st4 st5 st6">1</text>
		</g>
		<g class="st3">
			<text transform="matrix(1 0 0 1 566.0586 454.2188)" class="st4 st5 st6">0</text>
		</g>
		<g class="st3">
			<text transform="matrix(1 0 0 1 585.4082 454.2188)" class="st4 st5 st6">2</text>
		</g>
		<g class="st3">
			<text transform="matrix(1 0 0 1 590.9287 454.2188)" class="st4 st5 st6">0</text>
		</g>
		<g class="st3">
			<text transform="matrix(1 0 0 1 596.4463 454.2188)" class="st4 st5 st6">1</text>
		</g>
		<g class="st3">
			<text transform="matrix(1 0 0 1 601.9648 454.2188)" class="st4 st5 st6">1</text>
		</g>
		<g class="st3">
			<text transform="matrix(1 0 0 1 620.584 454.2188)" class="st4 st5 st6">2</text>
		</g>
		<g class="st3">
			<text transform="matrix(1 0 0 1 626.1006 454.2188)" class="st4 st5 st6">0</text>
		</g>
		<g class="st3">
			<text transform="matrix(1 0 0 1 631.6201 454.2188)" class="st4 st5 st6">1</text>
		</g>
		<g class="st3">
			<text transform="matrix(1 0 0 1 637.1387 454.2188)" class="st4 st5 st6">2</text>
		</g>
		<g class="st3">
			<text transform="matrix(1 0 0 1 656.4883 454.2188)" class="st4 st5 st6">2</text>
		</g>
		<g class="st3">
			<text transform="matrix(1 0 0 1 662.0078 454.2188)" class="st4 st5 st6">0</text>
		</g>
		<g class="st3">
			<text transform="matrix(1 0 0 1 667.5264 454.2188)" class="st4 st5 st6">1</text>
		</g>
		<g class="st3">
			<text transform="matrix(1 0 0 1 673.0449 454.2188)" class="st4 st5 st6">3</text>
		</g>
		<g class="st3">
			<text transform="matrix(1 0 0 1 692.3965 454.2188)" class="st4 st5 st6">2</text>
		</g>
		<g class="st3">
			<text transform="matrix(1 0 0 1 697.9131 454.2188)" class="st4 st5 st6">0</text>
		</g>
		<g class="st3">
			<text transform="matrix(1 0 0 1 703.4326 454.2188)" class="st4 st5 st6">1</text>
		</g>
		<g class="st3">
			<text transform="matrix(1 0 0 1 708.9521 454.2188)" class="st4 st5 st6">4</text>
		</g>
		<g class="st3">
			<text transform="matrix(1 0 0 1 728.3018 454.2188)" class="st4 st5 st6">2</text>
		</g>
		<g class="st3">
			<text transform="matrix(1 0 0 1 733.8203 454.2188)" class="st4 st5 st6">0</text>
		</g>
		<g class="st3">
			<text transform="matrix(1 0 0 1 739.3398 454.2188)" class="st4 st5 st6">1</text>
		</g>
		<g class="st3">
			<text transform="matrix(1 0 0 1 744.8574 454.2188)" class="st4 st5 st6">5</text>
		</g>
	</g>
	<g>
		<defs>
			<rect id="SVGID_3_" x="8" y="63.6" width="51.3" height="376.7"/>
		</defs>
		<clipPath id="SVGID_4_">
			<use xlink:href="#SVGID_3_"  style="overflow:visible;"/>
		</clipPath>
		<line class="st7" x1="54.9" y1="439.6" x2="58.6" y2="439.6"/>
		<line class="st7" x1="54.9" y1="401.5" x2="58.6" y2="401.5"/>
		<line class="st7" x1="54.9" y1="364.1" x2="58.6" y2="364.1"/>
		<line class="st7" x1="54.9" y1="326" x2="58.6" y2="326"/>
		<line class="st7" x1="54.9" y1="287.9" x2="58.6" y2="287.9"/>
		<line class="st7" x1="54.9" y1="249.8" x2="58.6" y2="249.8"/>
		<line class="st7" x1="54.9" y1="212.4" x2="58.6" y2="212.4"/>
		<line class="st7" x1="54.9" y1="174.3" x2="58.6" y2="174.3"/>
		<line class="st7" x1="54.9" y1="136.2" x2="58.6" y2="136.2"/>
		<line class="st7" x1="54.9" y1="98.8" x2="58.6" y2="98.8"/>
		<g class="st8">
			<text transform="matrix(1 0 0 1 41.4541 437.3652)" class="st4 st5 st6">0</text>
		</g>
		<g class="st8">
			<text transform="matrix(1 0 0 1 46.9736 437.3652)" class="st4 st5 st6">K</text>
		</g>
		<g class="st8">
			<text transform="matrix(1 0 0 1 35.9355 405.1221)" class="st4 st5 st6">2</text>
		</g>
		<g class="st8">
			<text transform="matrix(1 0 0 1 41.4541 405.1221)" class="st4 st5 st6">0</text>
		</g>
		<g class="st8">
			<text transform="matrix(1 0 0 1 46.9736 405.1221)" class="st4 st5 st6">K</text>
		</g>
		<g class="st8">
			<text transform="matrix(1 0 0 1 35.9355 367.751)" class="st4 st5 st6">4</text>
		</g>
		<g class="st8">
			<text transform="matrix(1 0 0 1 41.4541 367.751)" class="st4 st5 st6">0</text>
		</g>
		<g class="st8">
			<text transform="matrix(1 0 0 1 46.9736 367.751)" class="st4 st5 st6">K</text>
		</g>
		<g class="st8">
			<text transform="matrix(1 0 0 1 35.9355 329.6465)" class="st4 st5 st6">6</text>
		</g>
		<g class="st8">
			<text transform="matrix(1 0 0 1 41.4541 329.6465)" class="st4 st5 st6">0</text>
		</g>
		<g class="st8">
			<text transform="matrix(1 0 0 1 46.9736 329.6465)" class="st4 st5 st6">K</text>
		</g>
		<g class="st8">
			<text transform="matrix(1 0 0 1 35.9355 291.541)" class="st4 st5 st6">8</text>
		</g>
		<g class="st8">
			<text transform="matrix(1 0 0 1 41.4541 291.541)" class="st4 st5 st6">0</text>
		</g>
		<g class="st8">
			<text transform="matrix(1 0 0 1 46.9736 291.541)" class="st4 st5 st6">K</text>
		</g>
		<g class="st8">
			<text transform="matrix(1 0 0 1 30.416 253.4355)" class="st4 st5 st6">1</text>
		</g>
		<g class="st8">
			<text transform="matrix(1 0 0 1 35.9355 253.4355)" class="st4 st5 st6">0</text>
		</g>
		<g class="st8">
			<text transform="matrix(1 0 0 1 41.4541 253.4355)" class="st4 st5 st6">0</text>
		</g>
		<g class="st8">
			<text transform="matrix(1 0 0 1 46.9736 253.4355)" class="st4 st5 st6">K</text>
		</g>
		<g class="st8">
			<text transform="matrix(1 0 0 1 30.416 216.0645)" class="st4 st5 st6">1</text>
		</g>
		<g class="st8">
			<text transform="matrix(1 0 0 1 35.9355 216.0645)" class="st4 st5 st6">2</text>
		</g>
		<g class="st8">
			<text transform="matrix(1 0 0 1 41.4541 216.0645)" class="st4 st5 st6">0</text>
		</g>
		<g class="st8">
			<text transform="matrix(1 0 0 1 46.9736 216.0645)" class="st4 st5 st6">K</text>
		</g>
		<g class="st8">
			<text transform="matrix(1 0 0 1 30.416 177.96)" class="st4 st5 st6">1</text>
		</g>
		<g class="st8">
			<text transform="matrix(1 0 0 1 35.9355 177.96)" class="st4 st5 st6">4</text>
		</g>
		<g class="st8">
			<text transform="matrix(1 0 0 1 41.4541 177.96)" class="st4 st5 st6">0</text>
		</g>
		<g class="st8">
			<text transform="matrix(1 0 0 1 46.9736 177.96)" class="st4 st5 st6">K</text>
		</g>
		<g class="st8">
			<text transform="matrix(1 0 0 1 30.416 139.8555)" class="st4 st5 st6">1</text>
		</g>
		<g class="st8">
			<text transform="matrix(1 0 0 1 35.9355 139.8555)" class="st4 st5 st6">6</text>
		</g>
		<g class="st8">
			<text transform="matrix(1 0 0 1 41.4541 139.8555)" class="st4 st5 st6">0</text>
		</g>
		<g class="st8">
			<text transform="matrix(1 0 0 1 46.9736 139.8555)" class="st4 st5 st6">K</text>
		</g>
		<g class="st8">
			<text transform="matrix(1 0 0 1 30.416 102.4824)" class="st4 st5 st6">1</text>
		</g>
		<g class="st8">
			<text transform="matrix(1 0 0 1 35.9355 102.4824)" class="st4 st5 st6">8</text>
		</g>
		<g class="st8">
			<text transform="matrix(1 0 0 1 41.4541 102.4824)" class="st4 st5 st6">0</text>
		</g>
		<g class="st8">
			<text transform="matrix(1 0 0 1 46.9736 102.4824)" class="st4 st5 st6">K</text>
		</g>
		<g class="st8">
			<text transform="matrix(0 -1 1 0 23.2832 270.2041)" class="st9 st5 st6">H</text>
		</g>
		<g class="st8">
			<text transform="matrix(0 -1 1 0 23.2832 263.0137)" class="st9 st5 st6">e</text>
		</g>
		<g class="st8">
			<text transform="matrix(0 -1 1 0 23.2832 258.0342)" class="st9 st5 st6">c</text>
		</g>
		<g class="st8">
			<text transform="matrix(0 -1 1 0 23.2832 253.5908)" class="st9 st5 st6">t</text>
		</g>
		<g class="st8">
			<text transform="matrix(0 -1 1 0 23.2832 250.041)" class="st9 st5 st6">a</text>
		</g>
		<g class="st8">
			<text transform="matrix(0 -1 1 0 23.2832 245.2207)" class="st9 st5 st6">r</text>
		</g>
		<g class="st8">
			<text transform="matrix(0 -1 1 0 23.2832 241.3848)" class="st9 st5 st6">e</text>
		</g>
		<g class="st8">
			<text transform="matrix(0 -1 1 0 23.2832 236.4053)" class="st9 st5 st6">s</text>
		</g>
	</g>
	<g>
		<defs>
			<rect id="SVGID_5_" x="8" y="63.6" width="51.3" height="376.7"/>
		</defs>
		<clipPath id="SVGID_6_">
			<use xlink:href="#SVGID_5_"  style="overflow:visible;"/>
		</clipPath>
	</g>
	<g>
		<defs>
			<rect id="SVGID_7_" x="58.6" y="64.4" width="717.4" height="375.9"/>
		</defs>
		<clipPath id="SVGID_8_">
			<use xlink:href="#SVGID_7_"  style="overflow:visible;"/>
		</clipPath>
	</g>
	<g>
		<defs>
			<rect id="SVGID_9_" x="58.6" y="64.4" width="717.4" height="375.9"/>
		</defs>
		<clipPath id="SVGID_10_">
			<use xlink:href="#SVGID_9_"  style="overflow:visible;"/>
		</clipPath>
		<rect x="58.6" y="64.4" class="st10" width="717.4" height="375.9"/>
		<rect x="58.6" y="94.4" class="st10" width="717.4" height="345.9"/>
	</g>
	<g>
		<defs>
			<rect id="SVGID_11_" x="58.6" y="64.4" width="717.4" height="375.9"/>
		</defs>
		<clipPath id="SVGID_12_">
			<use xlink:href="#SVGID_11_"  style="overflow:visible;"/>
		</clipPath>
		<rect x="58.6" y="64.4" class="st11" width="717.4" height="375.9"/>
	</g>
	<g>
		<defs>
			<rect id="SVGID_13_" x="58.6" y="64.4" width="717.4" height="375.9"/>
		</defs>
		<clipPath id="SVGID_14_">
			<use xlink:href="#SVGID_13_"  style="overflow:visible;"/>
		</clipPath>
	</g>
	<g>
		<defs>
			<rect id="SVGID_15_" x="58.6" y="64.4" width="717.4" height="375.9"/>
		</defs>
		<clipPath id="SVGID_16_">
			<use xlink:href="#SVGID_15_"  style="overflow:visible;"/>
		</clipPath>
	</g>
	<g>
		<defs>
			<rect id="SVGID_17_" x="58.6" y="64.4" width="717.4" height="375.9"/>
		</defs>
		<clipPath id="SVGID_18_">
			<use xlink:href="#SVGID_17_"  style="overflow:visible;"/>
		</clipPath>
	</g>
	<g>
		<defs>
			<rect id="SVGID_19_" x="58.6" y="64.4" width="717.4" height="375.9"/>
		</defs>
		<clipPath id="SVGID_20_">
			<use xlink:href="#SVGID_19_"  style="overflow:visible;"/>
		</clipPath>
		<rect x="58.6" y="64.4" class="st12" width="717.4" height="375.9"/>
	</g>
	<g>
		<defs>
			<rect id="SVGID_21_" x="58.6" y="64.4" width="717.4" height="375.9"/>
		</defs>
		<clipPath id="SVGID_22_">
			<use xlink:href="#SVGID_21_"  style="overflow:visible;"/>
		</clipPath>
	</g>
	<g>
		<defs>
			<rect id="SVGID_23_" x="58.6" y="64.4" width="716.7" height="375.2"/>
		</defs>
		<clipPath id="SVGID_24_">
			<use xlink:href="#SVGID_23_"  style="overflow:visible;"/>
		</clipPath>
		<line class="st13" x1="58.6" y1="401.5" x2="775.2" y2="401.5"/>
		<line class="st13" x1="58.6" y1="364.1" x2="775.2" y2="364.1"/>
		<line class="st13" x1="58.6" y1="326" x2="775.2" y2="326"/>
		<line class="st13" x1="58.6" y1="287.9" x2="775.2" y2="287.9"/>
		<line class="st13" x1="58.6" y1="249.8" x2="775.2" y2="249.8"/>
		<line class="st13" x1="58.6" y1="212.4" x2="775.2" y2="212.4"/>
		<line class="st13" x1="58.6" y1="174.3" x2="775.2" y2="174.3"/>
		<line class="st13" x1="58.6" y1="136.2" x2="775.2" y2="136.2"/>
		<line class="st13" x1="58.6" y1="98.8" x2="775.2" y2="98.8"/>
	</g>
	<g>
		<defs>
			<rect id="SVGID_25_" x="58.6" y="64.4" width="717.4" height="375.9"/>
		</defs>
		<clipPath id="SVGID_26_">
			<use xlink:href="#SVGID_25_"  style="overflow:visible;"/>
		</clipPath>
	</g>
	<g>
		<defs>
			<rect id="SVGID_27_" x="58.6" y="64.4" width="716.7" height="375.2"/>
		</defs>
		<clipPath id="SVGID_28_">
			<use xlink:href="#SVGID_27_"  style="overflow:visible;"/>
		</clipPath>
		<line class="st14" x1="58.6" y1="438.8" x2="58.6" y2="64.4"/>
		<line class="st14" x1="94.5" y1="438.8" x2="94.5" y2="64.4"/>
		<line class="st14" x1="130.4" y1="438.8" x2="130.4" y2="64.4"/>
		<line class="st14" x1="166.3" y1="438.8" x2="166.3" y2="64.4"/>
		<line class="st14" x1="202.2" y1="438.8" x2="202.2" y2="64.4"/>
		<line class="st14" x1="238.1" y1="438.8" x2="238.1" y2="64.4"/>
		<line class="st14" x1="273.3" y1="438.8" x2="273.3" y2="64.4"/>
		<line class="st14" x1="309.2" y1="438.8" x2="309.2" y2="64.4"/>
		<line class="st14" x1="345.1" y1="438.8" x2="345.1" y2="64.4"/>
		<line class="st14" x1="381" y1="438.8" x2="381" y2="64.4"/>
		<line class="st14" x1="416.9" y1="438.8" x2="416.9" y2="64.4"/>
		<line class="st14" x1="452.8" y1="438.8" x2="452.8" y2="64.4"/>
		<line class="st14" x1="488.7" y1="438.8" x2="488.7" y2="64.4"/>
		<line class="st14" x1="524.6" y1="438.8" x2="524.6" y2="64.4"/>
		<line class="st14" x1="560.5" y1="438.8" x2="560.5" y2="64.4"/>
		<line class="st14" x1="596.4" y1="438.8" x2="596.4" y2="64.4"/>
		<line class="st14" x1="631.6" y1="438.8" x2="631.6" y2="64.4"/>
		<line class="st14" x1="667.5" y1="438.8" x2="667.5" y2="64.4"/>
		<line class="st14" x1="703.4" y1="438.8" x2="703.4" y2="64.4"/>
		<line class="st14" x1="739.3" y1="438.8" x2="739.3" y2="64.4"/>
	</g>
	<g>
		<defs>
			<rect id="SVGID_29_" x="58.6" y="64.4" width="717.4" height="375.9"/>
		</defs>
		<clipPath id="SVGID_30_">
			<use xlink:href="#SVGID_29_"  style="overflow:visible;"/>
		</clipPath>
	</g>
	<g>
		<defs>
			<rect id="SVGID_31_" x="58.6" y="64.4" width="716.7" height="375.2"/>
		</defs>
		<clipPath id="SVGID_32_">
			<use xlink:href="#SVGID_31_"  style="overflow:visible;"/>
		</clipPath>
		<line class="st15" x1="58.6" y1="439.6" x2="775.2" y2="439.6"/>
	</g>
	<g>
		<defs>
			<rect id="SVGID_33_" x="58.6" y="64.4" width="717.4" height="375.9"/>
		</defs>
		<clipPath id="SVGID_34_">
			<use xlink:href="#SVGID_33_"  style="overflow:visible;"/>
		</clipPath>
	</g>
	<g>
		<defs>
			<rect id="SVGID_35_" x="58.6" y="64.4" width="716.7" height="375.2"/>
		</defs>
		<clipPath id="SVGID_36_">
			<use xlink:href="#SVGID_35_"  style="overflow:visible;"/>
		</clipPath>
	</g>
	<g>
		<defs>
			<rect id="SVGID_37_" x="58.6" y="64.4" width="717.4" height="375.9"/>
		</defs>
		<clipPath id="SVGID_38_">
			<use xlink:href="#SVGID_37_"  style="overflow:visible;"/>
		</clipPath>
	</g>
	<g>
		<defs>
			<rect id="SVGID_39_" x="58.6" y="64.4" width="716.7" height="375.2"/>
		</defs>
		<clipPath id="SVGID_40_">
			<use xlink:href="#SVGID_39_"  style="overflow:visible;"/>
		</clipPath>
	</g>
	<g>
		<defs>
			<rect id="SVGID_41_" x="58.6" y="64.4" width="717.4" height="375.9"/>
		</defs>
		<clipPath id="SVGID_42_">
			<use xlink:href="#SVGID_41_"  style="overflow:visible;"/>
		</clipPath>
	</g>
	<g>
		<defs>
			<rect id="SVGID_43_" x="58.6" y="64.4" width="717.4" height="375.9"/>
		</defs>
		<clipPath id="SVGID_44_">
			<use xlink:href="#SVGID_43_"  style="overflow:visible;"/>
		</clipPath>
	</g>
	<g>
		<defs>
			<rect id="SVGID_45_" x="58.6" y="64.4" width="716.7" height="375.2"/>
		</defs>
		<clipPath id="SVGID_46_">
			<use xlink:href="#SVGID_45_"  style="overflow:visible;"/>
		</clipPath>
	</g>
	<g>
		<defs>
			<rect id="SVGID_47_" x="58.6" y="64.4" width="717.4" height="375.9"/>
		</defs>
		<clipPath id="SVGID_48_">
			<use xlink:href="#SVGID_47_"  style="overflow:visible;"/>
		</clipPath>
	</g>
	<g>
		<defs>
			<rect id="SVGID_49_" x="58.6" y="64.4" width="716.7" height="375.2"/>
		</defs>
		<clipPath id="SVGID_50_">
			<use xlink:href="#SVGID_49_"  style="overflow:visible;"/>
		</clipPath>
	</g>
	<g>
		<defs>
			<rect id="SVGID_51_" x="58.6" y="64.4" width="717.4" height="375.9"/>
		</defs>
		<clipPath id="SVGID_52_">
			<use xlink:href="#SVGID_51_"  style="overflow:visible;"/>
		</clipPath>
	</g>
	<g>
		<defs>
			<rect id="SVGID_53_" x="58.6" y="64.4" width="716.7" height="375.2"/>
		</defs>
		<clipPath id="SVGID_54_">
			<use xlink:href="#SVGID_53_"  style="overflow:visible;"/>
		</clipPath>
	</g>
	<g>
		<defs>
			<rect id="SVGID_55_" x="58.6" y="64.4" width="717.4" height="375.9"/>
		</defs>
		<clipPath id="SVGID_56_">
			<use xlink:href="#SVGID_55_"  style="overflow:visible;"/>
		</clipPath>
	</g>
	<g>
		<defs>
			<rect id="SVGID_57_" x="58.6" y="64.4" width="716.7" height="375.2"/>
		</defs>
		<clipPath id="SVGID_58_">
			<use xlink:href="#SVGID_57_"  style="overflow:visible;"/>
		</clipPath>
	</g>
	<g>
		<defs>
			<rect id="SVGID_59_" x="58.6" y="64.4" width="717.4" height="375.9"/>
		</defs>
		<clipPath id="SVGID_60_">
			<use xlink:href="#SVGID_59_"  style="overflow:visible;"/>
		</clipPath>
	</g>
	<g>
		<defs>
			<rect id="SVGID_61_" x="58.6" y="64.4" width="716.7" height="375.2"/>
		</defs>
		<clipPath id="SVGID_62_">
			<use xlink:href="#SVGID_61_"  style="overflow:visible;"/>
		</clipPath>
		<polyline class="st16" points="58.9,312.6 94.8,289.3 130.6,247 166.4,207.8 202.3,181.8 238.1,118.1 273.9,166.2 309.8,224.2 
			345.6,223.7 381.4,167 417.3,142.4 453.1,123.5 488.9,214.4 524.8,220.1 560.6,250.4 596.4,282.6 632.3,292.1 668.1,278.8 
			703.9,227.7 739.8,138.6 775.6,83.7 		"/>
		<path class="st17" d="M58.6,64.4"/>
	</g>
	<g>
		<defs>
			<rect id="SVGID_63_" x="58.6" y="64.4" width="717.4" height="375.9"/>
		</defs>
		<clipPath id="SVGID_64_">
			<use xlink:href="#SVGID_63_"  style="overflow:visible;"/>
		</clipPath>
	</g>
	<g>
		<defs>
			<rect id="SVGID_65_" x="58.6" y="64.4" width="717.4" height="375.9"/>
		</defs>
		<clipPath id="SVGID_66_">
			<use xlink:href="#SVGID_65_"  style="overflow:visible;"/>
		</clipPath>
	</g>
	<g>
		<defs>
			<rect id="SVGID_67_" x="58.6" y="64.4" width="716.7" height="375.2"/>
		</defs>
		<clipPath id="SVGID_68_">
			<use xlink:href="#SVGID_67_"  style="overflow:visible;"/>
		</clipPath>
	</g>
	<g>
		<defs>
			<rect id="SVGID_69_" x="58.6" y="64.4" width="717.4" height="375.9"/>
		</defs>
		<clipPath id="SVGID_70_">
			<use xlink:href="#SVGID_69_"  style="overflow:visible;"/>
		</clipPath>
	</g>
	<g>
		<defs>
			<rect id="SVGID_71_" x="58.6" y="64.4" width="716.7" height="375.2"/>
		</defs>
		<clipPath id="SVGID_72_">
			<use xlink:href="#SVGID_71_"  style="overflow:visible;"/>
		</clipPath>
	</g>
	<g>
		<defs>
			<rect id="SVGID_73_" x="58.6" y="64.4" width="717.4" height="375.9"/>
		</defs>
		<clipPath id="SVGID_74_">
			<use xlink:href="#SVGID_73_"  style="overflow:visible;"/>
		</clipPath>
	</g>
	<g>
		<defs>
			<rect id="SVGID_75_" x="58.6" y="64.4" width="716.7" height="375.2"/>
		</defs>
		<clipPath id="SVGID_76_">
			<use xlink:href="#SVGID_75_"  style="overflow:visible;"/>
		</clipPath>
	</g>
	<g>
		<defs>
			<rect id="SVGID_77_" x="58.6" y="64.4" width="717.4" height="375.9"/>
		</defs>
		<clipPath id="SVGID_78_">
			<use xlink:href="#SVGID_77_"  style="overflow:visible;"/>
		</clipPath>
	</g>
	<g>
		<defs>
			<rect id="SVGID_79_" x="58.6" y="64.4" width="716.7" height="375.2"/>
		</defs>
		<clipPath id="SVGID_80_">
			<use xlink:href="#SVGID_79_"  style="overflow:visible;"/>
		</clipPath>
	</g>
	<g>
		<defs>
			<rect id="SVGID_81_" x="58.6" y="64.4" width="717.4" height="375.9"/>
		</defs>
		<clipPath id="SVGID_82_">
			<use xlink:href="#SVGID_81_"  style="overflow:visible;"/>
		</clipPath>
	</g>
	<g>
		<defs>
			<rect id="SVGID_83_" x="58.6" y="64.4" width="716.7" height="375.2"/>
		</defs>
		<clipPath id="SVGID_84_">
			<use xlink:href="#SVGID_83_"  style="overflow:visible;"/>
		</clipPath>
	</g>
	<g>
		<defs>
			<rect id="SVGID_85_" x="58.6" y="64.4" width="717.4" height="375.9"/>
		</defs>
		<clipPath id="SVGID_86_">
			<use xlink:href="#SVGID_85_"  style="overflow:visible;"/>
		</clipPath>
	</g>
	<g>
		<defs>
			<rect id="SVGID_87_" x="58.6" y="64.4" width="717.4" height="375.9"/>
		</defs>
		<clipPath id="SVGID_88_">
			<use xlink:href="#SVGID_87_"  style="overflow:visible;"/>
		</clipPath>
	</g>
	<g>
		<defs>
			<rect id="SVGID_89_" x="58.6" y="64.4" width="716.7" height="375.2"/>
		</defs>
		<clipPath id="SVGID_90_">
			<use xlink:href="#SVGID_89_"  style="overflow:visible;"/>
		</clipPath>
	</g>
	<g>
		<defs>
			<rect id="SVGID_91_" x="58.6" y="64.4" width="717.4" height="375.9"/>
		</defs>
		<clipPath id="SVGID_92_">
			<use xlink:href="#SVGID_91_"  style="overflow:visible;"/>
		</clipPath>
	</g>
	<g>
		<defs>
			<rect id="SVGID_93_" x="58.6" y="64.4" width="716.7" height="375.2"/>
		</defs>
		<clipPath id="SVGID_94_">
			<use xlink:href="#SVGID_93_"  style="overflow:visible;"/>
		</clipPath>
	</g>
	<g>
		<defs>
			<rect id="SVGID_95_" x="58.6" y="64.4" width="717.4" height="375.9"/>
		</defs>
		<clipPath id="SVGID_96_">
			<use xlink:href="#SVGID_95_"  style="overflow:visible;"/>
		</clipPath>
	</g>
	<g>
		<defs>
			<rect id="SVGID_97_" x="58.6" y="64.4" width="716.7" height="375.2"/>
		</defs>
		<clipPath id="SVGID_98_">
			<use xlink:href="#SVGID_97_"  style="overflow:visible;"/>
		</clipPath>
	</g>
	<g>
		<defs>
			<rect id="SVGID_99_" x="58.6" y="64.4" width="717.4" height="375.9"/>
		</defs>
		<clipPath id="SVGID_100_">
			<use xlink:href="#SVGID_99_"  style="overflow:visible;"/>
		</clipPath>
	</g>
	<g>
		<defs>
			<rect id="SVGID_101_" x="58.6" y="64.4" width="716.7" height="375.2"/>
		</defs>
		<clipPath id="SVGID_102_">
			<use xlink:href="#SVGID_101_"  style="overflow:visible;"/>
		</clipPath>
	</g>
	<g>
		<defs>
			<rect id="SVGID_103_" x="58.6" y="64.4" width="717.4" height="375.9"/>
		</defs>
		<clipPath id="SVGID_104_">
			<use xlink:href="#SVGID_103_"  style="overflow:visible;"/>
		</clipPath>
	</g>
	<g>
		<defs>
			<rect id="SVGID_105_" x="58.6" y="64.4" width="716.7" height="375.2"/>
		</defs>
		<clipPath id="SVGID_106_">
			<use xlink:href="#SVGID_105_"  style="overflow:visible;"/>
		</clipPath>
	</g>
	<g>
		<defs>
			<rect id="SVGID_107_" x="58.6" y="64.4" width="717.4" height="375.9"/>
		</defs>
		<clipPath id="SVGID_108_">
			<use xlink:href="#SVGID_107_"  style="overflow:visible;"/>
		</clipPath>
	</g>
	<g>
		<defs>
			<rect id="SVGID_109_" x="58.6" y="64.4" width="717.4" height="375.9"/>
		</defs>
		<clipPath id="SVGID_110_">
			<use xlink:href="#SVGID_109_"  style="overflow:visible;"/>
		</clipPath>
	</g>
	<g>
		<defs>
			<rect id="SVGID_111_" x="58.6" y="64.4" width="716.7" height="375.2"/>
		</defs>
		<clipPath id="SVGID_112_">
			<use xlink:href="#SVGID_111_"  style="overflow:visible;"/>
		</clipPath>
	</g>
	<g>
		<defs>
			<rect id="SVGID_113_" x="58.6" y="64.4" width="717.4" height="375.9"/>
		</defs>
		<clipPath id="SVGID_114_">
			<use xlink:href="#SVGID_113_"  style="overflow:visible;"/>
		</clipPath>
	</g>
	<g>
		<defs>
			<rect id="SVGID_115_" x="58.6" y="64.4" width="716.7" height="375.2"/>
		</defs>
		<clipPath id="SVGID_116_">
			<use xlink:href="#SVGID_115_"  style="overflow:visible;"/>
		</clipPath>
	</g>
	<g>
		<defs>
			<rect id="SVGID_117_" x="58.6" y="64.4" width="717.4" height="375.9"/>
		</defs>
		<clipPath id="SVGID_118_">
			<use xlink:href="#SVGID_117_"  style="overflow:visible;"/>
		</clipPath>
	</g>
	<g>
		<defs>
			<rect id="SVGID_119_" x="58.6" y="64.4" width="716.7" height="375.2"/>
		</defs>
		<clipPath id="SVGID_120_">
			<use xlink:href="#SVGID_119_"  style="overflow:visible;"/>
		</clipPath>
	</g>
	<g>
		<defs>
			<rect id="SVGID_121_" x="58.6" y="64.4" width="717.4" height="375.9"/>
		</defs>
		<clipPath id="SVGID_122_">
			<use xlink:href="#SVGID_121_"  style="overflow:visible;"/>
		</clipPath>
	</g>
	<g>
		<defs>
			<rect id="SVGID_123_" x="58.6" y="64.4" width="716.7" height="375.2"/>
		</defs>
		<clipPath id="SVGID_124_">
			<use xlink:href="#SVGID_123_"  style="overflow:visible;"/>
		</clipPath>
	</g>
	<g>
		<defs>
			<rect id="SVGID_125_" x="58.6" y="64.4" width="717.4" height="375.9"/>
		</defs>
		<clipPath id="SVGID_126_">
			<use xlink:href="#SVGID_125_"  style="overflow:visible;"/>
		</clipPath>
	</g>
	<g>
		<defs>
			<rect id="SVGID_127_" x="58.6" y="64.4" width="716.7" height="375.2"/>
		</defs>
		<clipPath id="SVGID_128_">
			<use xlink:href="#SVGID_127_"  style="overflow:visible;"/>
		</clipPath>
	</g>
	<g>
		<defs>
			<rect id="SVGID_129_" x="58.6" y="64.4" width="717.4" height="375.9"/>
		</defs>
		<clipPath id="SVGID_130_">
			<use xlink:href="#SVGID_129_"  style="overflow:visible;"/>
		</clipPath>
	</g>
	<g>
		<defs>
			<rect id="SVGID_131_" x="58.6" y="64.4" width="717.4" height="375.9"/>
		</defs>
		<clipPath id="SVGID_132_">
			<use xlink:href="#SVGID_131_"  style="overflow:visible;"/>
		</clipPath>
	</g>
	<g>
		<defs>
			<rect id="SVGID_133_" x="58.6" y="64.4" width="716.7" height="375.2"/>
		</defs>
		<clipPath id="SVGID_134_">
			<use xlink:href="#SVGID_133_"  style="overflow:visible;"/>
		</clipPath>
	</g>
	<g>
		<defs>
			<rect id="SVGID_135_" x="58.6" y="64.4" width="717.4" height="375.9"/>
		</defs>
		<clipPath id="SVGID_136_">
			<use xlink:href="#SVGID_135_"  style="overflow:visible;"/>
		</clipPath>
	</g>
	<g>
		<defs>
			<rect id="SVGID_137_" x="58.6" y="64.4" width="716.7" height="375.2"/>
		</defs>
		<clipPath id="SVGID_138_">
			<use xlink:href="#SVGID_137_"  style="overflow:visible;"/>
		</clipPath>
	</g>
	<g>
		<defs>
			<rect id="SVGID_139_" x="58.6" y="64.4" width="717.4" height="375.9"/>
		</defs>
		<clipPath id="SVGID_140_">
			<use xlink:href="#SVGID_139_"  style="overflow:visible;"/>
		</clipPath>
	</g>
	<g>
		<defs>
			<rect id="SVGID_141_" x="58.6" y="64.4" width="716.7" height="375.2"/>
		</defs>
		<clipPath id="SVGID_142_">
			<use xlink:href="#SVGID_141_"  style="overflow:visible;"/>
		</clipPath>
	</g>
	<g>
		<defs>
			<rect id="SVGID_143_" x="58.6" y="64.4" width="717.4" height="375.9"/>
		</defs>
		<clipPath id="SVGID_144_">
			<use xlink:href="#SVGID_143_"  style="overflow:visible;"/>
		</clipPath>
	</g>
	<g>
		<defs>
			<rect id="SVGID_145_" x="58.6" y="64.4" width="716.7" height="375.2"/>
		</defs>
		<clipPath id="SVGID_146_">
			<use xlink:href="#SVGID_145_"  style="overflow:visible;"/>
		</clipPath>
	</g>
	<g>
		<defs>
			<rect id="SVGID_147_" x="58.6" y="64.4" width="717.4" height="375.9"/>
		</defs>
		<clipPath id="SVGID_148_">
			<use xlink:href="#SVGID_147_"  style="overflow:visible;"/>
		</clipPath>
	</g>
	<g>
		<defs>
			<rect id="SVGID_149_" x="58.6" y="64.4" width="716.7" height="375.2"/>
		</defs>
		<clipPath id="SVGID_150_">
			<use xlink:href="#SVGID_149_"  style="overflow:visible;"/>
		</clipPath>
	</g>
	<g>
		<defs>
			<rect id="SVGID_151_" x="58.6" y="64.4" width="717.4" height="375.9"/>
		</defs>
		<clipPath id="SVGID_152_">
			<use xlink:href="#SVGID_151_"  style="overflow:visible;"/>
		</clipPath>
	</g>
	<g>
		<defs>
			<rect id="SVGID_153_" x="58.6" y="64.4" width="717.4" height="375.9"/>
		</defs>
		<clipPath id="SVGID_154_">
			<use xlink:href="#SVGID_153_"  style="overflow:visible;"/>
		</clipPath>
	</g>
	<g>
		<defs>
			<rect id="SVGID_155_" x="58.6" y="64.4" width="717.4" height="375.9"/>
		</defs>
		<clipPath id="SVGID_156_">
			<use xlink:href="#SVGID_155_"  style="overflow:visible;"/>
		</clipPath>
		<line class="st18" x1="58.6" y1="439.6" x2="775.2" y2="439.6"/>
		<line class="st18" x1="58.6" y1="64.4" x2="58.6" y2="439.6"/>
	</g>
	<g>
		<defs>
			<rect id="SVGID_157_" x="58.6" y="64.4" width="717.4" height="375.9"/>
		</defs>
		<clipPath id="SVGID_158_">
			<use xlink:href="#SVGID_157_"  style="overflow:visible;"/>
		</clipPath>
	</g>
	<text transform="matrix(1 0 0 1 256.1143 54.1191)" class="st9 st5 st19">H</text>
	<text transform="matrix(1 0 0 1 267.7471 54.1191)" class="st9 st5 st19">e</text>
	<text transform="matrix(1 0 0 1 275.8076 54.1191)" class="st9 st5 st19">c</text>
	<text transform="matrix(1 0 0 1 282.9863 54.1191)" class="st9 st5 st19">t</text>
	<text transform="matrix(1 0 0 1 288.7227 54.1191)" class="st9 st5 st19">a</text>
	<text transform="matrix(1 0 0 1 296.5195 54.1191)" class="st9 st5 st19">r</text>
	<text transform="matrix(1 0 0 1 302.7158 54.1191)" class="st9 st5 st19">e</text>
	<text transform="matrix(1 0 0 1 310.7754 54.1191)" class="st9 st5 st19">s</text>
	<text transform="matrix(1 0 0 1 317.4512 54.1191)" class="st9 st5 st19 st20">	</text>
	<text transform="matrix(1 0 0 1 320.416 54.1191)" class="st9 st5 st19">o</text>
	<text transform="matrix(1 0 0 1 328.9688 54.1191)" class="st9 st5 st19">f</text>
	<text transform="matrix(1 0 0 1 334.1445 54.1191)" class="st9 st5 st19 st20">	</text>
	<text transform="matrix(1 0 0 1 337.1104 54.1191)" class="st9 st5 st19">C</text>
	<text transform="matrix(1 0 0 1 347.6436 54.1191)" class="st9 st5 st19">o</text>
	<text transform="matrix(1 0 0 1 356.1973 54.1191)" class="st9 st5 st19">c</text>
	<text transform="matrix(1 0 0 1 363.376 54.1191)" class="st9 st5 st19">a</text>
	<text transform="matrix(1 0 0 1 371.1719 54.1191)" class="st9 st5 st19 st20">	</text>
	<text transform="matrix(1 0 0 1 374.1387 54.1191)" class="st9 st5 st19">C</text>
	<text transform="matrix(1 0 0 1 384.6719 54.1191)" class="st9 st5 st19">u</text>
	<text transform="matrix(1 0 0 1 393.2256 54.1191)" class="st9 st5 st19">l</text>
	<text transform="matrix(1 0 0 1 397.1641 54.1191)" class="st9 st5 st19">t</text>
	<text transform="matrix(1 0 0 1 402.8994 54.1191)" class="st9 st5 st19">i</text>
	<text transform="matrix(1 0 0 1 406.8389 54.1191)" class="st9 st5 st19">v</text>
	<text transform="matrix(1 0 0 1 414.7158 54.1191)" class="st9 st5 st19">a</text>
	<text transform="matrix(1 0 0 1 422.5137 54.1191)" class="st9 st5 st19">t</text>
	<text transform="matrix(1 0 0 1 428.25 54.1191)" class="st9 st5 st19">e</text>
	<text transform="matrix(1 0 0 1 436.3115 54.1191)" class="st9 st5 st19">d</text>
	<text transform="matrix(1 0 0 1 444.9092 54.1191)" class="st9 st5 st19 st20">	</text>
	<text transform="matrix(1 0 0 1 447.875 54.1191)" class="st9 st5 st19">i</text>
	<text transform="matrix(1 0 0 1 451.8135 54.1191)" class="st9 st5 st19">n</text>
	<text transform="matrix(1 0 0 1 460.3662 54.1191)" class="st9 st5 st19 st20">	</text>
	<text transform="matrix(1 0 0 1 463.332 54.1191)" class="st9 st5 st19">C</text>
	<text transform="matrix(1 0 0 1 473.8643 54.1191)" class="st9 st5 st19">o</text>
	<text transform="matrix(1 0 0 1 482.418 54.1191)" class="st9 st5 st19">l</text>
	<text transform="matrix(1 0 0 1 486.3564 54.1191)" class="st9 st5 st19">o</text>
	<text transform="matrix(1 0 0 1 494.9102 54.1191)" class="st9 st5 st19">m</text>
	<text transform="matrix(1 0 0 1 507.5391 54.1191)" class="st9 st5 st19">b</text>
	<text transform="matrix(1 0 0 1 516.1387 54.1191)" class="st9 st5 st19">i</text>
	<text transform="matrix(1 0 0 1 520.0762 54.1191)" class="st9 st5 st19">a by Year</text>
</g>
<rect x="188" y="507.1" class="st21" width="416.1" height="76.9"/>
<text transform="matrix(1 0 0 1 187.9717 518.1553)"><tspan x="0" y="0" class="st5 st22">Coca in Colombia is grown in remote areas. A marked effort by </tspan><tspan x="0" y="18" class="st5 st22">the authorities led to a decline in drug production in the early </tspan><tspan x="0" y="36" class="st5 st22">2010’s, although recent levels have rebounded. Despite this, </tspan><tspan x="0" y="54" class="st5 st22">the UN claims the global popularity of cocaine is in decline.</tspan></text>
<rect x="59.2" y="456.4" class="st21" width="26.9" height="9.3"/>
<text transform="matrix(1 0 0 1 59.2124 463.3779)" class="st4 st5 st6">1996</text>
<rect x="70.4" y="323.6" class="st21" width="31.4" height="9.8"/>
<text transform="matrix(1 0 0 1 70.4365 330.627)" class="st5 st6">67,200</text>
<rect x="101.8" y="301.8" class="st21" width="31.4" height="9.8"/>
<text transform="matrix(1 0 0 1 101.8237 308.8584)" class="st5 st6">79,500</text>
<rect x="137.1" y="257.9" class="st21" width="35.7" height="9.8"/>
<text transform="matrix(1 0 0 1 137.1084 264.9497)" class="st5 st6">101,800</text>
<rect x="172.8" y="219.7" class="st21" width="37.3" height="9.8"/>
<text transform="matrix(1 0 0 1 172.8159 226.729)" class="st5 st6">122,500</text>
<rect x="169.6" y="179" class="st21" width="35.7" height="9.8"/>
<text transform="matrix(1 0 0 1 169.6411 186.0415)" class="st5 st6">136,200</text>
<rect x="248" y="121.8" class="st21" width="37.3" height="9.8"/>
<text transform="matrix(1 0 0 1 248.0288 128.8423)" class="st5 st6">169,800</text>
<rect x="280.8" y="167.4" class="st21" width="37.9" height="9.8"/>
<text transform="matrix(1 0 0 1 280.8081 174.4263)" class="st5 st6">144,450</text>
<rect x="284.7" y="236.3" class="st21" width="36.6" height="9.8"/>
<text transform="matrix(1 0 0 1 284.7256 243.3403)" class="st5 st6">113,850</text>
<rect x="348.9" y="236.3" class="st21" width="38.3" height="9.8"/>
<text transform="matrix(1 0 0 1 348.8516 243.3403)" class="st5 st6">114,100</text>
<rect x="386.5" y="180.5" class="st21" width="41.1" height="9.8"/>
<text transform="matrix(1 0 0 1 386.4697 187.5073)" class="st5 st6">144,000</text>
<rect x="422.8" y="153.8" class="st21" width="37.1" height="9.8"/>
<text transform="matrix(1 0 0 1 422.7803 160.8135)" class="st5 st6">157,000</text>
<rect x="460.8" y="126.7" class="st21" width="38" height="9.8"/>
<text transform="matrix(1 0 0 1 460.7676 133.7363)" class="st5 st6">167,000</text>
<rect x="495.4" y="213.9" class="st21" width="36" height="9.8"/>
<text transform="matrix(1 0 0 1 495.4004 220.8794)" class="st5 st6">119,000</text>
<rect x="534.1" y="223.6" class="st21" width="41.5" height="9.8"/>
<text transform="matrix(1 0 0 1 534.1475 230.667)" class="st5 st6">116,000</text>
<rect x="567.3" y="251.2" class="st21" width="36.7" height="9.8"/>
<text transform="matrix(1 0 0 1 567.3301 258.2041)" class="st5 st6">100,000</text>
<rect x="604" y="283.3" class="st21" width="31.4" height="9.8"/>
<text transform="matrix(1 0 0 1 603.9883 290.2979)" class="st5 st6">83,000</text>
<rect x="638.7" y="303.3" class="st21" width="31.4" height="9.8"/>
<text transform="matrix(1 0 0 1 638.6611 310.3369)" class="st5 st6">78,000</text>
<rect x="677.1" y="286" class="st21" width="31.4" height="9.8"/>
<text transform="matrix(1 0 0 1 677.1172 293.0684)" class="st5 st6">85,000</text>
</svg>
