<?xml version="1.0" encoding="utf-8"?>
<!-- Generator: Adobe Illustrator 21.1.0, SVG Export Plug-In . SVG Version: 6.00 Build 0)  -->
<svg version="1.1" id="Layer_1" xmlns="http://www.w3.org/2000/svg" xmlns:xlink="http://www.w3.org/1999/xlink" x="0px" y="0px"
	 viewBox="0 0 792 612" style="enable-background:new 0 0 792 612;" xml:space="preserve">
<style type="text/css">
	@import url('https://fonts.googleapis.com/css?family=Lato:300,400');
	.st0{fill:none;}
	.st1{fill-rule:evenodd;clip-rule:evenodd;fill:none;}
	.st2{fill:#FFFFFF;}
	.st3{clip-path:url(#SVGID_2_);fill:none;stroke:#F4F4F4;stroke-width:0.75;stroke-linejoin:bevel;stroke-miterlimit:10;}
	.st4{clip-path:url(#SVGID_2_);}
	.st5{fill:#676767;}
	.st6{font-family:'Lato';}
	.st7{font-size:9.5288px;}
	.st8{clip-path:url(#SVGID_4_);fill:none;stroke:#F4F4F4;stroke-width:0.75;stroke-linejoin:bevel;stroke-miterlimit:10;}
	.st9{clip-path:url(#SVGID_4_);}
	.st10{fill:#333333;}
	.st11{clip-path:url(#SVGID_10_);fill:#FFFFFF;}
	.st12{clip-path:url(#SVGID_12_);fill:#FFFFFF;}
	.st13{clip-path:url(#SVGID_20_);fill:#FFFFFF;}

		.st14{clip-path:url(#SVGID_24_);fill:none;stroke:#F1F1F1;stroke-width:0.75;stroke-linecap:square;stroke-linejoin:bevel;stroke-miterlimit:10;}

		.st15{clip-path:url(#SVGID_28_);fill:none;stroke:#F1F1F1;stroke-width:0.75;stroke-linecap:square;stroke-linejoin:bevel;stroke-miterlimit:10;}

		.st16{clip-path:url(#SVGID_32_);fill:none;stroke:#CBCACA;stroke-width:0.75;stroke-linecap:square;stroke-linejoin:bevel;stroke-miterlimit:10;stroke-dasharray:0.75,1.5;}
	.st17{clip-path:url(#SVGID_62_);fill:none;stroke:#5794A1;stroke-miterlimit:10;}

		.st18{clip-path:url(#SVGID_62_);fill:none;stroke:#CBCACA;stroke-width:0.75;stroke-linecap:square;stroke-linejoin:bevel;stroke-miterlimit:10;stroke-dasharray:0.75,1.5;}

		.st19{clip-path:url(#SVGID_156_);fill:none;stroke:#F4F4F4;stroke-width:0.75;stroke-linecap:square;stroke-linejoin:bevel;stroke-miterlimit:10;}
	.st20{font-size:15.3927px;}
	.st21{letter-spacing:23;}
	.st22{fill:#1D1D1B;}
	.st23{font-size:15px;}
</style>
<rect x="188" y="507.1" class="st0" width="416.1" height="76.9"/>
<g>
	<g>
		<rect x="699.9" y="114.4" class="st1" width="63.2" height="381.2"/>
		<rect x="-5.1" y="70.9" class="st2" width="766.7" height="444.2"/>
		<rect x="-4.3" y="69.1" class="st2" width="766.7" height="414.1"/>
		<g>
			<defs>
				<rect id="SVGID_1_" x="44.8" y="443.6" width="718.3" height="40.3"/>
			</defs>
			<clipPath id="SVGID_2_">
				<use xlink:href="#SVGID_1_"  style="overflow:visible;"/>
			</clipPath>
			<line class="st3" x1="45.5" y1="444.4" x2="45.5" y2="448"/>
			<line class="st3" x1="81.4" y1="444.4" x2="81.4" y2="448"/>
			<line class="st3" x1="117.3" y1="444.4" x2="117.3" y2="448"/>
			<line class="st3" x1="153.2" y1="444.4" x2="153.2" y2="448"/>
			<line class="st3" x1="189.2" y1="444.4" x2="189.2" y2="448"/>
			<line class="st3" x1="225.1" y1="444.4" x2="225.1" y2="448"/>
			<line class="st3" x1="260.3" y1="444.4" x2="260.3" y2="448"/>
			<line class="st3" x1="296.2" y1="444.4" x2="296.2" y2="448"/>
			<line class="st3" x1="332.1" y1="444.4" x2="332.1" y2="448"/>
			<line class="st3" x1="368" y1="444.4" x2="368" y2="448"/>
			<line class="st3" x1="403.9" y1="444.4" x2="403.9" y2="448"/>
			<line class="st3" x1="439.8" y1="444.4" x2="439.8" y2="448"/>
			<line class="st3" x1="475.8" y1="444.4" x2="475.8" y2="448"/>
			<line class="st3" x1="511.7" y1="444.4" x2="511.7" y2="448"/>
			<line class="st3" x1="547.6" y1="444.4" x2="547.6" y2="448"/>
			<line class="st3" x1="583.5" y1="444.4" x2="583.5" y2="448"/>
			<line class="st3" x1="618.7" y1="444.4" x2="618.7" y2="448"/>
			<line class="st3" x1="654.6" y1="444.4" x2="654.6" y2="448"/>
			<line class="st3" x1="690.5" y1="444.4" x2="690.5" y2="448"/>
			<line class="st3" x1="726.4" y1="444.4" x2="726.4" y2="448"/>
			<g class="st4">
				<text transform="matrix(1 0 0 1 70.3692 459.0342)" class="st5 st6 st7">1</text>
			</g>
			<g class="st4">
				<text transform="matrix(1 0 0 1 75.8917 459.0342)" class="st5 st6 st7">9</text>
			</g>
			<g class="st4">
				<text transform="matrix(1 0 0 1 81.4102 459.0342)" class="st5 st6 st7">9</text>
			</g>
			<g class="st4">
				<text transform="matrix(1 0 0 1 86.9307 459.0342)" class="st5 st6 st7">7</text>
			</g>
			<g class="st4">
				<text transform="matrix(1 0 0 1 106.2872 459.0342)" class="st5 st6 st7">1</text>
			</g>
			<g class="st4">
				<text transform="matrix(1 0 0 1 111.8067 459.0342)" class="st5 st6 st7">9</text>
			</g>
			<g class="st4">
				<text transform="matrix(1 0 0 1 117.3272 459.0342)" class="st5 st6 st7">9</text>
			</g>
			<g class="st4">
				<text transform="matrix(1 0 0 1 122.8477 459.0342)" class="st5 st6 st7">8</text>
			</g>
			<g class="st4">
				<text transform="matrix(1 0 0 1 142.2022 459.0342)" class="st5 st6 st7">1</text>
			</g>
			<g class="st4">
				<text transform="matrix(1 0 0 1 147.7227 459.0342)" class="st5 st6 st7">9</text>
			</g>
			<g class="st4">
				<text transform="matrix(1 0 0 1 153.2442 459.0342)" class="st5 st6 st7">9</text>
			</g>
			<g class="st4">
				<text transform="matrix(1 0 0 1 158.7637 459.0342)" class="st5 st6 st7">9</text>
			</g>
			<g class="st4">
				<text transform="matrix(1 0 0 1 178.1202 459.0342)" class="st5 st6 st7">2</text>
			</g>
			<g class="st4">
				<text transform="matrix(1 0 0 1 183.6397 459.0342)" class="st5 st6 st7">0</text>
			</g>
			<g class="st4">
				<text transform="matrix(1 0 0 1 189.1592 459.0342)" class="st5 st6 st7">0</text>
			</g>
			<g class="st4">
				<text transform="matrix(1 0 0 1 194.6797 459.0342)" class="st5 st6 st7">0</text>
			</g>
			<g class="st4">
				<text transform="matrix(1 0 0 1 214.0362 459.0342)" class="st5 st6 st7">2</text>
			</g>
			<g class="st4">
				<text transform="matrix(1 0 0 1 219.5557 459.0342)" class="st5 st6 st7">0</text>
			</g>
			<g class="st4">
				<text transform="matrix(1 0 0 1 225.0762 459.0342)" class="st5 st6 st7">0</text>
			</g>
			<g class="st4">
				<text transform="matrix(1 0 0 1 230.5967 459.0342)" class="st5 st6 st7">1</text>
			</g>
			<g class="st4">
				<text transform="matrix(1 0 0 1 249.2188 459.0342)" class="st5 st6 st7">2</text>
			</g>
			<g class="st4">
				<text transform="matrix(1 0 0 1 254.7393 459.0342)" class="st5 st6 st7">0</text>
			</g>
			<g class="st4">
				<text transform="matrix(1 0 0 1 260.2598 459.0342)" class="st5 st6 st7">0</text>
			</g>
			<g class="st4">
				<text transform="matrix(1 0 0 1 265.7803 459.0342)" class="st5 st6 st7">2</text>
			</g>
			<g class="st4">
				<text transform="matrix(1 0 0 1 285.1358 459.0342)" class="st5 st6 st7">2</text>
			</g>
			<g class="st4">
				<text transform="matrix(1 0 0 1 290.6553 459.0342)" class="st5 st6 st7">0</text>
			</g>
			<g class="st4">
				<text transform="matrix(1 0 0 1 296.1768 459.0342)" class="st5 st6 st7">0</text>
			</g>
			<g class="st4">
				<text transform="matrix(1 0 0 1 301.6964 459.0342)" class="st5 st6 st7">3</text>
			</g>
			<g class="st4">
				<text transform="matrix(1 0 0 1 321.0508 459.0342)" class="st5 st6 st7">2</text>
			</g>
			<g class="st4">
				<text transform="matrix(1 0 0 1 326.5733 459.0342)" class="st5 st6 st7">0</text>
			</g>
			<g class="st4">
				<text transform="matrix(1 0 0 1 332.0919 459.0342)" class="st5 st6 st7">0</text>
			</g>
			<g class="st4">
				<text transform="matrix(1 0 0 1 337.6124 459.0342)" class="st5 st6 st7">4</text>
			</g>
			<g class="st4">
				<text transform="matrix(1 0 0 1 356.9688 459.0342)" class="st5 st6 st7">2</text>
			</g>
			<g class="st4">
				<text transform="matrix(1 0 0 1 362.4883 459.0342)" class="st5 st6 st7">0</text>
			</g>
			<g class="st4">
				<text transform="matrix(1 0 0 1 368.0089 459.0342)" class="st5 st6 st7">0</text>
			</g>
			<g class="st4">
				<text transform="matrix(1 0 0 1 373.5298 459.0342)" class="st5 st6 st7">5</text>
			</g>
			<g class="st4">
				<text transform="matrix(1 0 0 1 392.8834 459.0342)" class="st5 st6 st7">2</text>
			</g>
			<g class="st4">
				<text transform="matrix(1 0 0 1 398.4048 459.0342)" class="st5 st6 st7">0</text>
			</g>
			<g class="st4">
				<text transform="matrix(1 0 0 1 403.9263 459.0342)" class="st5 st6 st7">0</text>
			</g>
			<g class="st4">
				<text transform="matrix(1 0 0 1 409.4459 459.0342)" class="st5 st6 st7">6</text>
			</g>
			<g class="st4">
				<text transform="matrix(1 0 0 1 428.8013 459.0342)" class="st5 st6 st7">2</text>
			</g>
			<g class="st4">
				<text transform="matrix(1 0 0 1 434.3209 459.0342)" class="st5 st6 st7">0</text>
			</g>
			<g class="st4">
				<text transform="matrix(1 0 0 1 439.8404 459.0342)" class="st5 st6 st7">0</text>
			</g>
			<g class="st4">
				<text transform="matrix(1 0 0 1 445.3619 459.0342)" class="st5 st6 st7">7</text>
			</g>
			<g class="st4">
				<text transform="matrix(1 0 0 1 464.7173 459.0342)" class="st5 st6 st7">2</text>
			</g>
			<g class="st4">
				<text transform="matrix(1 0 0 1 470.2369 459.0342)" class="st5 st6 st7">0</text>
			</g>
			<g class="st4">
				<text transform="matrix(1 0 0 1 475.7584 459.0342)" class="st5 st6 st7">0</text>
			</g>
			<g class="st4">
				<text transform="matrix(1 0 0 1 481.2779 459.0342)" class="st5 st6 st7">8</text>
			</g>
			<g class="st4">
				<text transform="matrix(1 0 0 1 500.6334 459.0342)" class="st5 st6 st7">2</text>
			</g>
			<g class="st4">
				<text transform="matrix(1 0 0 1 506.1548 459.0342)" class="st5 st6 st7">0</text>
			</g>
			<g class="st4">
				<text transform="matrix(1 0 0 1 511.6744 459.0342)" class="st5 st6 st7">0</text>
			</g>
			<g class="st4">
				<text transform="matrix(1 0 0 1 517.1939 459.0342)" class="st5 st6 st7">9</text>
			</g>
			<g class="st4">
				<text transform="matrix(1 0 0 1 536.5494 459.0342)" class="st5 st6 st7">2</text>
			</g>
			<g class="st4">
				<text transform="matrix(1 0 0 1 542.0689 459.0342)" class="st5 st6 st7">0</text>
			</g>
			<g class="st4">
				<text transform="matrix(1 0 0 1 547.5904 459.0342)" class="st5 st6 st7">1</text>
			</g>
			<g class="st4">
				<text transform="matrix(1 0 0 1 553.1099 459.0342)" class="st5 st6 st7">0</text>
			</g>
			<g class="st4">
				<text transform="matrix(1 0 0 1 572.4654 459.0342)" class="st5 st6 st7">2</text>
			</g>
			<g class="st4">
				<text transform="matrix(1 0 0 1 577.9869 459.0342)" class="st5 st6 st7">0</text>
			</g>
			<g class="st4">
				<text transform="matrix(1 0 0 1 583.5064 459.0342)" class="st5 st6 st7">1</text>
			</g>
			<g class="st4">
				<text transform="matrix(1 0 0 1 589.0279 459.0342)" class="st5 st6 st7">1</text>
			</g>
			<g class="st4">
				<text transform="matrix(1 0 0 1 607.6509 459.0342)" class="st5 st6 st7">2</text>
			</g>
			<g class="st4">
				<text transform="matrix(1 0 0 1 613.1705 459.0342)" class="st5 st6 st7">0</text>
			</g>
			<g class="st4">
				<text transform="matrix(1 0 0 1 618.69 459.0342)" class="st5 st6 st7">1</text>
			</g>
			<g class="st4">
				<text transform="matrix(1 0 0 1 624.2095 459.0342)" class="st5 st6 st7">2</text>
			</g>
			<g class="st4">
				<text transform="matrix(1 0 0 1 643.565 459.0342)" class="st5 st6 st7">2</text>
			</g>
			<g class="st4">
				<text transform="matrix(1 0 0 1 649.0865 459.0342)" class="st5 st6 st7">0</text>
			</g>
			<g class="st4">
				<text transform="matrix(1 0 0 1 654.606 459.0342)" class="st5 st6 st7">1</text>
			</g>
			<g class="st4">
				<text transform="matrix(1 0 0 1 660.1275 459.0342)" class="st5 st6 st7">3</text>
			</g>
			<g class="st4">
				<text transform="matrix(1 0 0 1 679.483 459.0342)" class="st5 st6 st7">2</text>
			</g>
			<g class="st4">
				<text transform="matrix(1 0 0 1 685.0025 459.0342)" class="st5 st6 st7">0</text>
			</g>
			<g class="st4">
				<text transform="matrix(1 0 0 1 690.522 459.0342)" class="st5 st6 st7">1</text>
			</g>
			<g class="st4">
				<text transform="matrix(1 0 0 1 696.0435 459.0342)" class="st5 st6 st7">4</text>
			</g>
			<g class="st4">
				<text transform="matrix(1 0 0 1 715.399 459.0342)" class="st5 st6 st7">2</text>
			</g>
			<g class="st4">
				<text transform="matrix(1 0 0 1 720.9185 459.0342)" class="st5 st6 st7">0</text>
			</g>
			<g class="st4">
				<text transform="matrix(1 0 0 1 726.44 459.0342)" class="st5 st6 st7">1</text>
			</g>
			<g class="st4">
				<text transform="matrix(1 0 0 1 731.9595 459.0342)" class="st5 st6 st7">5</text>
			</g>
		</g>
		<g>
			<defs>
				<rect id="SVGID_3_" x="-5.1" y="68.4" width="51.3" height="376.8"/>
			</defs>
			<clipPath id="SVGID_4_">
				<use xlink:href="#SVGID_3_"  style="overflow:visible;"/>
			</clipPath>
			<line class="st8" x1="41.8" y1="444.4" x2="45.5" y2="444.4"/>
			<line class="st8" x1="41.8" y1="406.3" x2="45.5" y2="406.3"/>
			<line class="st8" x1="41.8" y1="368.9" x2="45.5" y2="368.9"/>
			<line class="st8" x1="41.8" y1="330.8" x2="45.5" y2="330.8"/>
			<line class="st8" x1="41.8" y1="292.6" x2="45.5" y2="292.6"/>
			<line class="st8" x1="41.8" y1="254.5" x2="45.5" y2="254.5"/>
			<line class="st8" x1="41.8" y1="217.1" x2="45.5" y2="217.1"/>
			<line class="st8" x1="41.8" y1="179" x2="45.5" y2="179"/>
			<line class="st8" x1="41.8" y1="140.9" x2="45.5" y2="140.9"/>
			<line class="st8" x1="41.8" y1="103.5" x2="45.5" y2="103.5"/>
			<g class="st9">
				<text transform="matrix(1 0 0 1 28.3604 442.1758)" class="st5 st6 st7">0</text>
			</g>
			<g class="st9">
				<text transform="matrix(1 0 0 1 33.8809 442.1758)" class="st5 st6 st7">K</text>
			</g>
			<g class="st9">
				<text transform="matrix(1 0 0 1 22.8409 409.9229)" class="st5 st6 st7">2</text>
			</g>
			<g class="st9">
				<text transform="matrix(1 0 0 1 28.3604 409.9229)" class="st5 st6 st7">0</text>
			</g>
			<g class="st9">
				<text transform="matrix(1 0 0 1 33.8809 409.9229)" class="st5 st6 st7">K</text>
			</g>
			<g class="st9">
				<text transform="matrix(1 0 0 1 22.8409 372.542)" class="st5 st6 st7">4</text>
			</g>
			<g class="st9">
				<text transform="matrix(1 0 0 1 28.3604 372.542)" class="st5 st6 st7">0</text>
			</g>
			<g class="st9">
				<text transform="matrix(1 0 0 1 33.8809 372.542)" class="st5 st6 st7">K</text>
			</g>
			<g class="st9">
				<text transform="matrix(1 0 0 1 22.8409 334.4268)" class="st5 st6 st7">6</text>
			</g>
			<g class="st9">
				<text transform="matrix(1 0 0 1 28.3604 334.4268)" class="st5 st6 st7">0</text>
			</g>
			<g class="st9">
				<text transform="matrix(1 0 0 1 33.8809 334.4268)" class="st5 st6 st7">K</text>
			</g>
			<g class="st9">
				<text transform="matrix(1 0 0 1 22.8409 296.3115)" class="st5 st6 st7">8</text>
			</g>
			<g class="st9">
				<text transform="matrix(1 0 0 1 28.3604 296.3115)" class="st5 st6 st7">0</text>
			</g>
			<g class="st9">
				<text transform="matrix(1 0 0 1 33.8809 296.3115)" class="st5 st6 st7">K</text>
			</g>
			<g class="st9">
				<text transform="matrix(1 0 0 1 17.3194 258.1953)" class="st5 st6 st7">1</text>
			</g>
			<g class="st9">
				<text transform="matrix(1 0 0 1 22.8409 258.1953)" class="st5 st6 st7">0</text>
			</g>
			<g class="st9">
				<text transform="matrix(1 0 0 1 28.3604 258.1953)" class="st5 st6 st7">0</text>
			</g>
			<g class="st9">
				<text transform="matrix(1 0 0 1 33.8809 258.1953)" class="st5 st6 st7">K</text>
			</g>
			<g class="st9">
				<text transform="matrix(1 0 0 1 17.3194 220.8135)" class="st5 st6 st7">1</text>
			</g>
			<g class="st9">
				<text transform="matrix(1 0 0 1 22.8409 220.8135)" class="st5 st6 st7">2</text>
			</g>
			<g class="st9">
				<text transform="matrix(1 0 0 1 28.3604 220.8135)" class="st5 st6 st7">0</text>
			</g>
			<g class="st9">
				<text transform="matrix(1 0 0 1 33.8809 220.8135)" class="st5 st6 st7">K</text>
			</g>
			<g class="st9">
				<text transform="matrix(1 0 0 1 17.3194 182.6982)" class="st5 st6 st7">1</text>
			</g>
			<g class="st9">
				<text transform="matrix(1 0 0 1 22.8409 182.6982)" class="st5 st6 st7">4</text>
			</g>
			<g class="st9">
				<text transform="matrix(1 0 0 1 28.3604 182.6982)" class="st5 st6 st7">0</text>
			</g>
			<g class="st9">
				<text transform="matrix(1 0 0 1 33.8809 182.6982)" class="st5 st6 st7">K</text>
			</g>
			<g class="st9">
				<text transform="matrix(1 0 0 1 17.3194 144.583)" class="st5 st6 st7">1</text>
			</g>
			<g class="st9">
				<text transform="matrix(1 0 0 1 22.8409 144.583)" class="st5 st6 st7">6</text>
			</g>
			<g class="st9">
				<text transform="matrix(1 0 0 1 28.3604 144.583)" class="st5 st6 st7">0</text>
			</g>
			<g class="st9">
				<text transform="matrix(1 0 0 1 33.8809 144.583)" class="st5 st6 st7">K</text>
			</g>
			<g class="st9">
				<text transform="matrix(1 0 0 1 17.3194 107.1992)" class="st5 st6 st7">1</text>
			</g>
			<g class="st9">
				<text transform="matrix(1 0 0 1 22.8409 107.1992)" class="st5 st6 st7">8</text>
			</g>
			<g class="st9">
				<text transform="matrix(1 0 0 1 28.3604 107.1992)" class="st5 st6 st7">0</text>
			</g>
			<g class="st9">
				<text transform="matrix(1 0 0 1 33.8809 107.1992)" class="st5 st6 st7">K</text>
			</g>
			<g class="st9">
				<text transform="matrix(0 -1 1 0 10.1846 274.9678)" class="st10 st6 st7">H</text>
			</g>
			<g class="st9">
				<text transform="matrix(0 -1 1 0 10.1846 267.7754)" class="st10 st6 st7">e</text>
			</g>
			<g class="st9">
				<text transform="matrix(0 -1 1 0 10.1846 262.7949)" class="st10 st6 st7">c</text>
			</g>
			<g class="st9">
				<text transform="matrix(0 -1 1 0 10.1846 258.3496)" class="st10 st6 st7">t</text>
			</g>
			<g class="st9">
				<text transform="matrix(0 -1 1 0 10.1846 254.7998)" class="st10 st6 st7">a</text>
			</g>
			<g class="st9">
				<text transform="matrix(0 -1 1 0 10.1846 249.9785)" class="st10 st6 st7">r</text>
			</g>
			<g class="st9">
				<text transform="matrix(0 -1 1 0 10.1846 246.1406)" class="st10 st6 st7">e</text>
			</g>
			<g class="st9">
				<text transform="matrix(0 -1 1 0 10.1846 241.1592)" class="st10 st6 st7">s</text>
			</g>
		</g>
		<g>
			<defs>
				<rect id="SVGID_5_" x="-5.1" y="68.4" width="51.3" height="376.8"/>
			</defs>
			<clipPath id="SVGID_6_">
				<use xlink:href="#SVGID_5_"  style="overflow:visible;"/>
			</clipPath>
		</g>
		<g>
			<defs>
				<rect id="SVGID_7_" x="45.5" y="69.1" width="717.6" height="376"/>
			</defs>
			<clipPath id="SVGID_8_">
				<use xlink:href="#SVGID_7_"  style="overflow:visible;"/>
			</clipPath>
		</g>
		<g>
			<defs>
				<rect id="SVGID_9_" x="45.5" y="69.1" width="717.6" height="376"/>
			</defs>
			<clipPath id="SVGID_10_">
				<use xlink:href="#SVGID_9_"  style="overflow:visible;"/>
			</clipPath>
			<rect x="45.5" y="69.1" class="st11" width="717.6" height="376"/>
			<rect x="45.5" y="99.1" class="st11" width="717.6" height="346"/>
		</g>
		<g>
			<defs>
				<rect id="SVGID_11_" x="45.5" y="69.1" width="717.6" height="376"/>
			</defs>
			<clipPath id="SVGID_12_">
				<use xlink:href="#SVGID_11_"  style="overflow:visible;"/>
			</clipPath>
			<rect x="45.5" y="69.1" class="st12" width="717.6" height="376"/>
		</g>
		<g>
			<defs>
				<rect id="SVGID_13_" x="45.5" y="69.1" width="717.6" height="376"/>
			</defs>
			<clipPath id="SVGID_14_">
				<use xlink:href="#SVGID_13_"  style="overflow:visible;"/>
			</clipPath>
		</g>
		<g>
			<defs>
				<rect id="SVGID_15_" x="45.5" y="69.1" width="717.6" height="376"/>
			</defs>
			<clipPath id="SVGID_16_">
				<use xlink:href="#SVGID_15_"  style="overflow:visible;"/>
			</clipPath>
		</g>
		<g>
			<defs>
				<rect id="SVGID_17_" x="45.5" y="69.1" width="717.6" height="376"/>
			</defs>
			<clipPath id="SVGID_18_">
				<use xlink:href="#SVGID_17_"  style="overflow:visible;"/>
			</clipPath>
		</g>
		<g>
			<defs>
				<rect id="SVGID_19_" x="45.5" y="69.1" width="717.6" height="376"/>
			</defs>
			<clipPath id="SVGID_20_">
				<use xlink:href="#SVGID_19_"  style="overflow:visible;"/>
			</clipPath>
			<rect x="45.5" y="69.1" class="st13" width="717.6" height="376"/>
		</g>
		<g>
			<defs>
				<rect id="SVGID_21_" x="45.5" y="69.1" width="717.6" height="376"/>
			</defs>
			<clipPath id="SVGID_22_">
				<use xlink:href="#SVGID_21_"  style="overflow:visible;"/>
			</clipPath>
		</g>
		<g>
			<defs>
				<rect id="SVGID_23_" x="45.5" y="69.1" width="716.9" height="375.3"/>
			</defs>
			<clipPath id="SVGID_24_">
				<use xlink:href="#SVGID_23_"  style="overflow:visible;"/>
			</clipPath>
			<line class="st14" x1="45.5" y1="406.3" x2="762.4" y2="406.3"/>
			<line class="st14" x1="45.5" y1="368.9" x2="762.4" y2="368.9"/>
			<line class="st14" x1="45.5" y1="330.8" x2="762.4" y2="330.8"/>
			<line class="st14" x1="45.5" y1="292.6" x2="762.4" y2="292.6"/>
			<line class="st14" x1="45.5" y1="254.5" x2="762.4" y2="254.5"/>
			<line class="st14" x1="45.5" y1="217.1" x2="762.4" y2="217.1"/>
			<line class="st14" x1="45.5" y1="179" x2="762.4" y2="179"/>
			<line class="st14" x1="45.5" y1="140.9" x2="762.4" y2="140.9"/>
			<line class="st14" x1="45.5" y1="103.5" x2="762.4" y2="103.5"/>
		</g>
		<g>
			<defs>
				<rect id="SVGID_25_" x="45.5" y="69.1" width="717.6" height="376"/>
			</defs>
			<clipPath id="SVGID_26_">
				<use xlink:href="#SVGID_25_"  style="overflow:visible;"/>
			</clipPath>
		</g>
		<g>
			<defs>
				<rect id="SVGID_27_" x="45.5" y="69.1" width="716.9" height="375.3"/>
			</defs>
			<clipPath id="SVGID_28_">
				<use xlink:href="#SVGID_27_"  style="overflow:visible;"/>
			</clipPath>
			<line class="st15" x1="45.5" y1="443.6" x2="45.5" y2="69.1"/>
			<line class="st15" x1="81.4" y1="443.6" x2="81.4" y2="69.1"/>
			<line class="st15" x1="117.3" y1="443.6" x2="117.3" y2="69.1"/>
			<line class="st15" x1="153.2" y1="443.6" x2="153.2" y2="69.1"/>
			<line class="st15" x1="189.2" y1="443.6" x2="189.2" y2="69.1"/>
			<line class="st15" x1="225.1" y1="443.6" x2="225.1" y2="69.1"/>
			<line class="st15" x1="260.3" y1="443.6" x2="260.3" y2="69.1"/>
			<line class="st15" x1="296.2" y1="443.6" x2="296.2" y2="69.1"/>
			<line class="st15" x1="332.1" y1="443.6" x2="332.1" y2="69.1"/>
			<line class="st15" x1="368" y1="443.6" x2="368" y2="69.1"/>
			<line class="st15" x1="403.9" y1="443.6" x2="403.9" y2="69.1"/>
			<line class="st15" x1="439.8" y1="443.6" x2="439.8" y2="69.1"/>
			<line class="st15" x1="475.8" y1="443.6" x2="475.8" y2="69.1"/>
			<line class="st15" x1="511.7" y1="443.6" x2="511.7" y2="69.1"/>
			<line class="st15" x1="547.6" y1="443.6" x2="547.6" y2="69.1"/>
			<line class="st15" x1="583.5" y1="443.6" x2="583.5" y2="69.1"/>
			<line class="st15" x1="618.7" y1="443.6" x2="618.7" y2="69.1"/>
			<line class="st15" x1="654.6" y1="443.6" x2="654.6" y2="69.1"/>
			<line class="st15" x1="690.5" y1="443.6" x2="690.5" y2="69.1"/>
			<line class="st15" x1="726.4" y1="443.6" x2="726.4" y2="69.1"/>
		</g>
		<g>
			<defs>
				<rect id="SVGID_29_" x="45.5" y="69.1" width="717.6" height="376"/>
			</defs>
			<clipPath id="SVGID_30_">
				<use xlink:href="#SVGID_29_"  style="overflow:visible;"/>
			</clipPath>
		</g>
		<g>
			<defs>
				<rect id="SVGID_31_" x="45.5" y="69.1" width="716.9" height="375.3"/>
			</defs>
			<clipPath id="SVGID_32_">
				<use xlink:href="#SVGID_31_"  style="overflow:visible;"/>
			</clipPath>
			<line class="st16" x1="45.5" y1="444.4" x2="762.4" y2="444.4"/>
		</g>
		<g>
			<defs>
				<rect id="SVGID_33_" x="45.5" y="69.1" width="717.6" height="376"/>
			</defs>
			<clipPath id="SVGID_34_">
				<use xlink:href="#SVGID_33_"  style="overflow:visible;"/>
			</clipPath>
		</g>
		<g>
			<defs>
				<rect id="SVGID_35_" x="45.5" y="69.1" width="716.9" height="375.3"/>
			</defs>
			<clipPath id="SVGID_36_">
				<use xlink:href="#SVGID_35_"  style="overflow:visible;"/>
			</clipPath>
		</g>
		<g>
			<defs>
				<rect id="SVGID_37_" x="45.5" y="69.1" width="717.6" height="376"/>
			</defs>
			<clipPath id="SVGID_38_">
				<use xlink:href="#SVGID_37_"  style="overflow:visible;"/>
			</clipPath>
		</g>
		<g>
			<defs>
				<rect id="SVGID_39_" x="45.5" y="69.1" width="716.9" height="375.3"/>
			</defs>
			<clipPath id="SVGID_40_">
				<use xlink:href="#SVGID_39_"  style="overflow:visible;"/>
			</clipPath>
		</g>
		<g>
			<defs>
				<rect id="SVGID_41_" x="45.5" y="69.1" width="717.6" height="376"/>
			</defs>
			<clipPath id="SVGID_42_">
				<use xlink:href="#SVGID_41_"  style="overflow:visible;"/>
			</clipPath>
		</g>
		<g>
			<defs>
				<rect id="SVGID_43_" x="45.5" y="69.1" width="717.6" height="376"/>
			</defs>
			<clipPath id="SVGID_44_">
				<use xlink:href="#SVGID_43_"  style="overflow:visible;"/>
			</clipPath>
		</g>
		<g>
			<defs>
				<rect id="SVGID_45_" x="45.5" y="69.1" width="716.9" height="375.3"/>
			</defs>
			<clipPath id="SVGID_46_">
				<use xlink:href="#SVGID_45_"  style="overflow:visible;"/>
			</clipPath>
		</g>
		<g>
			<defs>
				<rect id="SVGID_47_" x="45.5" y="69.1" width="717.6" height="376"/>
			</defs>
			<clipPath id="SVGID_48_">
				<use xlink:href="#SVGID_47_"  style="overflow:visible;"/>
			</clipPath>
		</g>
		<g>
			<defs>
				<rect id="SVGID_49_" x="45.5" y="69.1" width="716.9" height="375.3"/>
			</defs>
			<clipPath id="SVGID_50_">
				<use xlink:href="#SVGID_49_"  style="overflow:visible;"/>
			</clipPath>
		</g>
		<g>
			<defs>
				<rect id="SVGID_51_" x="45.5" y="69.1" width="717.6" height="376"/>
			</defs>
			<clipPath id="SVGID_52_">
				<use xlink:href="#SVGID_51_"  style="overflow:visible;"/>
			</clipPath>
		</g>
		<g>
			<defs>
				<rect id="SVGID_53_" x="45.5" y="69.1" width="716.9" height="375.3"/>
			</defs>
			<clipPath id="SVGID_54_">
				<use xlink:href="#SVGID_53_"  style="overflow:visible;"/>
			</clipPath>
		</g>
		<g>
			<defs>
				<rect id="SVGID_55_" x="45.5" y="69.1" width="717.6" height="376"/>
			</defs>
			<clipPath id="SVGID_56_">
				<use xlink:href="#SVGID_55_"  style="overflow:visible;"/>
			</clipPath>
		</g>
		<g>
			<defs>
				<rect id="SVGID_57_" x="45.5" y="69.1" width="716.9" height="375.3"/>
			</defs>
			<clipPath id="SVGID_58_">
				<use xlink:href="#SVGID_57_"  style="overflow:visible;"/>
			</clipPath>
		</g>
		<g>
			<defs>
				<rect id="SVGID_59_" x="45.5" y="69.1" width="717.6" height="376"/>
			</defs>
			<clipPath id="SVGID_60_">
				<use xlink:href="#SVGID_59_"  style="overflow:visible;"/>
			</clipPath>
		</g>
		<g>
			<defs>
				<rect id="SVGID_61_" x="45.5" y="69.1" width="716.9" height="375.3"/>
			</defs>
			<clipPath id="SVGID_62_">
				<use xlink:href="#SVGID_61_"  style="overflow:visible;"/>
			</clipPath>
			<polyline class="st17" points="45.9,317.4 81.7,294 117.5,251.8 153.4,212.5 189.2,186.6 225.1,122.9 260.9,170.9 296.8,228.9
				332.6,228.5 368.4,171.8 404.3,147.1 440.1,128.2 476,219.2 511.8,224.9 547.7,255.2 583.5,287.4 619.4,296.9 655.2,283.6
				691,232.4 726.9,143.3 762.7,88.4 			"/>
			<path class="st18" d="M45.5,69.1"/>
		</g>
		<g>
			<defs>
				<rect id="SVGID_63_" x="45.5" y="69.1" width="717.6" height="376"/>
			</defs>
			<clipPath id="SVGID_64_">
				<use xlink:href="#SVGID_63_"  style="overflow:visible;"/>
			</clipPath>
		</g>
		<g>
			<defs>
				<rect id="SVGID_65_" x="45.5" y="69.1" width="717.6" height="376"/>
			</defs>
			<clipPath id="SVGID_66_">
				<use xlink:href="#SVGID_65_"  style="overflow:visible;"/>
			</clipPath>
		</g>
		<g>
			<defs>
				<rect id="SVGID_67_" x="45.5" y="69.1" width="716.9" height="375.3"/>
			</defs>
			<clipPath id="SVGID_68_">
				<use xlink:href="#SVGID_67_"  style="overflow:visible;"/>
			</clipPath>
		</g>
		<g>
			<defs>
				<rect id="SVGID_69_" x="45.5" y="69.1" width="717.6" height="376"/>
			</defs>
			<clipPath id="SVGID_70_">
				<use xlink:href="#SVGID_69_"  style="overflow:visible;"/>
			</clipPath>
		</g>
		<g>
			<defs>
				<rect id="SVGID_71_" x="45.5" y="69.1" width="716.9" height="375.3"/>
			</defs>
			<clipPath id="SVGID_72_">
				<use xlink:href="#SVGID_71_"  style="overflow:visible;"/>
			</clipPath>
		</g>
		<g>
			<defs>
				<rect id="SVGID_73_" x="45.5" y="69.1" width="717.6" height="376"/>
			</defs>
			<clipPath id="SVGID_74_">
				<use xlink:href="#SVGID_73_"  style="overflow:visible;"/>
			</clipPath>
		</g>
		<g>
			<defs>
				<rect id="SVGID_75_" x="45.5" y="69.1" width="716.9" height="375.3"/>
			</defs>
			<clipPath id="SVGID_76_">
				<use xlink:href="#SVGID_75_"  style="overflow:visible;"/>
			</clipPath>
		</g>
		<g>
			<defs>
				<rect id="SVGID_77_" x="45.5" y="69.1" width="717.6" height="376"/>
			</defs>
			<clipPath id="SVGID_78_">
				<use xlink:href="#SVGID_77_"  style="overflow:visible;"/>
			</clipPath>
		</g>
		<g>
			<defs>
				<rect id="SVGID_79_" x="45.5" y="69.1" width="716.9" height="375.3"/>
			</defs>
			<clipPath id="SVGID_80_">
				<use xlink:href="#SVGID_79_"  style="overflow:visible;"/>
			</clipPath>
		</g>
		<g>
			<defs>
				<rect id="SVGID_81_" x="45.5" y="69.1" width="717.6" height="376"/>
			</defs>
			<clipPath id="SVGID_82_">
				<use xlink:href="#SVGID_81_"  style="overflow:visible;"/>
			</clipPath>
		</g>
		<g>
			<defs>
				<rect id="SVGID_83_" x="45.5" y="69.1" width="716.9" height="375.3"/>
			</defs>
			<clipPath id="SVGID_84_">
				<use xlink:href="#SVGID_83_"  style="overflow:visible;"/>
			</clipPath>
		</g>
		<g>
			<defs>
				<rect id="SVGID_85_" x="45.5" y="69.1" width="717.6" height="376"/>
			</defs>
			<clipPath id="SVGID_86_">
				<use xlink:href="#SVGID_85_"  style="overflow:visible;"/>
			</clipPath>
		</g>
		<g>
			<defs>
				<rect id="SVGID_87_" x="45.5" y="69.1" width="717.6" height="376"/>
			</defs>
			<clipPath id="SVGID_88_">
				<use xlink:href="#SVGID_87_"  style="overflow:visible;"/>
			</clipPath>
		</g>
		<g>
			<defs>
				<rect id="SVGID_89_" x="45.5" y="69.1" width="716.9" height="375.3"/>
			</defs>
			<clipPath id="SVGID_90_">
				<use xlink:href="#SVGID_89_"  style="overflow:visible;"/>
			</clipPath>
		</g>
		<g>
			<defs>
				<rect id="SVGID_91_" x="45.5" y="69.1" width="717.6" height="376"/>
			</defs>
			<clipPath id="SVGID_92_">
				<use xlink:href="#SVGID_91_"  style="overflow:visible;"/>
			</clipPath>
		</g>
		<g>
			<defs>
				<rect id="SVGID_93_" x="45.5" y="69.1" width="716.9" height="375.3"/>
			</defs>
			<clipPath id="SVGID_94_">
				<use xlink:href="#SVGID_93_"  style="overflow:visible;"/>
			</clipPath>
		</g>
		<g>
			<defs>
				<rect id="SVGID_95_" x="45.5" y="69.1" width="717.6" height="376"/>
			</defs>
			<clipPath id="SVGID_96_">
				<use xlink:href="#SVGID_95_"  style="overflow:visible;"/>
			</clipPath>
		</g>
		<g>
			<defs>
				<rect id="SVGID_97_" x="45.5" y="69.1" width="716.9" height="375.3"/>
			</defs>
			<clipPath id="SVGID_98_">
				<use xlink:href="#SVGID_97_"  style="overflow:visible;"/>
			</clipPath>
		</g>
		<g>
			<defs>
				<rect id="SVGID_99_" x="45.5" y="69.1" width="717.6" height="376"/>
			</defs>
			<clipPath id="SVGID_100_">
				<use xlink:href="#SVGID_99_"  style="overflow:visible;"/>
			</clipPath>
		</g>
		<g>
			<defs>
				<rect id="SVGID_101_" x="45.5" y="69.1" width="716.9" height="375.3"/>
			</defs>
			<clipPath id="SVGID_102_">
				<use xlink:href="#SVGID_101_"  style="overflow:visible;"/>
			</clipPath>
		</g>
		<g>
			<defs>
				<rect id="SVGID_103_" x="45.5" y="69.1" width="717.6" height="376"/>
			</defs>
			<clipPath id="SVGID_104_">
				<use xlink:href="#SVGID_103_"  style="overflow:visible;"/>
			</clipPath>
		</g>
		<g>
			<defs>
				<rect id="SVGID_105_" x="45.5" y="69.1" width="716.9" height="375.3"/>
			</defs>
			<clipPath id="SVGID_106_">
				<use xlink:href="#SVGID_105_"  style="overflow:visible;"/>
			</clipPath>
		</g>
		<g>
			<defs>
				<rect id="SVGID_107_" x="45.5" y="69.1" width="717.6" height="376"/>
			</defs>
			<clipPath id="SVGID_108_">
				<use xlink:href="#SVGID_107_"  style="overflow:visible;"/>
			</clipPath>
		</g>
		<g>
			<defs>
				<rect id="SVGID_109_" x="45.5" y="69.1" width="717.6" height="376"/>
			</defs>
			<clipPath id="SVGID_110_">
				<use xlink:href="#SVGID_109_"  style="overflow:visible;"/>
			</clipPath>
		</g>
		<g>
			<defs>
				<rect id="SVGID_111_" x="45.5" y="69.1" width="716.9" height="375.3"/>
			</defs>
			<clipPath id="SVGID_112_">
				<use xlink:href="#SVGID_111_"  style="overflow:visible;"/>
			</clipPath>
		</g>
		<g>
			<defs>
				<rect id="SVGID_113_" x="45.5" y="69.1" width="717.6" height="376"/>
			</defs>
			<clipPath id="SVGID_114_">
				<use xlink:href="#SVGID_113_"  style="overflow:visible;"/>
			</clipPath>
		</g>
		<g>
			<defs>
				<rect id="SVGID_115_" x="45.5" y="69.1" width="716.9" height="375.3"/>
			</defs>
			<clipPath id="SVGID_116_">
				<use xlink:href="#SVGID_115_"  style="overflow:visible;"/>
			</clipPath>
		</g>
		<g>
			<defs>
				<rect id="SVGID_117_" x="45.5" y="69.1" width="717.6" height="376"/>
			</defs>
			<clipPath id="SVGID_118_">
				<use xlink:href="#SVGID_117_"  style="overflow:visible;"/>
			</clipPath>
		</g>
		<g>
			<defs>
				<rect id="SVGID_119_" x="45.5" y="69.1" width="716.9" height="375.3"/>
			</defs>
			<clipPath id="SVGID_120_">
				<use xlink:href="#SVGID_119_"  style="overflow:visible;"/>
			</clipPath>
		</g>
		<g>
			<defs>
				<rect id="SVGID_121_" x="45.5" y="69.1" width="717.6" height="376"/>
			</defs>
			<clipPath id="SVGID_122_">
				<use xlink:href="#SVGID_121_"  style="overflow:visible;"/>
			</clipPath>
		</g>
		<g>
			<defs>
				<rect id="SVGID_123_" x="45.5" y="69.1" width="716.9" height="375.3"/>
			</defs>
			<clipPath id="SVGID_124_">
				<use xlink:href="#SVGID_123_"  style="overflow:visible;"/>
			</clipPath>
		</g>
		<g>
			<defs>
				<rect id="SVGID_125_" x="45.5" y="69.1" width="717.6" height="376"/>
			</defs>
			<clipPath id="SVGID_126_">
				<use xlink:href="#SVGID_125_"  style="overflow:visible;"/>
			</clipPath>
		</g>
		<g>
			<defs>
				<rect id="SVGID_127_" x="45.5" y="69.1" width="716.9" height="375.3"/>
			</defs>
			<clipPath id="SVGID_128_">
				<use xlink:href="#SVGID_127_"  style="overflow:visible;"/>
			</clipPath>
		</g>
		<g>
			<defs>
				<rect id="SVGID_129_" x="45.5" y="69.1" width="717.6" height="376"/>
			</defs>
			<clipPath id="SVGID_130_">
				<use xlink:href="#SVGID_129_"  style="overflow:visible;"/>
			</clipPath>
		</g>
		<g>
			<defs>
				<rect id="SVGID_131_" x="45.5" y="69.1" width="717.6" height="376"/>
			</defs>
			<clipPath id="SVGID_132_">
				<use xlink:href="#SVGID_131_"  style="overflow:visible;"/>
			</clipPath>
		</g>
		<g>
			<defs>
				<rect id="SVGID_133_" x="45.5" y="69.1" width="716.9" height="375.3"/>
			</defs>
			<clipPath id="SVGID_134_">
				<use xlink:href="#SVGID_133_"  style="overflow:visible;"/>
			</clipPath>
		</g>
		<g>
			<defs>
				<rect id="SVGID_135_" x="45.5" y="69.1" width="717.6" height="376"/>
			</defs>
			<clipPath id="SVGID_136_">
				<use xlink:href="#SVGID_135_"  style="overflow:visible;"/>
			</clipPath>
		</g>
		<g>
			<defs>
				<rect id="SVGID_137_" x="45.5" y="69.1" width="716.9" height="375.3"/>
			</defs>
			<clipPath id="SVGID_138_">
				<use xlink:href="#SVGID_137_"  style="overflow:visible;"/>
			</clipPath>
		</g>
		<g>
			<defs>
				<rect id="SVGID_139_" x="45.5" y="69.1" width="717.6" height="376"/>
			</defs>
			<clipPath id="SVGID_140_">
				<use xlink:href="#SVGID_139_"  style="overflow:visible;"/>
			</clipPath>
		</g>
		<g>
			<defs>
				<rect id="SVGID_141_" x="45.5" y="69.1" width="716.9" height="375.3"/>
			</defs>
			<clipPath id="SVGID_142_">
				<use xlink:href="#SVGID_141_"  style="overflow:visible;"/>
			</clipPath>
		</g>
		<g>
			<defs>
				<rect id="SVGID_143_" x="45.5" y="69.1" width="717.6" height="376"/>
			</defs>
			<clipPath id="SVGID_144_">
				<use xlink:href="#SVGID_143_"  style="overflow:visible;"/>
			</clipPath>
		</g>
		<g>
			<defs>
				<rect id="SVGID_145_" x="45.5" y="69.1" width="716.9" height="375.3"/>
			</defs>
			<clipPath id="SVGID_146_">
				<use xlink:href="#SVGID_145_"  style="overflow:visible;"/>
			</clipPath>
		</g>
		<g>
			<defs>
				<rect id="SVGID_147_" x="45.5" y="69.1" width="717.6" height="376"/>
			</defs>
			<clipPath id="SVGID_148_">
				<use xlink:href="#SVGID_147_"  style="overflow:visible;"/>
			</clipPath>
		</g>
		<g>
			<defs>
				<rect id="SVGID_149_" x="45.5" y="69.1" width="716.9" height="375.3"/>
			</defs>
			<clipPath id="SVGID_150_">
				<use xlink:href="#SVGID_149_"  style="overflow:visible;"/>
			</clipPath>
		</g>
		<g>
			<defs>
				<rect id="SVGID_151_" x="45.5" y="69.1" width="717.6" height="376"/>
			</defs>
			<clipPath id="SVGID_152_">
				<use xlink:href="#SVGID_151_"  style="overflow:visible;"/>
			</clipPath>
		</g>
		<g>
			<defs>
				<rect id="SVGID_153_" x="45.5" y="69.1" width="717.6" height="376"/>
			</defs>
			<clipPath id="SVGID_154_">
				<use xlink:href="#SVGID_153_"  style="overflow:visible;"/>
			</clipPath>
		</g>
		<g>
			<defs>
				<rect id="SVGID_155_" x="45.5" y="69.1" width="717.6" height="376"/>
			</defs>
			<clipPath id="SVGID_156_">
				<use xlink:href="#SVGID_155_"  style="overflow:visible;"/>
			</clipPath>
			<line class="st19" x1="45.5" y1="444.4" x2="762.4" y2="444.4"/>
			<line class="st19" x1="45.5" y1="69.1" x2="45.5" y2="444.4"/>
		</g>
		<g>
			<defs>
				<rect id="SVGID_157_" x="45.5" y="69.1" width="717.6" height="376"/>
			</defs>
			<clipPath id="SVGID_158_">
				<use xlink:href="#SVGID_157_"  style="overflow:visible;"/>
			</clipPath>
		</g>
		<text transform="matrix(1 0 0 1 243.0801 58.8223)" class="st10 st6 st20">H</text>
		<text transform="matrix(1 0 0 1 254.7159 58.8223)" class="st10 st6 st20">e</text>
		<text transform="matrix(1 0 0 1 262.7794 58.8223)" class="st10 st6 st20">c</text>
		<text transform="matrix(1 0 0 1 269.96 58.8223)" class="st10 st6 st20">t</text>
		<text transform="matrix(1 0 0 1 275.6983 58.8223)" class="st10 st6 st20">a</text>
		<text transform="matrix(1 0 0 1 283.4971 58.8223)" class="st10 st6 st20">r</text>
		<text transform="matrix(1 0 0 1 289.6944 58.8223)" class="st10 st6 st20">e</text>
		<text transform="matrix(1 0 0 1 297.7569 58.8223)" class="st10 st6 st20">s</text>
		<text transform="matrix(1 0 0 1 304.4337 58.8223)" class="st10 st6 st20 st21">	</text>
		<text transform="matrix(1 0 0 1 307.3995 58.8223)" class="st10 st6 st20">o</text>
		<text transform="matrix(1 0 0 1 315.9551 58.8223)" class="st10 st6 st20">f</text>
		<text transform="matrix(1 0 0 1 321.1319 58.8223)" class="st10 st6 st20 st21">	</text>
		<text transform="matrix(1 0 0 1 324.0987 58.8223)" class="st10 st6 st20">C</text>
		<text transform="matrix(1 0 0 1 334.6358 58.8223)" class="st10 st6 st20">o</text>
		<text transform="matrix(1 0 0 1 343.1905 58.8223)" class="st10 st6 st20">c</text>
		<text transform="matrix(1 0 0 1 350.3712 58.8223)" class="st10 st6 st20">a</text>
		<text transform="matrix(1 0 0 1 358.169 58.8223)" class="st10 st6 st20 st21">	</text>
		<text transform="matrix(1 0 0 1 361.1368 58.8223)" class="st10 st6 st20">C</text>
		<text transform="matrix(1 0 0 1 371.6744 58.8223)" class="st10 st6 st20">u</text>
		<text transform="matrix(1 0 0 1 380.2291 58.8223)" class="st10 st6 st20">l</text>
		<text transform="matrix(1 0 0 1 384.1685 58.8223)" class="st10 st6 st20">t</text>
		<text transform="matrix(1 0 0 1 389.9068 58.8223)" class="st10 st6 st20">i</text>
		<text transform="matrix(1 0 0 1 393.8463 58.8223)" class="st10 st6 st20">v</text>
		<text transform="matrix(1 0 0 1 401.7252 58.8223)" class="st10 st6 st20">a</text>
		<text transform="matrix(1 0 0 1 409.5259 58.8223)" class="st10 st6 st20">t</text>
		<text transform="matrix(1 0 0 1 415.2642 58.8223)" class="st10 st6 st20">e</text>
		<text transform="matrix(1 0 0 1 423.3267 58.8223)" class="st10 st6 st20">d</text>
		<text transform="matrix(1 0 0 1 431.9283 58.8223)" class="st10 st6 st20 st21">	</text>
		<text transform="matrix(1 0 0 1 434.8951 58.8223)" class="st10 st6 st20">i</text>
		<text transform="matrix(1 0 0 1 438.8326 58.8223)" class="st10 st6 st20">n</text>
		<text transform="matrix(1 0 0 1 447.3892 58.8223)" class="st10 st6 st20 st21">	</text>
		<text transform="matrix(1 0 0 1 450.356 58.8223)" class="st10 st6 st20">C</text>
		<text transform="matrix(1 0 0 1 460.8912 58.8223)" class="st10 st6 st20">o</text>
		<text transform="matrix(1 0 0 1 469.4459 58.8223)" class="st10 st6 st20">l</text>
		<text transform="matrix(1 0 0 1 473.3873 58.8223)" class="st10 st6 st20">o</text>
		<text transform="matrix(1 0 0 1 481.942 58.8223)" class="st10 st6 st20">m</text>
		<text transform="matrix(1 0 0 1 494.5748 58.8223)" class="st10 st6 st20">b</text>
		<text transform="matrix(1 0 0 1 503.1763 58.8223)" class="st10 st6 st20">i</text>
		<text transform="matrix(1 0 0 1 507.1158 58.8223)" class="st10 st6 st20">a by Year</text>
	</g>
	<rect x="41.1" y="452.2" class="st0" width="26.9" height="9.3"/>
	<text transform="matrix(1 0 0 1 41.1216 459.1924)" class="st5 st6 st7">1996</text>
	<rect x="756.2" y="452.2" class="st0" width="26.9" height="9.3"/>
	<text transform="matrix(1 0 0 1 756.1568 459.1924)" class="st5 st6 st7">2016</text>
	<rect x="52.3" y="319.4" class="st0" width="31.4" height="9.8"/>
	<text transform="matrix(1 0 0 1 52.3487 326.4048)" class="st22 st6 st7">67,200</text>
	<rect x="83.7" y="297.6" class="st0" width="31.4" height="9.8"/>
	<text transform="matrix(1 0 0 1 83.7452 304.6304)" class="st22 st6 st7">79,500</text>
	<rect x="119" y="253.7" class="st0" width="35.7" height="9.8"/>
	<text transform="matrix(1 0 0 1 119.0396 260.7104)" class="st22 st6 st7">101,800</text>
	<rect x="154.8" y="215.5" class="st0" width="37.3" height="9.8"/>
	<text transform="matrix(1 0 0 1 154.7569 222.478)" class="st22 st6 st7">122,500</text>
	<rect x="151.6" y="174.8" class="st0" width="35.7" height="9.8"/>
	<text transform="matrix(1 0 0 1 151.5806 181.7803)" class="st22 st6 st7">136,200</text>
	<rect x="230" y="117.5" class="st0" width="37.3" height="9.8"/>
	<text transform="matrix(1 0 0 1 229.9918 124.5645)" class="st22 st6 st7">169,800</text>
	<rect x="262.8" y="163.1" class="st0" width="38" height="9.8"/>
	<text transform="matrix(1 0 0 1 262.7789 170.1606)" class="st22 st6 st7">144,450</text>
	<rect x="266.7" y="232.1" class="st0" width="36.6" height="9.8"/>
	<text transform="matrix(1 0 0 1 266.6983 239.0938)" class="st22 st6 st7">113,850</text>
	<rect x="330.8" y="232.1" class="st0" width="38.3" height="9.8"/>
	<text transform="matrix(1 0 0 1 330.8409 239.0938)" class="st22 st6 st7">114,100</text>
	<rect x="368.5" y="176.2" class="st0" width="41.1" height="9.8"/>
	<text transform="matrix(1 0 0 1 368.4713 183.2466)" class="st22 st6 st7">144,000</text>
	<rect x="404.8" y="149.5" class="st0" width="37.1" height="9.8"/>
	<text transform="matrix(1 0 0 1 404.7906 156.5444)" class="st22 st6 st7">157,000</text>
	<rect x="442.8" y="122.4" class="st0" width="38.1" height="9.8"/>
	<text transform="matrix(1 0 0 1 442.7896 129.4595)" class="st22 st6 st7">167,000</text>
	<rect x="477.4" y="209.6" class="st0" width="36" height="9.8"/>
	<text transform="matrix(1 0 0 1 477.4312 216.627)" class="st22 st6 st7">119,000</text>
	<rect x="516.2" y="219.4" class="st0" width="41.5" height="9.8"/>
	<text transform="matrix(1 0 0 1 516.189 226.417)" class="st22 st6 st7">116,000</text>
	<rect x="549.4" y="246.9" class="st0" width="36.7" height="9.8"/>
	<text transform="matrix(1 0 0 1 549.3804 253.9619)" class="st22 st6 st7">100,000</text>
	<rect x="586" y="279" class="st0" width="31.4" height="9.8"/>
	<text transform="matrix(1 0 0 1 586.0494 286.0645)" class="st22 st6 st7">83,000</text>
	<rect x="620.7" y="299.1" class="st0" width="31.4" height="9.8"/>
	<text transform="matrix(1 0 0 1 620.731 306.1089)" class="st22 st6 st7">78,000</text>
	<rect x="659.2" y="281.8" class="st0" width="31.4" height="9.8"/>
	<text transform="matrix(1 0 0 1 659.1978 288.8359)" class="st22 st6 st7">85,000</text>
	<rect x="694.4" y="228.7" class="st0" width="36.2" height="9.8"/>
	<text transform="matrix(1 0 0 1 694.4468 235.7275)" class="st22 st6 st7">112,000</text>
	<rect x="688.2" y="136.1" class="st0" width="41.6" height="9.8"/>
	<text transform="matrix(1 0 0 1 688.2095 143.1582)" class="st22 st6 st7">159,000</text>
	<rect x="722.1" y="84.7" class="st0" width="39.1" height="9.8"/>
	<text transform="matrix(1 0 0 1 722.1236 91.7266)" class="st22 st6 st7">188,000</text>
</g>
<text transform="matrix(1 0 0 1 187.9717 518.1553)" class="st6 st23">Coca in Colombia is grown in remote areas. A marked effort by </text>
<text transform="matrix(1 0 0 1 187.9717 536.1553)" class="st6 st23">the authorities led to a decline in drug production in the early </text>
<text transform="matrix(1 0 0 1 187.9717 554.1553)" class="st6 st23">2010’s, although recent levels have rebounded. Despite this, </text>
<text transform="matrix(1 0 0 1 187.9717 572.1553)" class="st6 st23">the UN claims the global popularity of cocaine is in decline.</text>
</svg>
