<?xml version="1.0" encoding="utf-8"?>
<!-- Generator: Adobe Illustrator 21.1.0, SVG Export Plug-In . SVG Version: 6.00 Build 0)  -->
<svg version="1.1" id="Layer_1" xmlns="http://www.w3.org/2000/svg" xmlns:xlink="http://www.w3.org/1999/xlink" x="0px" y="0px"
	 viewBox="0 0 802 601.6" style="enable-background:new 0 0 802 601.6;" xml:space="preserve">
<title>bell</title>
<path d="M621.5,507c-4.4-3.9-9.1-7.4-14-10.7c-29-20.4-72.7-51.3-72.7-243.6c0.1-14.9-9.3-28.3-23.5-33.1
	c-19.4-6.8-39.3-11.9-59.6-15.2v-59.8l54.2,19.6c0.8,0.3,1.6,0.4,2.4,0.4h42.1v9.8c0,2.2,1,4.3,2.8,5.6l20,15.2v8.6
	c0,2.2,1,4.3,2.8,5.6l19.7,15v8.7c0,2.2,1,4.3,2.8,5.6l23.4,17.8c3.1,2.3,7.5,1.8,9.8-1.3c0.9-1.2,1.4-2.7,1.4-4.3V52
	c0-11.1-9-20.1-20.1-20.1h-141c-0.2-0.2-0.3-0.5-0.5-0.7l-16.8-16.8c-1.3-1.3-3.1-2.1-5-2.1h-91c-1.9,0-3.7,0.7-5,2.1l-16.8,16.8
	c-0.2,0.2-0.4,0.4-0.5,0.7H195.8c-11.1,0-20.1,9-20.1,20.1v198.9c0,3.9,3.1,7,7,7c1.5,0,3-0.5,4.3-1.4l23.4-17.8
	c1.7-1.3,2.8-3.4,2.8-5.6v-8.7l19.7-15c1.7-1.3,2.8-3.4,2.8-5.6v-8.6l20-15.2c1.7-1.3,2.8-3.4,2.8-5.6v-9.8h42
	c0.8,0,1.6-0.1,2.4-0.4l50-18.1v57.7c-21.5,3.3-42.6,8.6-63.1,15.8c-14.2,4.8-23.6,18.2-23.5,33.1c0,192.3-43.8,223.2-72.8,243.6
	c-4.9,3.3-9.6,6.9-14,10.7c-15.1,13.8-16.2,37.2-2.5,52.3c4.1,4.5,9.3,8,15.1,10c36.7,12.8,103.1,19.2,202.8,19.6h11
	c5,0,10-0.1,14.9-0.1c0.4,0.1,0.7,0.1,1.1,0.2c0.5,0,0.9-0.1,1.4-0.2c90.1-1,150.9-7.4,185.5-19.4c19.3-6.7,29.5-27.8,22.8-47.1
	C629.5,516.4,626.1,511.1,621.5,507z M619,52v184.8l-9.4-7.2v-8.7c0-2.2-1-4.3-2.8-5.6l-19.7-15v-8.6c0-2.2-1-4.3-2.8-5.6l-20-15.2
	v-13.4c0-3.9-3.1-7-7-7h-47.8l-56.3-20.4l18.3-84.3h141.4C616.3,45.9,619,48.6,619,52L619,52z M361.5,26.3h85.2l12.1,12.1L439,129.1
	h-72.6l-17-90.6L361.5,26.3z M299.2,150.6h-47.8c-3.9,0-7,3.1-7,7v13.3l-20,15.2c-1.7,1.3-2.8,3.4-2.8,5.6v8.6l-19.7,15
	c-1.7,1.3-2.8,3.4-2.8,5.6v8.7l-9.4,7.1V52c0-3.4,2.7-6.1,6.1-6.1l0,0h140.7l16,85.4L299.2,150.6z M366.8,143.1h70.8v59.3
	c-10.3-1.2-20.6-2-30.9-2.3c-0.2,0-0.4,0-0.6,0c-3.4-0.1-7.3-0.1-11.2,0c-0.2,0-0.4,0-0.6,0c-9.1,0.2-18.3,0.8-27.4,1.8L366.8,143.1
	z M280.2,254.8h99.3c0,0,0,0,0-0.1h1.1v-13.9h-0.3l0,0h-96.5c2.6-3.7,6.3-6.6,10.6-8c32.4-11.5,66.4-17.8,100.8-18.7
	c0.2,0,0.4,0,0.5,0c2.9,0,6.2,0,9.6,0c0.2,0,0.4,0,0.6,0c34.4,0.9,68.4,7.1,100.8,18.6c8.5,2.8,14.3,10.9,14.1,19.9
	c0,188.7,42.3,228.8,73.4,251.3c-43,14.8-106.3,23-173.2,24.5c-1-4.8-3-9.4-5.9-13.4c-0.4-0.5-0.9-1-1.4-1.4l-26.2-20.2l-21.7-51.2
	v-99.5c0-3.9-3.1-7-7-7s-7,3.1-7,7v100.9c0,0.9,0.2,1.9,0.5,2.7l23,54.3c0.5,1.1,1.2,2.1,2.2,2.8l26.9,20.6c0.9,1.4,1.7,2.9,2.2,4.5
	c-72.3,0.6-147.3-6.6-203.9-21.7C233.8,485,279.9,450.3,280.2,254.8L280.2,254.8z M406,574.8h-11c-98.2-0.3-163-6.5-198.3-18.8
	c-11.9-4.2-18.2-17.2-14.1-29.2c1.2-3.5,3.3-6.7,6-9.2c57.5,17,134.6,25.5,209.7,25.5c3.1,0,6.2,0,9.3-0.1c-0.6,4.4-1.7,8.8-3.2,13
	c-0.5,1.3-0.8,2.6-0.9,4c0,1.1,0.3,2.2,0.8,3.2l6,11.5L406,574.8z M619.2,538.9c-1.5,8-7.2,14.6-14.9,17.1
	c-32.7,11.4-91.1,17.5-178.1,18.5l-8-15.2c1.8-5.4,3-10.9,3.5-16.6c72.7-1.7,141.3-11.4,186.1-28.9c1.5,1.2,3,2.3,4.3,3.5
	C618.2,522.7,620.9,531,619.2,538.9L619.2,538.9z"/>
<path d="M413.5,254.7h0.7c0,0.1,0,0.1,0,0.2h15.9c3.9,0,7-3.1,7-7c0-3.9-3.1-7-7-7l0,0h-16.7c0,0.1,0,0.2,0.1,0.2L413.5,254.7z"/>
</svg>
