<svg id="Layer_1" data-name="Layer 1" xmlns="http://www.w3.org/2000/svg" viewBox="0 0 1085.69 666.31"><defs><style>.cls-1{fill:#5e5760;}.cls-1,.cls-2,.cls-3,.cls-4,.cls-5{stroke:#fff;stroke-miterlimit:10;stroke-width:0.5px;}.cls-2{fill:#e2856a;}.cls-3{fill:#f0ca7c;}.cls-4{fill:#1989b6;}.cls-5{fill:#84a982;}.cls-6{font-size:10px;fill:#1d1d1b;}.cls-14,.cls-6{font-family:Roboto-Medium, Roboto;}.cls-7{font-family:Roboto-Regular, Roboto;}.cls-8{letter-spacing:-0.01em;}.cls-9{letter-spacing:-0.01em;}.cls-10{letter-spacing:-0.02em;}.cls-11{font-size:48px;font-family:Roboto-Thin, Roboto;}.cls-12{font-size:30px;fill:#c7164c;font-family:Roboto-Light, Roboto;}.cls-13{letter-spacing:-0.01em;}.cls-14{font-size:24px;fill:#676766;}</style></defs><title>computer app usage pie chart</title><path class="cls-1" d="M803,504.65,699.16,324.82A204.45,204.45,0,0,1,803,297Z" transform="translate(-69.16 -46.24)"/><path class="cls-2" d="M803,504.65,600.66,551.36c-21-91,17.66-179.87,98.5-226.54Z" transform="translate(-69.16 -46.24)"/><path class="cls-3" d="M328.36,504.66l-40.92-48.77A61.2,61.2,0,0,1,328.36,441Z" transform="translate(-69.16 -46.24)"/><path class="cls-4" d="M328.36,504.66H264.69c0-19.51,7.79-36.23,22.74-48.77Z" transform="translate(-69.16 -46.24)"/><path class="cls-4" d="M803,504.65,646.27,640.88c-23.55-27.09-37.54-54.54-45.61-89.52Z" transform="translate(-69.16 -46.24)"/><path class="cls-5" d="M328.36,504.66V441a63.66,63.66,0,1,1-63.66,63.66h63.66Z" transform="translate(-69.16 -46.24)"/><path class="cls-5" d="M803,504.65V297c114.68,0,207.65,93,207.65,207.65S917.67,712.3,803,712.3c-62.85,0-115.49-24-156.72-71.42Z" transform="translate(-69.16 -46.24)"/><text class="cls-6" transform="translate(947.84 512.93)">Chrome<tspan class="cls-7"><tspan x="0" y="12">244 minutes</tspan></tspan></text><text class="cls-6" transform="translate(243.57 537.37)">Chrome<tspan class="cls-7"><tspan x="0" y="12">27 minutes</tspan></tspan></text><text class="cls-6" transform="translate(472.53 386.24)"><tspan class="cls-8">A</tspan><tspan x="6.36" y="0">tom</tspan><tspan class="cls-7"><tspan x="0" y="12">78 minutes</tspan></tspan></text><text class="cls-6" transform="translate(642.45 232.85)"><tspan class="cls-9">P</tspan><tspan x="6.39" y="0">owerpoint</tspan><tspan class="cls-7"><tspan x="0" y="12">31 minutes</tspan></tspan></text><text class="cls-6" transform="translate(491.03 563.56)">Skype<tspan class="cls-7"><tspan x="0" y="12">30 minutes</tspan></tspan></text><text class="cls-6" transform="translate(146.09 431.33)">Skype<tspan class="cls-7"><tspan x="0" y="12">5 minutes</tspan></tspan></text><text class="cls-6" transform="translate(207.82 379.35)"><tspan class="cls-10">W</tspan><tspan x="8.69" y="0">ord</tspan><tspan class="cls-7"><tspan x="0" y="12">4 minutes</tspan></tspan></text><text class="cls-11" transform="translate(0 41.06)">computer app usage</text><text class="cls-12" transform="translate(146.67 278.14)">sund<tspan class="cls-13" x="65.38" y="0">a</tspan><tspan x="81.28" y="0">y sept 24</tspan></text><text class="cls-14" transform="translate(146.67 305.86)">36 minutes</text><text class="cls-12" transform="translate(624.5 131.35)">mond<tspan class="cls-13" x="76.68" y="0">a</tspan><tspan x="92.59" y="0">y sept 18</tspan></text><text class="cls-14" transform="translate(626.71 160.97)">383 minutes</text></svg>