<svg id="Layer_1" data-name="Layer 1" xmlns="http://www.w3.org/2000/svg" viewBox="0 0 360 260"><defs><style>.cls-1{fill:#ecf0f1;}.cls-2{font-size:48px;fill:#34495e;font-family:Roboto-Light, Roboto;}.cls-3{fill:none;stroke:#34495e;stroke-miterlimit:10;stroke-width:5px;}</style></defs><title>D3</title><rect class="cls-1" width="360" height="260"/><text class="cls-2" transform="translate(127.32 239.57)">D3.js</text><path class="cls-3" d="M102.83,29h11.85c39.37,0,72.2,30.85,73.79,70.19a73.23,73.23,0,0,1-73.17,76.27H102.83V143.27h12c21.76,0,40.11-16.77,41.42-38.49a41,41,0,0,0-41-43.6H102.83ZM161,29H212.5a44.66,44.66,0,0,1,34.33,73.23,44.66,44.66,0,0,1-34.33,73.23H161a86.4,86.4,0,0,0,30.17-32.18h21.14a12.59,12.59,0,1,0,.1-25.19h-12.4a86.4,86.4,0,0,0,0-32.18h12.24a12.54,12.54,0,0,0,12.63-12,12.36,12.36,0,0,0-12.36-12.69H191.21A86.4,86.4,0,0,0,161,29Z"/></svg>