<svg id="Layer_1" data-name="Layer 1" xmlns="http://www.w3.org/2000/svg" viewBox="0 0 383.25 260"><defs><style>.cls-1{fill:#ecf0f1;}.cls-2{font-size:40px;font-family:Roboto-Light, Roboto;}.cls-2,.cls-4{fill:#34495e;}.cls-3{letter-spacing:-0.05em;}.cls-4{stroke:#34495e;stroke-miterlimit:10;}</style></defs><title>history_presentation</title><rect class="cls-1" x="11.63" width="360" height="260"/><text class="cls-2" transform="translate(32.99 247.1)">London <tspan class="cls-3" x="142.13" y="0">T</tspan><tspan x="163.96" y="0">ube Map </tspan></text><path class="cls-4" d="M282.72,85.11H262.66a86.05,86.05,0,0,0-165.31,0H77.28a4.79,4.79,0,0,0-4.78,4.78v38.22a4.79,4.79,0,0,0,4.78,4.78H97.34a86.05,86.05,0,0,0,165.31,0h20.07a4.79,4.79,0,0,0,4.78-4.78V89.89A4.79,4.79,0,0,0,282.72,85.11ZM180.22,32.56a76.1,76.1,0,0,1,72.62,52.56H229.67a54.9,54.9,0,0,0-98.9,0H107.6A76.1,76.1,0,0,1,180.22,32.56Zm38.7,52.56h-77.4a45.58,45.58,0,0,1,77.4,0Zm-38.7,100.33a76.1,76.1,0,0,1-72.62-52.56h23.17a54.9,54.9,0,0,0,98.9,0h23.17A76.1,76.1,0,0,1,180.22,185.44Zm-38.7-52.56h77.16a45.37,45.37,0,0,1-77.16,0Zm136.42-9.56H82.06V94.67H277.94Z" transform="translate(11.63)"/></svg>