<?xml version="1.0" encoding="utf-8"?>
<!-- Generator: Adobe Illustrator 21.1.0, SVG Export Plug-In . SVG Version: 6.00 Build 0)  -->
<svg version="1.1" id="Layer_1" xmlns="http://www.w3.org/2000/svg" xmlns:xlink="http://www.w3.org/1999/xlink" x="0px" y="0px"
	 viewBox="0 0 383.2 260" style="enable-background:new 0 0 383.2 260;" xml:space="preserve">
<style type="text/css">
	.st0{fill:#ECF0F1;}
	.st1{fill:#34495E;stroke:#34495E;stroke-width:3;stroke-miterlimit:10;}
	.st2{fill:none;}
	.st3{fill:#34495E;}
	.st4{font-family:'Lato-Light';}
	.st5{font-size:35px;}
</style>
<title>history_presentation</title>
<rect class="st0" width="383.2" height="260"/>
<g>
	<title>Underground 1.1</title>
	<desc>Created with Sketch.</desc>
	<g>
		<g>
			<path class="st1" d="M281.2,87.9V122H92.7V87.9H281.2z M283.5,85.6H90.4v38.6h193.1V85.6z"/>
			<path class="st1" d="M232.5,122.7c-7.3,18.6-25.2,31.1-45.5,31.1s-38.3-12.5-45.5-31.1l-2.1,0.8c7.6,19.5,26.4,32.5,47.6,32.5
				s40-13.1,47.6-32.5L232.5,122.7z"/>
			<path class="st1" d="M265.6,122.9c-8.3,36.4-40.8,62.7-78.7,62.7s-70.4-26.3-78.7-62.7l-2.2,0.5c8.5,37.5,42,64.5,80.9,64.5
				s72.4-27,80.9-64.5L265.6,122.9z"/>
			<path class="st1" d="M234.6,86.4c-7.6-19.5-26.4-32.5-47.6-32.5s-40,13.1-47.6,32.5l2.1,0.8c7.3-18.6,25.2-31.1,45.5-31.1
				s38.3,12.5,45.5,31.1L234.6,86.4z"/>
			<path class="st1" d="M267.8,86.5C259.3,49,225.9,22,186.9,22s-72.4,27-80.9,64.5l2.2,0.5c8.3-36.4,40.8-62.7,78.7-62.7
				s70.4,26.3,78.7,62.7L267.8,86.5z"/>
		</g>
	</g>
</g>
<rect x="54" y="226.2" class="st2" width="275.2" height="45.8"/>
<text transform="matrix(1 0 0 1 54.0181 251.6933)" class="st3 st4 st5">London Tube Map</text>
</svg>
