<?xml version="1.0" encoding="utf-8"?>
<!-- Generator: Adobe Illustrator 21.1.0, SVG Export Plug-In . SVG Version: 6.00 Build 0)  -->
<svg version="1.1" id="Layer_1" xmlns="http://www.w3.org/2000/svg" xmlns:xlink="http://www.w3.org/1999/xlink" x="0px" y="0px"
	 viewBox="0 0 360 260" style="enable-background:new 0 0 360 260;" xml:space="preserve">
<style type="text/css">
	.st0{fill:#ECF0F1;}
	.st1{enable-background:new    ;}
	.st2{fill:#34495E;}
	.st3{fill:#34495E;stroke:#34495E;stroke-miterlimit:10;}
</style>
<title>media_usage</title>
<rect class="st0" width="360" height="260"/>
<g class="st1">
	<path class="st2" d="M50.5,207.5l12.5,30h0.1l12.6-30h3.7v34.1h-2.8v-15.1l0.2-14.9l-0.1,0l-12.7,30h-1.9l-12.7-29.9l-0.1,0
		l0.3,14.8v15.1h-2.8v-34.1H50.5z"/>
	<path class="st2" d="M97.2,242.2c-3.2,0-5.8-1.2-7.9-3.5s-3.2-5.3-3.2-8.9v-1.3c0-3.6,1-6.6,3.1-9s4.6-3.6,7.6-3.6
		c3.1,0,5.6,1,7.3,3s2.7,4.6,2.7,7.9v2.4H88.9v0.7c0,2.9,0.8,5.2,2.3,7.2c1.5,1.9,3.5,2.9,6,2.9c1.8,0,3.2-0.2,4.5-0.7
		s2.3-1.2,3.2-2.1l1.2,1.9c-1,1-2.2,1.8-3.6,2.4S99.2,242.2,97.2,242.2z M96.8,218.2c-2.1,0-3.8,0.8-5.2,2.4
		c-1.4,1.6-2.2,3.6-2.5,5.9l0,0.1H104V226c0-2.2-0.6-4-1.9-5.5C100.8,219,99,218.2,96.8,218.2z"/>
	<path class="st2" d="M111.3,229.2c0-4,0.9-7.3,2.6-9.7s4.1-3.6,7.2-3.6c1.8,0,3.3,0.4,4.6,1.1s2.4,1.8,3.2,3.2v-15h2.8v36.6h-2.5
		l-0.2-3.7c-0.8,1.3-1.9,2.4-3.3,3.1s-2.9,1.1-4.7,1.1c-3,0-5.4-1.1-7.1-3.4s-2.6-5.3-2.6-9.1V229.2z M114.1,229.7
		c0,3.1,0.6,5.5,1.8,7.3s3.1,2.7,5.5,2.7c1.8,0,3.3-0.4,4.5-1.2c1.2-0.8,2.2-1.9,2.8-3.4v-12c-0.6-1.5-1.5-2.7-2.7-3.6
		s-2.7-1.4-4.6-1.4c-2.5,0-4.3,1-5.6,3s-1.9,4.7-1.9,7.9V229.7z"/>
	<path class="st2" d="M142.2,209h-2.8v-3.9h2.8V209z M142.2,241.7h-2.8v-25.4h2.8V241.7z"/>
	<path class="st2" d="M166,241.7c-0.2-0.9-0.3-1.6-0.4-2.2s-0.1-1.3-0.1-1.9c-0.9,1.3-2.2,2.4-3.8,3.3s-3.3,1.3-5.3,1.3
		c-2.5,0-4.4-0.7-5.8-2s-2.1-3.1-2.1-5.3c0-2.3,1-4.2,3-5.6s4.8-2.1,8.2-2.1h5.6V224c0-1.8-0.6-3.2-1.7-4.3s-2.8-1.5-4.9-1.5
		c-2,0-3.6,0.5-4.9,1.5s-1.9,2.2-1.9,3.6l-2.6,0l0-0.1c-0.1-1.9,0.8-3.6,2.6-5.1s4.1-2.2,6.9-2.2c2.8,0,5,0.7,6.8,2.1
		s2.6,3.5,2.6,6.1v12.5c0,0.9,0.1,1.8,0.2,2.6s0.3,1.7,0.5,2.5H166z M156.8,239.7c2,0,3.8-0.5,5.3-1.4s2.7-2.2,3.4-3.6v-5.3h-5.6
		c-2.5,0-4.6,0.5-6.1,1.6s-2.3,2.4-2.3,4c0,1.4,0.5,2.5,1.4,3.4S155.2,239.7,156.8,239.7z"/>
	<path class="st2" d="M212.1,207.5v23.1c0,3.7-1.1,6.6-3.4,8.5s-5.2,3-8.9,3c-3.6,0-6.5-1-8.8-3s-3.4-4.8-3.4-8.5v-23.1h2.8v23.1
		c0,2.9,0.9,5.1,2.6,6.7s4,2.4,6.7,2.4c2.8,0,5.1-0.8,6.9-2.4s2.6-3.8,2.6-6.7v-23.1H212.1z"/>
	<path class="st2" d="M234.8,235.2c0-1.2-0.5-2.2-1.5-3.1c-1-0.9-2.7-1.6-5.3-2.2c-3-0.7-5.3-1.5-6.7-2.6s-2.2-2.6-2.2-4.6
		c0-1.9,0.8-3.6,2.4-4.9s3.8-2,6.5-2c2.9,0,5.1,0.7,6.8,2.1s2.5,3.2,2.4,5.3l0,0.1h-2.6c0-1.4-0.6-2.6-1.8-3.6s-2.8-1.5-4.8-1.5
		c-2,0-3.6,0.4-4.6,1.3c-1,0.9-1.5,1.9-1.5,3.1c0,1.2,0.4,2.1,1.3,2.9s2.6,1.4,5.3,2c3,0.7,5.3,1.6,6.8,2.8c1.5,1.2,2.2,2.8,2.2,4.8
		c0,2.1-0.9,3.8-2.6,5.1c-1.7,1.3-4,2-6.8,2c-3.1,0-5.5-0.7-7.3-2.2s-2.6-3.2-2.5-5.2l0-0.1h2.6c0.1,1.8,0.9,3.1,2.2,4
		s3,1.2,4.9,1.2c2,0,3.6-0.4,4.8-1.3C234.3,237.6,234.8,236.5,234.8,235.2z"/>
	<path class="st2" d="M260.2,241.7c-0.2-0.9-0.3-1.6-0.4-2.2s-0.1-1.3-0.1-1.9c-0.9,1.3-2.2,2.4-3.8,3.3s-3.3,1.3-5.3,1.3
		c-2.5,0-4.4-0.7-5.8-2s-2.1-3.1-2.1-5.3c0-2.3,1-4.2,3-5.6s4.8-2.1,8.2-2.1h5.6V224c0-1.8-0.6-3.2-1.7-4.3s-2.8-1.5-4.9-1.5
		c-2,0-3.6,0.5-4.9,1.5s-1.9,2.2-1.9,3.6l-2.6,0l0-0.1c-0.1-1.9,0.8-3.6,2.6-5.1s4.1-2.2,6.9-2.2c2.8,0,5,0.7,6.8,2.1
		s2.6,3.5,2.6,6.1v12.5c0,0.9,0.1,1.8,0.2,2.6s0.3,1.7,0.5,2.5H260.2z M250.9,239.7c2,0,3.8-0.5,5.3-1.4s2.7-2.2,3.4-3.6v-5.3H254
		c-2.5,0-4.6,0.5-6.1,1.6s-2.3,2.4-2.3,4c0,1.4,0.5,2.5,1.4,3.4S249.3,239.7,250.9,239.7z"/>
	<path class="st2" d="M268.8,229.2c0-4,0.9-7.3,2.6-9.7s4.1-3.6,7.2-3.6c1.8,0,3.4,0.4,4.7,1.2s2.4,1.9,3.3,3.3l0.3-4.1h2.4v25
		c0,3.3-0.9,5.8-2.7,7.7s-4.3,2.8-7.5,2.8c-1.2,0-2.5-0.1-3.9-0.4s-2.6-0.7-3.6-1.2l0.7-2.4c1,0.5,2.1,0.9,3.2,1.1s2.3,0.4,3.6,0.4
		c2.5,0,4.3-0.7,5.6-2.1s1.9-3.4,1.9-5.9v-3.2c-0.9,1.3-1.9,2.3-3.3,3s-2.8,1-4.6,1c-3,0-5.4-1.1-7.2-3.4s-2.6-5.3-2.6-9.1V229.2z
		 M271.6,229.7c0,3.1,0.6,5.5,1.9,7.3s3.1,2.7,5.6,2.7c1.8,0,3.3-0.4,4.5-1.3c1.2-0.8,2.1-2,2.8-3.5v-11.8c-0.6-1.5-1.5-2.7-2.7-3.6
		c-1.2-0.9-2.7-1.4-4.6-1.4c-2.5,0-4.3,1-5.6,3.1s-1.9,4.7-1.9,7.9V229.7z"/>
	<path class="st2" d="M306.2,242.2c-3.2,0-5.8-1.2-7.9-3.5s-3.2-5.3-3.2-8.9v-1.3c0-3.6,1-6.6,3.1-9s4.6-3.6,7.6-3.6
		c3.1,0,5.6,1,7.3,3s2.7,4.6,2.7,7.9v2.4h-17.9v0.7c0,2.9,0.8,5.2,2.3,7.2c1.5,1.9,3.5,2.9,6,2.9c1.8,0,3.2-0.2,4.5-0.7
		s2.3-1.2,3.2-2.1l1.2,1.9c-1,1-2.2,1.8-3.6,2.4S308.2,242.2,306.2,242.2z M305.8,218.2c-2.1,0-3.8,0.8-5.2,2.4
		c-1.4,1.6-2.2,3.6-2.5,5.9l0,0.1H313V226c0-2.2-0.6-4-1.9-5.5C309.8,219,308,218.2,305.8,218.2z"/>
</g>
<path class="st3" d="M98.8,178l109.1-71.6L98.8,34.8V178z M106.4,48.9l87.6,57.5l-87.6,57.5L106.4,48.9z"/>
<path class="st3" d="M210.5,35.3V180h50.8V35.3H210.5z M253.6,172.4h-35.6V42.9h35.5L253.6,172.4z"/>
</svg>
