<?xml version="1.0" encoding="utf-8"?>
<!-- Generator: Adobe Illustrator 21.1.0, SVG Export Plug-In . SVG Version: 6.00 Build 0)  -->
<svg version="1.1" id="Layer_1" xmlns="http://www.w3.org/2000/svg" xmlns:xlink="http://www.w3.org/1999/xlink" x="0px" y="0px"
	 viewBox="0 0 360 260" style="enable-background:new 0 0 360 260;" xml:space="preserve">
<style type="text/css">
	.st0{fill:#ECF0F1;}
	.st1{enable-background:new    ;}
	.st2{fill:#34495E;}
	.st3{font-family:'Roboto-Light';}
	.st4{font-size:36px;}
	.st5{font-size:48px;}
</style>
<title>old_website</title>
<rect class="st0" width="360" height="260"/>
<text transform="matrix(1 0 0 1 42.4317 239.5701)" class="st1"><tspan x="0" y="0" class="st2 st3 st4">My Dad’s Website</tspan><tspan x="281.9" y="0" class="st2 st3 st5"> </tspan></text>
<path class="st2" d="M267,28H93c-7.2,0-13,5.8-13,13v127.6c0,7.2,5.8,13,13,13l0,0h174c7.2,0,13-5.8,13-13l0,0V41
	C280,33.8,274.2,28,267,28z M88.7,41.4c-0.1-2.5,1.8-4.5,4.2-4.7c0.1,0,0.1,0,0.2,0H267c2.4,0,4.3,1.9,4.3,4.3v16H88.7V41.4z
	 M271.3,168.6c0,2.4-1.8,4.3-4.2,4.4c-0.1,0-0.1,0-0.2,0H93c-2.4,0-4.3-1.9-4.3-4.4V62.8h182.6V168.6z"/>
<path class="st2" d="M191.3,164.2h-68.7c-5.9,0-10.7-4.8-10.7-10.7V85.1c0-5.9,4.8-10.7,10.7-10.7H191c5.9,0,10.7,4.8,10.7,10.7
	v68.7C201.7,159.6,197.1,164.2,191.3,164.2C191.3,164.2,191.3,164.2,191.3,164.2z M120.6,85.1v68.4c0,1.1,0.9,2,2,2H191
	c1.1,0,2-0.9,2-2V85.1c0-1.1-0.9-2-2-2h-68.4C121.5,83.1,120.6,84,120.6,85.1C120.6,85.1,120.6,85.1,120.6,85.1z"/>
<path class="st2" d="M237.8,115h-16.6c-5.9,0-10.7-4.8-10.7-10.7V85.1c0-5.9,4.8-10.7,10.7-10.7h16.2c5.9,0,10.7,4.8,10.7,10.7v18.7
	C248.1,110.2,243.4,115,237.8,115z M219.1,85.1v19.1c0,1.1,0.9,2,2,2h19.1c1.1,0,2-0.9,2-2V85.1c0-1.1-0.9-2-2-2h-19.1
	C220.1,83.1,219.1,84,219.1,85.1C219.1,85.1,219.1,85.1,219.1,85.1z"/>
<path class="st2" d="M237.8,161.3h-16.6c-5.9,0-10.7-4.8-10.7-10.7v-16.2c0-5.9,4.8-10.7,10.7-10.7h16.2c5.9,0,10.7,4.8,10.7,10.7
	V151C248.1,156.7,243.5,161.3,237.8,161.3C237.8,161.3,237.8,161.3,237.8,161.3z M219.1,134.3v16.2c0,1.1,0.9,2,2,2h19.1
	c1.1,0,2-0.9,2-2v-16.2c0-1.1-0.9-2-2-2h-19.1C220.1,132.4,219.1,133.2,219.1,134.3C219.1,134.4,219.1,134.4,219.1,134.3
	L219.1,134.3z"/>
</svg>
