<?xml version="1.0" encoding="utf-8"?>
<!-- Generator: Adobe Illustrator 21.1.0, SVG Export Plug-In . SVG Version: 6.00 Build 0)  -->
<svg version="1.1" id="Layer_1" xmlns="http://www.w3.org/2000/svg" xmlns:xlink="http://www.w3.org/1999/xlink" x="0px" y="0px"
	 viewBox="0 0 360 260" style="enable-background:new 0 0 360 260;" xml:space="preserve">
<style type="text/css">
	.st0{fill:#ECF0F1;}
	.st1{enable-background:new    ;}
	.st2{fill:#34495E;}
</style>
<title>three_trips</title>
<rect class="st0" width="360" height="260"/>
<g class="st1">
	<path class="st2" d="M88.7,207.8H77v31.7h-2.8v-31.7H62.4v-2.4h26.3V207.8z"/>
	<path class="st2" d="M96.3,218.5c0.8-1.5,2-2.7,3.4-3.5s3-1.3,4.9-1.3c2.7,0,4.7,0.8,6.2,2.5s2.1,4.2,2.1,7.7v15.6h-2.8v-15.7
		c0-2.8-0.5-4.7-1.6-5.9s-2.6-1.8-4.5-1.8c-1.9,0-3.5,0.5-4.8,1.5c-1.3,1-2.2,2.4-2.8,4v17.9h-2.8V203h2.8V218.5z"/>
</g>
<g class="st1">
	<path class="st2" d="M131.9,216.6l-2.1-0.1c-1.8,0-3.2,0.5-4.3,1.5s-1.9,2.4-2.4,4.1v17.5h-2.8v-25.4h2.5l0.4,4.2v0.3
		c0.7-1.6,1.7-2.8,3-3.7s2.7-1.3,4.4-1.3c0.4,0,0.7,0,1,0.1s0.6,0.1,0.8,0.2L131.9,216.6z"/>
</g>
<g class="st1">
	<path class="st2" d="M145.6,240.1c-3.2,0-5.8-1.2-7.9-3.5s-3.2-5.3-3.2-8.9v-1.3c0-3.6,1-6.6,3.1-9s4.6-3.6,7.6-3.6
		c3.1,0,5.6,1,7.3,3s2.7,4.6,2.7,7.9v2.4h-17.9v0.7c0,2.9,0.8,5.2,2.3,7.2c1.5,1.9,3.5,2.9,6,2.9c1.8,0,3.2-0.2,4.5-0.7
		s2.3-1.2,3.2-2.1l1.2,1.9c-1,1-2.2,1.8-3.6,2.4S147.7,240.1,145.6,240.1z M145.3,216.1c-2.1,0-3.8,0.8-5.2,2.4
		c-1.4,1.6-2.2,3.6-2.5,5.9l0,0.1h14.9v-0.7c0-2.2-0.6-4-1.9-5.5C149.3,216.9,147.5,216.1,145.3,216.1z"/>
	<path class="st2" d="M170.4,240.1c-3.2,0-5.8-1.2-7.9-3.5s-3.2-5.3-3.2-8.9v-1.3c0-3.6,1-6.6,3.1-9s4.6-3.6,7.6-3.6
		c3.1,0,5.6,1,7.3,3s2.7,4.6,2.7,7.9v2.4h-17.9v0.7c0,2.9,0.8,5.2,2.3,7.2c1.5,1.9,3.5,2.9,6,2.9c1.8,0,3.2-0.2,4.5-0.7
		s2.3-1.2,3.2-2.1l1.2,1.9c-1,1-2.2,1.8-3.6,2.4S172.4,240.1,170.4,240.1z M170,216.1c-2.1,0-3.8,0.8-5.2,2.4
		c-1.4,1.6-2.2,3.6-2.5,5.9l0,0.1h14.9v-0.7c0-2.2-0.6-4-1.9-5.5C174,216.9,172.2,216.1,170,216.1z"/>
</g>
<g class="st1">
	<path class="st2" d="M220.9,207.8h-11.7v31.7h-2.8v-31.7h-11.7v-2.4h26.3V207.8z"/>
</g>
<g class="st1">
	<path class="st2" d="M235.6,216.6l-2.1-0.1c-1.8,0-3.2,0.5-4.3,1.5s-1.9,2.4-2.4,4.1v17.5h-2.8v-25.4h2.5l0.4,4.2v0.3
		c0.7-1.6,1.7-2.8,3-3.7s2.7-1.3,4.4-1.3c0.4,0,0.7,0,1,0.1s0.6,0.1,0.8,0.2L235.6,216.6z"/>
	<path class="st2" d="M243.4,206.9h-2.8V203h2.8V206.9z M243.4,239.6h-2.8v-25.4h2.8V239.6z"/>
	<path class="st2" d="M271.6,227.6c0,3.8-0.9,6.8-2.6,9.1s-4.1,3.4-7.1,3.4c-1.8,0-3.3-0.3-4.7-1s-2.4-1.6-3.3-2.9v13.1h-2.8v-35.1
		h2.4l0.4,3.9c0.8-1.4,1.9-2.5,3.3-3.3s2.9-1.1,4.7-1.1c3,0,5.4,1.2,7.1,3.6s2.6,5.7,2.6,9.7V227.6z M268.8,227.1
		c0-3.2-0.6-5.8-1.9-7.9c-1.3-2-3.2-3-5.6-3c-1.9,0-3.4,0.4-4.6,1.3c-1.2,0.9-2.1,2.1-2.7,3.5v12.2c0.6,1.4,1.6,2.5,2.8,3.3
		s2.7,1.2,4.5,1.2c2.5,0,4.3-0.9,5.6-2.8s1.9-4.3,1.9-7.3V227.1z"/>
	<path class="st2" d="M293.1,233.1c0-1.2-0.5-2.2-1.5-3.1c-1-0.9-2.7-1.6-5.3-2.2c-3-0.7-5.3-1.5-6.7-2.6s-2.2-2.6-2.2-4.6
		c0-1.9,0.8-3.6,2.4-4.9s3.8-2,6.5-2c2.9,0,5.1,0.7,6.8,2.1s2.5,3.2,2.4,5.3l0,0.1h-2.6c0-1.4-0.6-2.6-1.8-3.6s-2.8-1.5-4.8-1.5
		c-2,0-3.6,0.4-4.6,1.3c-1,0.9-1.5,1.9-1.5,3.1c0,1.2,0.4,2.1,1.3,2.9s2.6,1.4,5.3,2c3,0.7,5.3,1.6,6.8,2.8c1.5,1.2,2.2,2.8,2.2,4.8
		c0,2.1-0.9,3.8-2.6,5.1c-1.7,1.3-4,2-6.8,2c-3.1,0-5.5-0.7-7.3-2.2s-2.6-3.2-2.5-5.2l0-0.1h2.6c0.1,1.8,0.9,3.1,2.2,4
		s3,1.2,4.9,1.2c2,0,3.6-0.4,4.8-1.3C292.5,235.5,293.1,234.4,293.1,233.1z"/>
</g>
<path class="st2" d="M203.9,29.7H150c-1.1,0-2,0.9-2,2v22H96c-1.1,0-2,0.9-2,2v119.7c0,1.1,0.9,2,2,2h179.7c1.1,0,2-0.9,2-2v-73.9
	c0-1.1-0.9-2-2-2h-18V55.7c0-1.1-0.9-2-2-2h-49.9v-22C205.8,30.6,204.9,29.7,203.9,29.7z M152,33.7h49.9v20h-49.9L152,33.7z
	 M98,115.6h75.9v57.9H98V115.6z M151.9,111.6H120v-16h31.9L151.9,111.6z M177.9,123.6h12v0.9c0.1,6.7-5.3,12.2-12,12.3c0,0,0,0,0,0
	V123.6z M177.9,173.5v-13.1c6.7,0.1,12.1,5.6,12,12.3c0,0,0,0,0,0l0,0v0.8L177.9,173.5z M273.7,173.5h-14v-1.7
	c0-6.8,5.5-12.3,12.3-12.3h0h1.7L273.7,173.5z M273.7,155.5H272c-9,0-16.3,7.3-16.3,16.3l0,0v1.7h-61.9v-0.9c0-9.1-7.1-16.5-16-16.5
	v-15.1c8.8,0,16-7.4,16-16.5v-0.9h61.9v1.7c0,9,7.3,16.3,16.2,16.3h1.7L273.7,155.5z M272,137.5c-6.8,0-12.3-5.5-12.3-12.3v-1.7h14
	v14L272,137.5z M273.7,119.5h-95.8v-16h95.8V119.5z M253.7,101.5h-77.8c-1.1,0-2,0.9-2,2v8h-18v-18c0-1.1-0.9-2-2-2H118
	c-1.1,0-2,0.9-2,2v18H98V57.7h155.8L253.7,101.5z"/>
</svg>
