<svg id="Layer_1" data-name="Layer 1" xmlns="http://www.w3.org/2000/svg" viewBox="0 0 360 260"><defs><style>.cls-1{fill:#ecf0f1;}.cls-2{font-size:48px;font-family:Roboto-Light, Roboto;}.cls-2,.cls-5{fill:#34495e;}.cls-3{letter-spacing:-0.01em;}.cls-4{letter-spacing:-0.04em;}</style></defs><title>three_trips</title><rect class="cls-1" width="360" height="260"/><text class="cls-2" transform="translate(61.38 239.57)">Th<tspan class="cls-3" x="55.15" y="0">r</tspan><tspan x="71.04" y="0">ee </tspan><tspan class="cls-4" x="132.16" y="0">T</tspan><tspan x="158.84" y="0">rips</tspan></text><path class="cls-5" d="M203.85,29.7H150a2,2,0,0,0-2,2v22H96a2,2,0,0,0-2,2V175.44a2,2,0,0,0,2,2H275.72a2,2,0,0,0,2-2V101.57a2,2,0,0,0-2-2h-18V55.65a2,2,0,0,0-2-2H205.85v-22A2,2,0,0,0,203.85,29.7Zm-51.89,4h49.89v20H151.95ZM98,115.55h75.86v57.9H98Zm53.9-4H120v-16h31.94Zm26,12h12v.9a12.13,12.13,0,0,1-12,12.26Zm0,49.91V160.32a12.13,12.13,0,0,1,12,12.28h0v.84Zm95.83,0h-14v-1.7A12.28,12.28,0,0,1,272,159.47h1.7Zm0-18H272a16.27,16.27,0,0,0-16.27,16.27v1.7H193.87v-.85c0-9.12-7.15-16.51-16-16.52V140.94c8.82,0,16-7.4,16-16.52v-.89h61.89v1.7A16.27,16.27,0,0,0,272,141.5h1.7Zm-1.7-18a12.28,12.28,0,0,1-12.28-12.28v-1.7h14v14Zm1.7-18H177.9v-16h95.83Zm-20-18H175.9a2,2,0,0,0-2,2v8h-18v-18a2,2,0,0,0-2-2H118a2,2,0,0,0-2,2v18H98V57.65H253.76Z"/></svg>