<?xml version="1.0" encoding="utf-8"?>
<!-- Generator: Adobe Illustrator 21.1.0, SVG Export Plug-In . SVG Version: 6.00 Build 0)  -->
<svg version="1.1" id="Layer_1" xmlns="http://www.w3.org/2000/svg" xmlns:xlink="http://www.w3.org/1999/xlink" x="0px" y="0px"
	 viewBox="0 0 1097.8 681.6" style="enable-background:new 0 0 1097.8 681.6;" xml:space="preserve">
<style type="text/css">
	.st0{fill:#1989B6;stroke:#FFFFFF;stroke-miterlimit:10;}
	.st1{fill:#84A982;stroke:#FFFFFF;stroke-miterlimit:10;}
	.st2{fill:#E2856A;stroke:#FFFFFF;stroke-miterlimit:10;}
	.st3{enable-background:new    ;}
	.st4{fill:#C7164C;}
	.st5{fill:#84A982;}
	.st6{fill:#E2856A;}
	.st7{fill:#1989B6;}
</style>
<title>media usage</title>
<path class="st0" d="M729,609c13.7-18.5,39.1-23.8,59-12.3c30.1,17.4,30.1,60.9,0,78.3s-67.8-4.3-67.8-39.1h45.2L729,609z"/>
<circle class="st1" cx="319.5" cy="214.8" r="45.2"/>
<circle class="st1" cx="319.5" cy="355.1" r="45.2"/>
<circle class="st1" cx="319.5" cy="495.5" r="45.2"/>
<circle class="st2" cx="319.5" cy="635.9" r="45.2"/>
<circle class="st1" cx="468.2" cy="214.8" r="45.2"/>
<circle class="st1" cx="468.2" cy="355.1" r="45.2"/>
<path class="st2" d="M461.1,458.4c20.6-15.3,51.9-10.7,66,13.8c17.4,30.1-4.3,67.8-39.1,67.8v-45.2L461.1,458.4z"/>
<path class="st1" d="M479.7,540.2c-34.8,0-56.5-37.7-39.1-67.8c3.1-5.5,7.4-10.3,12.5-14l26.6,36.6V540.2z"/>
<circle class="st2" cx="468.2" cy="635.9" r="45.2"/>
<circle class="st1" cx="616.8" cy="214.8" r="45.2"/>
<circle class="st1" cx="616.8" cy="355.1" r="45.2"/>
<circle class="st2" cx="616.8" cy="495.5" r="45.2"/>
<circle class="st2" cx="616.8" cy="635.9" r="45.2"/>
<circle class="st1" cx="765.5" cy="214.8" r="45.2"/>
<circle class="st1" cx="765.5" cy="355.1" r="45.2"/>
<circle class="st2" cx="765.5" cy="495.5" r="45.2"/>
<path class="st2" d="M695.5,628.2c-0.1-9.6,2.9-18.9,8.6-26.6l36.6,26.6H695.5z"/>
<g class="st3">
	<path d="M4.9,15.7L5,20.9c0.8-1.8,1.9-3.2,3.3-4.2s3.2-1.5,5.2-1.5c2.2,0,4,0.6,5.3,1.7s2.3,2.8,2.8,5.2c0.7-2.2,1.8-3.8,3.3-5.1
		s3.4-1.8,5.7-1.8c2.8,0,4.9,0.9,6.4,2.7s2.2,4.7,2.2,8.6V41H38V26.5c0-3.7-0.7-6.3-2-7.8s-3.1-2.3-5.2-2.3c-2.7,0-4.7,0.8-6.1,2.4
		s-2.2,3.7-2.6,6.3c0,0.3,0,0.6,0,0.8s0,0.4,0,0.7v14.4h-1.3V26.6c0-3.7-0.7-6.3-2-7.8s-3.1-2.3-5.3-2.3c-2.6,0-4.6,0.8-6,2.3
		s-2.2,3.5-2.6,6v16.3H3.8V15.7H4.9z"/>
	<path d="M55.7,41.6c-2.9,0-5.4-1.2-7.5-3.5s-3.2-5.2-3.2-8.7v-1.5c0-3.6,1-6.7,3-9s4.5-3.6,7.5-3.6c2.9,0,5.2,0.9,7,2.8
		s2.7,4.4,2.7,7.5v1.9h-19v0.3v1.5c0,3.1,0.9,5.7,2.7,7.8s4,3.2,6.7,3.2c1.9,0,3.5-0.3,4.7-0.8s2.4-1.3,3.3-2.3l0.7,1
		c-1,1.1-2.2,1.9-3.6,2.5S57.6,41.6,55.7,41.6z M55.6,16.5c-2.5,0-4.6,0.9-6.3,2.8s-2.6,4.1-2.8,6.9l0.1,0.1h17.5v-0.8
		c0-2.6-0.8-4.7-2.3-6.4S58.1,16.5,55.6,16.5z"/>
	<path d="M70.1,28.4c0-4,0.8-7.2,2.5-9.6s4-3.6,7-3.6c2,0,3.7,0.4,5.1,1.3s2.6,2.1,3.5,3.7V4.5h1.3v36.6h-1.2l0-3.9
		c-0.8,1.4-2,2.4-3.5,3.2s-3.2,1.2-5.2,1.2c-3,0-5.3-1.1-7-3.4s-2.5-5.4-2.5-9.3V28.4z M71.4,28.8c0,3.5,0.7,6.3,2.1,8.3
		s3.4,3.1,6.1,3.1c2.2,0,4-0.5,5.5-1.5s2.5-2.3,3.2-4V22.9c-0.6-1.8-1.6-3.3-3-4.6s-3.2-1.8-5.7-1.8c-2.7,0-4.7,1.1-6.1,3.3
		s-2.1,5.1-2.1,8.6V28.8z"/>
	<path d="M99.1,7.7h-1.3V4.5h1.3V7.7z M99.1,41.1h-1.3V15.7h1.3V41.1z"/>
	<path d="M123.3,36.4c-0.9,1.5-2.2,2.8-3.9,3.7s-3.8,1.4-6.3,1.4c-2.4,0-4.2-0.6-5.6-1.9s-2-3-2-5.2c0-2.1,1-3.9,3-5.3
		s4.5-2.2,7.5-2.2h7.2v-3.7c0-2.1-0.7-3.8-2-4.9s-3.3-1.8-5.7-1.8c-2.3,0-4.1,0.6-5.5,1.7s-2.1,2.5-2.1,4.3l-1.1,0l0-0.1
		c-0.1-2,0.7-3.6,2.3-5s3.8-2.1,6.4-2.1c2.7,0,4.9,0.7,6.5,2.1s2.5,3.4,2.5,6V36c0,0.9,0.1,1.8,0.2,2.6s0.3,1.7,0.5,2.5h-1.4
		c-0.2-1.1-0.3-1.9-0.4-2.5s-0.1-1.2-0.1-1.8V36.4z M113.1,40.3c2.5,0,4.6-0.6,6.4-1.7s3-2.7,3.8-4.8v-5.7h-7.2
		c-2.6,0-4.8,0.6-6.6,1.8s-2.7,2.7-2.7,4.5c0,1.7,0.6,3.1,1.7,4.2S111.2,40.3,113.1,40.3z"/>
	<path d="M161.3,36.5c-0.8,1.6-1.9,2.9-3.4,3.7s-3.3,1.3-5.4,1.3c-2.6,0-4.7-0.9-6.1-2.8s-2.2-4.7-2.2-8.6V15.7h1.3v14.5
		c0,3.4,0.6,6,1.9,7.6s3,2.5,5.1,2.5c2.6,0,4.7-0.6,6.1-1.9s2.3-3,2.7-5.2V15.7h1.3v25.4h-1.1L161.3,36.5z"/>
	<path d="M186,34.8c0-1.3-0.6-2.6-1.7-3.7s-3.2-2-6-2.6c-3-0.6-5.2-1.5-6.6-2.5s-2-2.5-2-4.5c0-1.8,0.8-3.3,2.3-4.6s3.6-1.8,6.2-1.8
		c2.8,0,5,0.7,6.6,2s2.4,3,2.3,5.1l0,0.1H186c0-1.7-0.7-3.1-2.1-4.2s-3.3-1.7-5.7-1.7c-2.4,0-4.2,0.5-5.4,1.5s-1.8,2.2-1.8,3.6
		c0,1.3,0.5,2.5,1.5,3.4s3.1,1.8,6.1,2.5c2.8,0.7,5,1.6,6.4,2.7s2.2,2.7,2.2,4.7c0,2-0.8,3.6-2.4,4.8s-3.8,1.9-6.5,1.9
		c-3,0-5.3-0.7-6.9-2s-2.5-2.9-2.4-4.8l0-0.1h1c0.1,2,1,3.4,2.6,4.3s3.5,1.3,5.6,1.3c2.3,0,4.2-0.5,5.6-1.6S186,36.3,186,34.8z"/>
	<path d="M210.3,36.4c-0.9,1.5-2.2,2.8-3.9,3.7s-3.8,1.4-6.3,1.4c-2.4,0-4.2-0.6-5.6-1.9s-2-3-2-5.2c0-2.1,1-3.9,3-5.3
		s4.5-2.2,7.5-2.2h7.2v-3.7c0-2.1-0.7-3.8-2-4.9s-3.3-1.8-5.7-1.8c-2.3,0-4.1,0.6-5.5,1.7s-2.1,2.5-2.1,4.3l-1.1,0l0-0.1
		c-0.1-2,0.7-3.6,2.3-5s3.8-2.1,6.4-2.1c2.7,0,4.9,0.7,6.5,2.1s2.5,3.4,2.5,6V36c0,0.9,0.1,1.8,0.2,2.6s0.3,1.7,0.5,2.5h-1.4
		c-0.2-1.1-0.3-1.9-0.4-2.5s-0.1-1.2-0.1-1.8V36.4z M200.1,40.3c2.5,0,4.6-0.6,6.4-1.7s3-2.7,3.8-4.8v-5.7h-7.2
		c-2.6,0-4.8,0.6-6.6,1.8s-2.7,2.7-2.7,4.5c0,1.7,0.6,3.1,1.7,4.2S198.2,40.3,200.1,40.3z"/>
	<path d="M218.5,28.4c0-4,0.8-7.2,2.5-9.6s4-3.6,7-3.6c2,0,3.7,0.4,5.1,1.3s2.6,2.1,3.5,3.7l0.2-4.5h1.1v25.5c0,3.2-0.8,5.7-2.5,7.5
		s-4,2.6-7,2.6c-1.2,0-2.5-0.1-3.9-0.4s-2.5-0.6-3.5-1.1l0.4-1.3c1.1,0.5,2.2,0.9,3.3,1.1s2.3,0.4,3.6,0.4c2.7,0,4.8-0.8,6.2-2.3
		s2.1-3.7,2.1-6.6v-4c-0.9,1.3-2,2.4-3.5,3.2s-3.2,1.2-5.1,1.2c-3,0-5.3-1.1-7-3.4s-2.5-5.4-2.5-9.3V28.4z M219.8,28.8
		c0,3.5,0.7,6.3,2.1,8.3s3.4,3.1,6.1,3.1c2.2,0,4-0.5,5.5-1.5s2.5-2.3,3.2-4v-12c-0.6-1.8-1.6-3.3-3-4.5s-3.2-1.8-5.6-1.8
		c-2.7,0-4.7,1.1-6.1,3.3s-2.1,5.1-2.1,8.6V28.8z"/>
	<path d="M254.6,41.6c-2.9,0-5.4-1.2-7.5-3.5s-3.2-5.2-3.2-8.7v-1.5c0-3.6,1-6.7,3-9s4.5-3.6,7.5-3.6c2.9,0,5.2,0.9,7,2.8
		s2.7,4.4,2.7,7.5v1.9h-19v0.3v1.5c0,3.1,0.9,5.7,2.7,7.8s4,3.2,6.7,3.2c1.9,0,3.5-0.3,4.7-0.8s2.4-1.3,3.3-2.3l0.7,1
		c-1,1.1-2.2,1.9-3.6,2.5S256.6,41.6,254.6,41.6z M254.6,16.5c-2.5,0-4.6,0.9-6.3,2.8s-2.6,4.1-2.8,6.9l0.1,0.1H263v-0.8
		c0-2.6-0.8-4.7-2.3-6.4S257.1,16.5,254.6,16.5z"/>
</g>
<g class="st3">
	<path class="st4" d="M8.6,70.5L9,72.4h0.1l0.4-1.9l3.2-10.1H15l3.2,10.1l0.5,2.1h0.1l0.4-2.1l2.5-10.1h2.9l-4.6,15.8h-2.3l-3.1-9.7
		l-0.7-2.7l-0.1,0l-0.6,2.7l-3,9.7H7.7L3.1,60.4H6L8.6,70.5z"/>
	<path class="st4" d="M33.9,76.5c-2.2,0-4-0.7-5.3-2.2s-2-3.4-2-5.7V68c0-2.3,0.7-4.1,2-5.6c1.3-1.5,2.9-2.2,4.8-2.2
		c2.1,0,3.8,0.6,4.8,1.9s1.6,3,1.6,5.2V69H29.6l0,0.1c0,1.5,0.4,2.8,1.2,3.7s1.8,1.5,3.1,1.5c1,0,1.8-0.1,2.6-0.4
		c0.7-0.3,1.4-0.7,1.9-1.1l1.1,1.9c-0.6,0.6-1.3,1-2.2,1.4C36.3,76.4,35.2,76.5,33.9,76.5z M33.4,62.4c-1,0-1.8,0.4-2.5,1.2
		c-0.7,0.8-1.1,1.8-1.3,3.1l0,0.1H37v-0.4c0-1.1-0.3-2.1-0.9-2.8S34.6,62.4,33.4,62.4z"/>
	<path class="st4" d="M49.7,76.5c-2.2,0-4-0.7-5.3-2.2s-2-3.4-2-5.7V68c0-2.3,0.7-4.1,2-5.6c1.3-1.5,2.9-2.2,4.8-2.2
		c2.1,0,3.8,0.6,4.8,1.9s1.6,3,1.6,5.2V69H45.5l0,0.1c0,1.5,0.4,2.8,1.2,3.7s1.8,1.5,3.1,1.5c1,0,1.8-0.1,2.6-0.4
		c0.7-0.3,1.4-0.7,1.9-1.1l1.1,1.9c-0.6,0.6-1.3,1-2.2,1.4C52.2,76.4,51,76.5,49.7,76.5z M49.3,62.4c-1,0-1.8,0.4-2.5,1.2
		c-0.7,0.8-1.1,1.8-1.3,3.1l0,0.1h7.3v-0.4c0-1.1-0.3-2.1-0.9-2.8S50.5,62.4,49.3,62.4z"/>
	<path class="st4" d="M63.8,68.9h-1.9v7.3H59V53.4h2.9v13.2h1.8l4.3-6.2h3.5l-5.4,7.2l6.2,8.7h-3.4L63.8,68.9z"/>
	<path class="st4" d="M81.2,68.2c0-2.3,0.6-4.3,1.9-5.8c1.3-1.5,3-2.3,5.2-2.3c2.2,0,3.9,0.8,5.2,2.3s1.9,3.4,1.9,5.8v0.3
		c0,2.4-0.6,4.3-1.9,5.8s-3,2.3-5.2,2.3s-3.9-0.8-5.2-2.3c-1.3-1.5-1.9-3.4-1.9-5.8V68.2z M84.1,68.5c0,1.7,0.4,3.1,1.1,4.2
		c0.7,1.1,1.8,1.6,3.2,1.6c1.4,0,2.4-0.5,3.1-1.6c0.7-1.1,1.1-2.5,1.1-4.2v-0.3c0-1.7-0.4-3-1.1-4.1s-1.8-1.7-3.2-1.7
		c-1.4,0-2.4,0.6-3.1,1.7s-1.1,2.5-1.1,4.1V68.5z"/>
	<path class="st4" d="M100.1,76.2V62.5h-2.5v-2.1h2.5v-2c0-1.7,0.4-3,1.3-3.9c0.9-0.9,2.1-1.4,3.7-1.4c0.3,0,0.7,0,1,0.1
		s0.7,0.1,1.1,0.2l-0.4,2.2c-0.2,0-0.4-0.1-0.6-0.1s-0.5,0-0.8,0c-0.8,0-1.5,0.3-1.9,0.8c-0.4,0.5-0.6,1.2-0.6,2.2v2h3.3v2.1H103
		v13.7H100.1z"/>
	<path class="st4" d="M125.9,72c0-0.6-0.2-1.2-0.7-1.6s-1.4-0.8-2.7-1.1c-1.9-0.4-3.4-1-4.3-1.7s-1.5-1.7-1.5-2.9
		c0-1.3,0.5-2.4,1.6-3.3c1.1-0.9,2.5-1.4,4.3-1.4c1.8,0,3.3,0.5,4.4,1.4s1.6,2.1,1.6,3.5l0,0.1h-2.8c0-0.7-0.3-1.3-0.9-1.9
		c-0.6-0.6-1.3-0.8-2.3-0.8c-1,0-1.8,0.2-2.3,0.7s-0.7,1-0.7,1.6c0,0.6,0.2,1.1,0.7,1.5s1.3,0.7,2.7,1c2,0.4,3.5,1,4.5,1.8
		s1.5,1.7,1.5,3c0,1.4-0.6,2.5-1.7,3.4s-2.6,1.3-4.5,1.3c-2,0-3.6-0.5-4.8-1.5s-1.7-2.2-1.7-3.6l0-0.1h2.8c0,1,0.4,1.8,1.1,2.2
		c0.7,0.5,1.5,0.7,2.5,0.7c1,0,1.8-0.2,2.4-0.6C125.6,73.2,125.9,72.7,125.9,72z"/>
	<path class="st4" d="M139,76.5c-2.2,0-4-0.7-5.3-2.2s-2-3.4-2-5.7V68c0-2.3,0.7-4.1,2-5.6c1.3-1.5,2.9-2.2,4.8-2.2
		c2.1,0,3.8,0.6,4.8,1.9s1.6,3,1.6,5.2V69h-10.3l0,0.1c0,1.5,0.4,2.8,1.2,3.7s1.8,1.5,3.1,1.5c1,0,1.8-0.1,2.6-0.4
		c0.7-0.3,1.4-0.7,1.9-1.1l1.1,1.9c-0.6,0.6-1.3,1-2.2,1.4C141.4,76.4,140.3,76.5,139,76.5z M138.5,62.4c-1,0-1.8,0.4-2.5,1.2
		c-0.7,0.8-1.1,1.8-1.3,3.1l0,0.1h7.3v-0.4c0-1.1-0.3-2.1-0.9-2.8S139.7,62.4,138.5,62.4z"/>
	<path class="st4" d="M161.8,68.9c0,2.3-0.5,4.1-1.6,5.5c-1.1,1.4-2.6,2.1-4.5,2.1c-1,0-1.8-0.2-2.6-0.5c-0.7-0.3-1.4-0.8-1.9-1.5
		v7.7h-2.9V60.4h2.2l0.5,2.1c0.5-0.8,1.2-1.3,1.9-1.7s1.7-0.6,2.7-0.6c2,0,3.5,0.8,4.6,2.3c1.1,1.6,1.6,3.6,1.6,6.2V68.9z
		 M158.9,68.6c0-1.8-0.4-3.3-1.1-4.4c-0.7-1.2-1.8-1.7-3.1-1.7c-0.8,0-1.5,0.2-2.1,0.6c-0.6,0.4-1.1,0.9-1.4,1.5v7.7
		c0.4,0.7,0.8,1.2,1.4,1.5c0.6,0.4,1.3,0.5,2.2,0.5c1.4,0,2.4-0.5,3.1-1.5c0.7-1,1.1-2.3,1.1-3.9V68.6z"/>
	<path class="st4" d="M169.1,56.6v3.8h3v2.1h-3v9.6c0,0.7,0.2,1.3,0.5,1.6s0.7,0.5,1.2,0.5c0.2,0,0.3,0,0.5-0.1s0.4-0.1,0.5-0.1
		l0.4,2c-0.2,0.2-0.5,0.3-0.9,0.4s-0.8,0.2-1.3,0.2c-1.2,0-2.1-0.4-2.8-1.1s-1-1.8-1-3.3v-9.6h-2.5v-2.1h2.5v-3.8H169.1z"/>
	<path class="st4" d="M191,76.2h-2.9V57.7l-4.4,0.1v-2.1l7.3-0.8V76.2z"/>
	<path class="st4" d="M212.7,60.5c0,1.1-0.3,2.1-0.9,2.9c-0.6,0.8-1.5,1.5-2.5,1.9c1.2,0.4,2.2,1.1,3,2c0.7,0.9,1.1,2,1.1,3.2
		c0,2-0.6,3.5-1.9,4.5c-1.3,1-3,1.6-5,1.6c-2.1,0-3.8-0.5-5-1.6c-1.3-1-1.9-2.5-1.9-4.5c0-1.2,0.4-2.3,1.1-3.2s1.7-1.6,2.9-2
		c-1.1-0.4-1.9-1-2.5-1.9c-0.6-0.8-0.9-1.8-0.9-2.9c0-1.9,0.6-3.3,1.7-4.3c1.2-1,2.7-1.5,4.6-1.5c1.9,0,3.4,0.5,4.6,1.5
		C212.1,57.1,212.7,58.6,212.7,60.5z M210.5,70.4c0-1.2-0.4-2.1-1.2-2.9s-1.7-1.1-2.9-1.1c-1.2,0-2.2,0.4-2.9,1.1
		c-0.7,0.8-1.1,1.7-1.1,2.9c0,1.2,0.4,2.2,1.1,2.8c0.7,0.7,1.7,1,3,1c1.2,0,2.2-0.3,2.9-1S210.5,71.6,210.5,70.4z M209.9,60.5
		c0-1.1-0.3-1.9-1-2.6c-0.7-0.7-1.5-1-2.5-1c-1,0-1.9,0.3-2.5,1s-1,1.6-1,2.7c0,1.1,0.3,2,1,2.6s1.5,1,2.5,1c1,0,1.8-0.3,2.5-1
		S209.9,61.6,209.9,60.5z"/>
	<path class="st4" d="M230,68.3h-7.2v-2.3h7.2V68.3z"/>
	<path class="st4" d="M253.5,76.2h-13.8v-2l7-7.8c1.2-1.4,2.1-2.5,2.5-3.3c0.4-0.8,0.7-1.7,0.7-2.5c0-1.1-0.3-2-0.9-2.7
		c-0.6-0.7-1.4-1.1-2.5-1.1c-1.5,0-2.6,0.4-3.3,1.1c-0.7,0.8-1,1.8-1,3.2h-2.8l0-0.1c0-1.8,0.6-3.4,1.8-4.6s3-1.9,5.3-1.9
		c1.9,0,3.4,0.6,4.6,1.7c1.1,1.1,1.7,2.5,1.7,4.3c0,1.2-0.3,2.3-1,3.5c-0.7,1.2-1.7,2.4-2.9,3.8l-5.6,6.1l0,0.1h10.3V76.2z"/>
	<path class="st4" d="M268.1,69.1h2.9v2.3h-2.9v4.9h-2.9v-4.9h-9.6v-1.6l9.4-14.8h3V69.1z M258.7,69.1h6.5V59l-0.1,0l-0.3,0.7
		L258.7,69.1z"/>
</g>
<g class="st3">
	<path class="st5" d="M868.3,16.9l1-9.4h8.5v2.1h-6.6l-0.6,4.8c0.4-0.3,0.8-0.5,1.2-0.7s1-0.3,1.5-0.3c1.6,0,2.8,0.5,3.7,1.5
		s1.4,2.4,1.4,4.2c0,1.7-0.5,3.1-1.4,4.1s-2.3,1.6-4,1.6c-1.4,0-2.6-0.4-3.6-1.2s-1.4-1.9-1.4-3.5l0-0.1h2.1c0,0.9,0.3,1.6,0.8,2.2
		s1.2,0.8,2.1,0.8c1,0,1.7-0.3,2.3-1s0.8-1.6,0.8-2.8c0-1.1-0.3-2-0.8-2.7s-1.3-1.1-2.3-1.1c-0.9,0-1.6,0.1-2,0.4s-0.7,0.7-0.9,1.3
		L868.3,16.9z"/>
	<path class="st5" d="M891.6,12c0,0.9-0.2,1.7-0.8,2.3s-1.2,1.2-2,1.5c1,0.3,1.8,0.9,2.4,1.6s0.9,1.6,0.9,2.5c0,1.6-0.5,2.8-1.5,3.6
		s-2.4,1.2-4,1.2c-1.7,0-3-0.4-4-1.2s-1.5-2-1.5-3.6c0-1,0.3-1.8,0.9-2.5s1.4-1.3,2.3-1.6c-0.9-0.3-1.5-0.8-2-1.5s-0.7-1.4-0.7-2.3
		c0-1.5,0.5-2.7,1.4-3.5s2.2-1.2,3.7-1.2c1.5,0,2.7,0.4,3.7,1.2S891.6,10.5,891.6,12z M889.7,20c0-0.9-0.3-1.7-0.9-2.3
		c-0.6-0.6-1.4-0.9-2.3-0.9c-1,0-1.7,0.3-2.3,0.9c-0.6,0.6-0.9,1.4-0.9,2.3c0,1,0.3,1.7,0.9,2.3s1.4,0.8,2.4,0.8
		c1,0,1.7-0.3,2.3-0.8S889.7,20.9,889.7,20z M889.2,12.1c0-0.8-0.3-1.5-0.8-2.1s-1.2-0.8-2-0.8c-0.8,0-1.5,0.3-2,0.8
		s-0.8,1.2-0.8,2.1c0,0.9,0.3,1.6,0.8,2.1s1.2,0.8,2,0.8c0.8,0,1.5-0.3,2-0.8S889.2,12.9,889.2,12.1z"/>
	<path class="st5" d="M897.4,24.6h-2.3v-2.4h2.3V24.6z"/>
	<path class="st5" d="M912.1,9.4c-2.1,2.5-3.5,4.6-4.2,6.5s-1.2,4.2-1.6,6.9l-0.2,1.8h-2.3l0.2-1.8c0.3-2.7,1-5.1,1.9-7.2
		s2.2-4.2,3.9-6.2h-9.3V7.6h11.5V9.4z"/>
	<path class="st5" d="M914.4,10.9c0-1,0.3-1.8,1-2.5s1.5-1,2.6-1s1.9,0.3,2.6,1s1,1.5,1,2.5v0.9c0,1-0.3,1.8-1,2.5s-1.5,1-2.5,1
		c-1.1,0-1.9-0.3-2.6-1s-1-1.5-1-2.5V10.9z M916.1,11.8c0,0.6,0.2,1.1,0.5,1.5s0.8,0.6,1.4,0.6c0.6,0,1-0.2,1.3-0.6s0.5-0.9,0.5-1.5
		v-0.9c0-0.6-0.2-1.1-0.5-1.5s-0.8-0.6-1.3-0.6c-0.6,0-1,0.2-1.3,0.6s-0.5,0.9-0.5,1.5V11.8z M918.5,23.4l-1.3-0.8l8.3-13.3l1.3,0.8
		L918.5,23.4z M922.6,20.5c0-1,0.3-1.8,1-2.5s1.5-1,2.6-1c1.1,0,1.9,0.3,2.6,1s1,1.5,1,2.5v0.9c0,1-0.3,1.8-1,2.5s-1.5,1-2.5,1
		c-1.1,0-1.9-0.3-2.6-1s-1-1.5-1-2.5V20.5z M924.4,21.4c0,0.6,0.2,1.1,0.5,1.5s0.8,0.6,1.4,0.6c0.6,0,1-0.2,1.3-0.6s0.5-0.9,0.5-1.5
		v-0.9c0-0.6-0.2-1.1-0.5-1.5s-0.8-0.6-1.3-0.6c-0.6,0-1,0.2-1.3,0.6s-0.5,0.9-0.5,1.5V21.4z"/>
	<path class="st5" d="M943.5,23.1c0.8,0,1.4-0.2,2-0.7s0.9-1.1,0.9-1.7h2.1l0,0.1c0,1.1-0.4,2.1-1.5,2.9s-2.2,1.3-3.5,1.3
		c-1.8,0-3.3-0.6-4.2-1.8s-1.5-2.7-1.5-4.5v-0.5c0-1.8,0.5-3.3,1.5-4.5s2.4-1.8,4.2-1.8c1.5,0,2.7,0.4,3.6,1.3s1.4,1.9,1.4,3.2
		l0,0.1h-2.1c0-0.8-0.3-1.4-0.8-2s-1.2-0.8-2.1-0.8c-1.2,0-2.1,0.4-2.6,1.3c-0.5,0.9-0.8,1.9-0.8,3.2v0.5c0,1.3,0.3,2.4,0.8,3.2
		S942.3,23.1,943.5,23.1z"/>
	<path class="st5" d="M950.6,18.2c0-1.9,0.5-3.4,1.5-4.6s2.4-1.8,4.1-1.8c1.8,0,3.1,0.6,4.2,1.8s1.5,2.8,1.5,4.6v0.3
		c0,1.9-0.5,3.4-1.5,4.6s-2.4,1.8-4.1,1.8s-3.1-0.6-4.2-1.8s-1.5-2.8-1.5-4.6V18.2z M952.9,18.4c0,1.3,0.3,2.5,0.8,3.3
		s1.4,1.3,2.5,1.3c1.1,0,1.9-0.4,2.5-1.3s0.9-2,0.9-3.3v-0.3c0-1.3-0.3-2.4-0.9-3.3c-0.6-0.9-1.4-1.3-2.5-1.3
		c-1.1,0-1.9,0.4-2.5,1.3c-0.6,0.9-0.8,2-0.8,3.3V18.4z"/>
	<path class="st5" d="M966.8,12l0.2,1.7c0.4-0.6,0.9-1.1,1.6-1.4s1.4-0.5,2.2-0.5s1.6,0.2,2.2,0.6s1.1,1,1.4,1.8
		c0.4-0.7,0.9-1.3,1.6-1.7s1.4-0.6,2.3-0.6c1.3,0,2.3,0.4,3.1,1.3s1.1,2.2,1.1,4v7.6h-2.3V17c0-1.2-0.2-2.1-0.6-2.7
		s-1.1-0.8-1.9-0.8c-0.8,0-1.4,0.3-1.9,0.8s-0.8,1.2-0.9,2.1v0.1v8.1h-2.3V17c0-1.2-0.2-2.1-0.7-2.6s-1.1-0.8-1.9-0.8
		c-0.7,0-1.3,0.1-1.7,0.4s-0.8,0.7-1,1.2v9.4h-2.3V12H966.8z"/>
	<path class="st5" d="M996.5,18.8c0,1.8-0.4,3.3-1.3,4.4s-2.1,1.7-3.6,1.7c-0.8,0-1.5-0.1-2.1-0.4s-1.1-0.7-1.5-1.2v6.2h-2.3V12h1.8
		l0.4,1.6c0.4-0.6,0.9-1.1,1.5-1.4s1.3-0.5,2.2-0.5c1.6,0,2.8,0.6,3.7,1.9s1.3,2.9,1.3,4.9V18.8z M994.2,18.5c0-1.4-0.3-2.6-0.8-3.5
		s-1.4-1.4-2.5-1.4c-0.7,0-1.2,0.2-1.7,0.5c-0.5,0.3-0.8,0.7-1.1,1.2v6.1c0.3,0.5,0.7,0.9,1.1,1.2c0.5,0.3,1,0.4,1.7,0.4
		c1.1,0,1.9-0.4,2.5-1.2c0.6-0.8,0.8-1.8,0.8-3.1V18.5z"/>
	<path class="st5" d="M1007.4,22.8c-0.4,0.7-0.9,1.2-1.5,1.6s-1.3,0.6-2.2,0.6c-1.4,0-2.5-0.4-3.2-1.3s-1.2-2.3-1.2-4.1V12h2.3v7.5
		c0,1.4,0.2,2.3,0.6,2.8s1,0.8,1.9,0.8c0.8,0,1.5-0.2,2-0.5s0.9-0.8,1.2-1.4V12h2.3v12.7h-2.1L1007.4,22.8z"/>
	<path class="st5" d="M1016,8.9V12h2.4v1.7h-2.4v7.7c0,0.6,0.1,1,0.4,1.3s0.6,0.4,1,0.4c0.1,0,0.3,0,0.4,0s0.3-0.1,0.4-0.1l0.3,1.6
		c-0.2,0.1-0.4,0.3-0.8,0.3s-0.7,0.1-1,0.1c-0.9,0-1.7-0.3-2.2-0.8s-0.8-1.5-0.8-2.7v-7.7h-2V12h2V8.9H1016z"/>
	<path class="st5" d="M1026.6,24.9c-1.8,0-3.2-0.6-4.2-1.8s-1.6-2.7-1.6-4.6V18c0-1.8,0.5-3.3,1.6-4.5s2.3-1.8,3.8-1.8
		c1.7,0,3,0.5,3.9,1.5s1.3,2.4,1.3,4.1v1.4h-8.2l0,0.1c0,1.2,0.3,2.2,0.9,3c0.6,0.8,1.4,1.2,2.5,1.2c0.8,0,1.5-0.1,2.1-0.3
		s1.1-0.5,1.5-0.9l0.9,1.5c-0.5,0.4-1.1,0.8-1.8,1.1S1027.6,24.9,1026.6,24.9z M1026.2,13.5c-0.8,0-1.4,0.3-2,1
		c-0.5,0.6-0.9,1.5-1,2.4l0,0.1h5.8v-0.3c0-0.9-0.2-1.7-0.7-2.3S1027.2,13.5,1026.2,13.5z"/>
	<path class="st5" d="M1040,14l-1.2-0.1c-0.6,0-1.1,0.1-1.5,0.4s-0.7,0.7-1,1.2v9.1h-2.3V12h2.1l0.2,1.9c0.4-0.7,0.8-1.2,1.3-1.5
		s1.1-0.6,1.8-0.6c0.2,0,0.3,0,0.5,0s0.3,0.1,0.4,0.1L1040,14z"/>
</g>
<g class="st3">
	<path class="st6" d="M870.8,58.5h2c1,0,1.7-0.3,2.2-0.8s0.6-1.2,0.6-2.1c0-1-0.2-1.7-0.7-2.2s-1.2-0.8-2.1-0.8
		c-0.9,0-1.6,0.3-2.2,0.8s-0.8,1.2-0.8,2.1h-2.2l0-0.1c0-1.3,0.4-2.4,1.4-3.3s2.2-1.4,3.8-1.4c1.6,0,2.8,0.4,3.8,1.3s1.4,2,1.4,3.6
		c0,0.7-0.2,1.4-0.6,2.1s-1.1,1.2-1.9,1.6c1,0.3,1.7,0.9,2.2,1.6s0.6,1.5,0.6,2.4c0,1.6-0.5,2.8-1.5,3.7s-2.3,1.3-3.9,1.3
		c-1.6,0-2.8-0.4-3.9-1.3s-1.5-2-1.5-3.4l0-0.1h2.2c0,0.9,0.3,1.6,0.8,2.1c0.6,0.5,1.3,0.8,2.3,0.8c1,0,1.7-0.3,2.3-0.8
		s0.8-1.3,0.8-2.3c0-1.1-0.2-1.8-0.7-2.3s-1.3-0.7-2.3-0.7h-2V58.5z"/>
	<path class="st6" d="M881.8,60.4l1-9.4h8.5v2.1h-6.6l-0.6,4.8c0.4-0.3,0.8-0.5,1.2-0.7s1-0.3,1.5-0.3c1.6,0,2.8,0.5,3.7,1.5
		s1.4,2.4,1.4,4.2c0,1.7-0.5,3.1-1.4,4.1s-2.3,1.6-4,1.6c-1.4,0-2.6-0.4-3.6-1.2s-1.4-1.9-1.4-3.5l0-0.1h2.1c0,0.9,0.3,1.6,0.8,2.2
		s1.2,0.8,2.1,0.8c1,0,1.7-0.3,2.3-1s0.8-1.6,0.8-2.8c0-1.1-0.3-2-0.8-2.7s-1.3-1.1-2.3-1.1c-0.9,0-1.6,0.1-2,0.4s-0.7,0.7-0.9,1.3
		L881.8,60.4z"/>
	<path class="st6" d="M897.4,68.1h-2.3v-2.4h2.3V68.1z"/>
	<path class="st6" d="M907.6,50.8c0.6,0,1.2,0.1,1.7,0.2s1,0.3,1.4,0.5l-0.5,1.8c-0.4-0.2-0.8-0.4-1.2-0.5s-0.9-0.2-1.5-0.2
		c-1.2,0-2.2,0.5-2.9,1.5s-1.1,2.2-1.1,3.8v0.3c0.5-0.4,1.1-0.8,1.7-1s1.3-0.4,2.1-0.4c1.5,0,2.7,0.5,3.6,1.6s1.4,2.4,1.4,4
		c0,1.8-0.5,3.2-1.4,4.3s-2.3,1.7-3.9,1.7c-1.7,0-3.1-0.6-4.1-1.8s-1.6-2.9-1.6-5.1v-3.3c0-2.2,0.6-4,1.8-5.3S905.8,50.8,907.6,50.8
		z M906.8,58.5c-0.8,0-1.5,0.2-2,0.5c-0.6,0.3-1,0.7-1.3,1.3v1.4c0,1.6,0.3,2.8,1,3.6s1.5,1.3,2.5,1.3c0.9,0,1.7-0.4,2.2-1.2
		s0.8-1.8,0.8-3c0-1.1-0.3-2-0.8-2.8C908.6,58.8,907.8,58.5,906.8,58.5z"/>
	<path class="st6" d="M914.4,54.3c0-1,0.3-1.8,1-2.5s1.5-1,2.6-1s1.9,0.3,2.6,1s1,1.5,1,2.5v0.9c0,1-0.3,1.8-1,2.5s-1.5,1-2.5,1
		c-1.1,0-1.9-0.3-2.6-1s-1-1.5-1-2.5V54.3z M916.1,55.2c0,0.6,0.2,1.1,0.5,1.5s0.8,0.6,1.4,0.6c0.6,0,1-0.2,1.3-0.6s0.5-0.9,0.5-1.5
		v-0.9c0-0.6-0.2-1.1-0.5-1.5s-0.8-0.6-1.3-0.6c-0.6,0-1,0.2-1.3,0.6s-0.5,0.9-0.5,1.5V55.2z M918.5,66.8l-1.3-0.8l8.3-13.3l1.3,0.8
		L918.5,66.8z M922.6,63.9c0-1,0.3-1.8,1-2.5s1.5-1,2.6-1c1.1,0,1.9,0.3,2.6,1s1,1.5,1,2.5v0.9c0,1-0.3,1.8-1,2.5s-1.5,1-2.5,1
		c-1.1,0-1.9-0.3-2.6-1s-1-1.5-1-2.5V63.9z M924.4,64.8c0,0.6,0.2,1.1,0.5,1.5s0.8,0.6,1.4,0.6c0.6,0,1-0.2,1.3-0.6s0.5-0.9,0.5-1.5
		v-0.9c0-0.6-0.2-1.1-0.5-1.5s-0.8-0.6-1.3-0.6c-0.6,0-1,0.2-1.3,0.6s-0.5,0.9-0.5,1.5V64.8z"/>
	<path class="st6" d="M949.2,62.2c0,1.8-0.4,3.3-1.3,4.4s-2.1,1.7-3.6,1.7c-0.8,0-1.5-0.1-2.1-0.4s-1.1-0.7-1.5-1.2V73h-2.3V55.4
		h1.8l0.4,1.6c0.4-0.6,0.9-1.1,1.5-1.4s1.3-0.5,2.2-0.5c1.6,0,2.8,0.6,3.7,1.9s1.3,2.9,1.3,4.9V62.2z M946.9,62
		c0-1.4-0.3-2.6-0.8-3.5s-1.4-1.4-2.5-1.4c-0.7,0-1.2,0.2-1.7,0.5c-0.5,0.3-0.8,0.7-1.1,1.2v6.1c0.3,0.5,0.7,0.9,1.1,1.2
		c0.5,0.3,1,0.4,1.7,0.4c1.1,0,1.9-0.4,2.5-1.2c0.6-0.8,0.8-1.8,0.8-3.1V62z"/>
	<path class="st6" d="M954.3,57.1c0.4-0.6,1-1.1,1.6-1.4s1.3-0.5,2.1-0.5c1.4,0,2.4,0.4,3.2,1.2s1.1,2.1,1.1,3.8v7.9H960v-8
		c0-1-0.2-1.8-0.7-2.3s-1.1-0.8-2-0.8c-0.6,0-1.2,0.2-1.7,0.5s-0.9,0.7-1.3,1.2v9.4H952V49.8h2.3V57.1z"/>
	<path class="st6" d="M965.1,61.6c0-1.9,0.5-3.4,1.5-4.6s2.4-1.8,4.1-1.8c1.8,0,3.1,0.6,4.2,1.8s1.5,2.8,1.5,4.6v0.3
		c0,1.9-0.5,3.4-1.5,4.6s-2.4,1.8-4.1,1.8s-3.1-0.6-4.2-1.8s-1.5-2.8-1.5-4.6V61.6z M967.4,61.9c0,1.3,0.3,2.5,0.8,3.3
		s1.4,1.3,2.5,1.3c1.1,0,1.9-0.4,2.5-1.3s0.9-2,0.9-3.3v-0.3c0-1.3-0.3-2.4-0.9-3.3c-0.6-0.9-1.4-1.3-2.5-1.3
		c-1.1,0-1.9,0.4-2.5,1.3c-0.6,0.9-0.8,2-0.8,3.3V61.9z"/>
	<path class="st6" d="M981.3,55.4l0.2,1.9c0.4-0.7,1-1.2,1.6-1.6s1.4-0.6,2.2-0.6c1.4,0,2.4,0.4,3.2,1.2s1.1,2,1.1,3.7v8h-2.3v-8
		c0-1.1-0.2-1.9-0.7-2.4s-1.1-0.7-2-0.7c-0.7,0-1.3,0.2-1.8,0.5s-0.9,0.8-1.2,1.3v9.2h-2.3V55.4H981.3z"/>
	<path class="st6" d="M998.2,68.3c-1.8,0-3.2-0.6-4.2-1.8s-1.6-2.7-1.6-4.6v-0.5c0-1.8,0.5-3.3,1.6-4.5s2.3-1.8,3.8-1.8
		c1.7,0,3,0.5,3.9,1.5s1.3,2.4,1.3,4.1v1.4h-8.2l0,0.1c0,1.2,0.3,2.2,0.9,3c0.6,0.8,1.4,1.2,2.5,1.2c0.8,0,1.5-0.1,2.1-0.3
		s1.1-0.5,1.5-0.9l0.9,1.5c-0.5,0.4-1.1,0.8-1.8,1.1S999.2,68.3,998.2,68.3z M997.8,57c-0.8,0-1.4,0.3-2,1c-0.5,0.6-0.9,1.5-1,2.4
		l0,0.1h5.8v-0.3c0-0.9-0.2-1.7-0.7-2.3S998.8,57,997.8,57z"/>
</g>
<g class="st3">
	<path class="st7" d="M868.3,103.8l1-9.4h8.5v2.1h-6.6l-0.6,4.8c0.4-0.3,0.8-0.5,1.2-0.7s1-0.3,1.5-0.3c1.6,0,2.8,0.5,3.7,1.5
		s1.4,2.4,1.4,4.2c0,1.7-0.5,3.1-1.4,4.1s-2.3,1.6-4,1.6c-1.4,0-2.6-0.4-3.6-1.2s-1.4-1.9-1.4-3.5l0-0.1h2.1c0,0.9,0.3,1.6,0.8,2.2
		s1.2,0.8,2.1,0.8c1,0,1.7-0.3,2.3-1s0.8-1.6,0.8-2.8c0-1.1-0.3-2-0.8-2.7s-1.3-1.1-2.3-1.1c-0.9,0-1.6,0.1-2,0.4s-0.7,0.7-0.9,1.3
		L868.3,103.8z"/>
	<path class="st7" d="M883.9,111.5h-2.3v-2.4h2.3V111.5z"/>
	<path class="st7" d="M898.6,96.3c-2.1,2.5-3.5,4.6-4.2,6.5s-1.2,4.2-1.6,6.9l-0.2,1.8h-2.3l0.2-1.8c0.3-2.7,1-5.1,1.9-7.2
		s2.2-4.2,3.9-6.2H887v-1.8h11.5V96.3z"/>
	<path class="st7" d="M900.9,97.7c0-1,0.3-1.8,1-2.5s1.5-1,2.6-1s1.9,0.3,2.6,1s1,1.5,1,2.5v0.9c0,1-0.3,1.8-1,2.5s-1.5,1-2.5,1
		c-1.1,0-1.9-0.3-2.6-1s-1-1.5-1-2.5V97.7z M902.6,98.6c0,0.6,0.2,1.1,0.5,1.5s0.8,0.6,1.4,0.6c0.6,0,1-0.2,1.3-0.6s0.5-0.9,0.5-1.5
		v-0.9c0-0.6-0.2-1.1-0.5-1.5s-0.8-0.6-1.3-0.6c-0.6,0-1,0.2-1.3,0.6s-0.5,0.9-0.5,1.5V98.6z M905,110.2l-1.3-0.8l8.3-13.3l1.3,0.8
		L905,110.2z M909.1,107.3c0-1,0.3-1.8,1-2.5s1.5-1,2.6-1c1.1,0,1.9,0.3,2.6,1s1,1.5,1,2.5v0.9c0,1-0.3,1.8-1,2.5s-1.5,1-2.5,1
		c-1.1,0-1.9-0.3-2.6-1s-1-1.5-1-2.5V107.3z M910.8,108.3c0,0.6,0.2,1.1,0.5,1.5s0.8,0.6,1.4,0.6c0.6,0,1-0.2,1.3-0.6
		s0.5-0.9,0.5-1.5v-0.9c0-0.6-0.2-1.1-0.5-1.5s-0.8-0.6-1.3-0.6c-0.6,0-1,0.2-1.3,0.6s-0.5,0.9-0.5,1.5V108.3z"/>
	<path class="st7" d="M935.7,105.7c0,1.8-0.4,3.3-1.3,4.4s-2.1,1.7-3.6,1.7c-0.8,0-1.6-0.2-2.2-0.5s-1.1-0.8-1.5-1.4l-0.3,1.7h-1.9
		V93.2h2.3v7.1c0.4-0.6,0.9-1,1.5-1.3s1.3-0.4,2.1-0.4c1.6,0,2.8,0.6,3.7,1.9s1.3,2.9,1.3,4.9V105.7z M933.4,105.4
		c0-1.5-0.3-2.6-0.8-3.6s-1.3-1.4-2.4-1.4c-0.7,0-1.3,0.2-1.8,0.5s-0.9,0.8-1.2,1.4v5.5c0.3,0.6,0.7,1.1,1.2,1.5s1.1,0.5,1.8,0.5
		c1.1,0,1.9-0.4,2.4-1.2s0.8-1.8,0.8-3.1V105.4z"/>
	<path class="st7" d="M938,105.1c0-1.9,0.5-3.4,1.5-4.6s2.4-1.8,4.1-1.8c1.8,0,3.1,0.6,4.2,1.8s1.5,2.8,1.5,4.6v0.3
		c0,1.9-0.5,3.4-1.5,4.6s-2.4,1.8-4.1,1.8s-3.1-0.6-4.2-1.8s-1.5-2.8-1.5-4.6V105.1z M940.3,105.3c0,1.3,0.3,2.5,0.8,3.3
		s1.4,1.3,2.5,1.3c1.1,0,1.9-0.4,2.5-1.3s0.9-2,0.9-3.3v-0.3c0-1.3-0.3-2.4-0.9-3.3c-0.6-0.9-1.4-1.3-2.5-1.3
		c-1.1,0-1.9,0.4-2.5,1.3c-0.6,0.9-0.8,2-0.8,3.3V105.3z"/>
	<path class="st7" d="M951.6,105.1c0-1.9,0.5-3.4,1.5-4.6s2.4-1.8,4.1-1.8c1.8,0,3.1,0.6,4.2,1.8s1.5,2.8,1.5,4.6v0.3
		c0,1.9-0.5,3.4-1.5,4.6s-2.4,1.8-4.1,1.8s-3.1-0.6-4.2-1.8s-1.5-2.8-1.5-4.6V105.1z M953.9,105.3c0,1.3,0.3,2.5,0.8,3.3
		s1.4,1.3,2.5,1.3c1.1,0,1.9-0.4,2.5-1.3s0.9-2,0.9-3.3v-0.3c0-1.3-0.3-2.4-0.9-3.3c-0.6-0.9-1.4-1.3-2.5-1.3
		c-1.1,0-1.9,0.4-2.5,1.3c-0.6,0.9-0.8,2-0.8,3.3V105.3z"/>
	<path class="st7" d="M969.6,105.6h-1.5v5.9h-2.3V93.2h2.3v10.6h1.5l3.5-5h2.8l-4.3,5.8l5,6.9h-2.7L969.6,105.6z"/>
</g>
</svg>
